Agenda-Black.ufo
<glyph name="breve" format="1">
  <advance width="500"/>
  <unicode hex="0005"/>
  <outline>
    <contour>
      <point x="406" y="543" type="line"/>
      <point x="386" y="526"/>
      <point x="361" y="514" type="qcurve" smooth="yes"/>
      <point x="340" y="503"/>
      <point x="282" y="485"/>
      <point x="250" y="485" type="qcurve" smooth="yes"/>
      <point x="216" y="485"/>
      <point x="159" y="503"/>
      <point x="138" y="514" type="qcurve" smooth="yes"/>
      <point x="113" y="526"/>
      <point x="92" y="543" type="qcurve"/>
      <point x="156" y="612" type="line"/>
      <point x="170" y="604"/>
      <point x="185" y="598" type="qcurve" smooth="yes"/>
      <point x="198" y="593"/>
      <point x="231" y="584"/>
      <point x="250" y="584" type="qcurve" smooth="yes"/>
      <point x="268" y="584"/>
      <point x="301" y="593"/>
      <point x="314" y="598" type="qcurve" smooth="yes"/>
      <point x="329" y="604"/>
      <point x="342" y="612" type="qcurve"/>
      <point x="406" y="543" type="line"/>
    </contour>
  </outline>
</glyph>
<glyph name="dotaccent" format="1">
  <advance width="500"/>
  <unicode hex="0006"/>
  <outline>
    <contour>
      <point x="339" y="574" type="qcurve" smooth="yes"/>
      <point x="339" y="563"/>
      <point x="319" y="533"/>
      <point x="291" y="505"/>
      <point x="261" y="485"/>
      <point x="250" y="485" type="qcurve" smooth="yes"/>
      <point x="239" y="485"/>
      <point x="209" y="505"/>
      <point x="181" y="533"/>
      <point x="161" y="563"/>
      <point x="161" y="574" type="qcurve" smooth="yes"/>
      <point x="161" y="584"/>
      <point x="181" y="615"/>
      <point x="209" y="642"/>
      <point x="239" y="662"/>
      <point x="250" y="662" type="qcurve" smooth="yes"/>
      <point x="261" y="662"/>
      <point x="291" y="642"/>
      <point x="319" y="615"/>
      <point x="339" y="584"/>
    </contour>
  </outline>
</glyph>
<glyph name="ring" format="1">
  <advance width="500"/>
  <unicode hex="0008"/>
  <outline>
    <contour>
      <point x="387" y="601" type="qcurve" smooth="yes"/>
      <point x="387" y="573"/>
      <point x="365" y="523"/>
      <point x="328" y="486"/>
      <point x="278" y="465"/>
      <point x="250" y="465" type="qcurve" smooth="yes"/>
      <point x="222" y="465"/>
      <point x="172" y="486"/>
      <point x="135" y="523"/>
      <point x="113" y="573"/>
      <point x="113" y="601" type="qcurve" smooth="yes"/>
      <point x="113" y="629"/>
      <point x="135" y="679"/>
      <point x="172" y="716"/>
      <point x="222" y="737"/>
      <point x="250" y="737" type="qcurve" smooth="yes"/>
      <point x="278" y="737"/>
      <point x="328" y="716"/>
      <point x="365" y="679"/>
      <point x="387" y="629"/>
    </contour>
    <contour>
      <point x="314" y="601" type="qcurve" smooth="yes"/>
      <point x="314" y="629"/>
      <point x="278" y="665"/>
      <point x="250" y="665" type="qcurve" smooth="yes"/>
      <point x="222" y="665"/>
      <point x="186" y="629"/>
      <point x="186" y="601" type="qcurve" smooth="yes"/>
      <point x="186" y="573"/>
      <point x="222" y="537"/>
      <point x="250" y="537" type="qcurve" smooth="yes"/>
      <point x="278" y="537"/>
      <point x="314" y="573"/>
    </contour>
  </outline>
</glyph>
<glyph name="hungarumlaut" format="1">
  <advance width="500"/>
  <unicode hex="000A"/>
  <outline>
    <contour>
      <point x="470" y="623" type="line"/>
      <point x="442" y="577"/>
      <point x="385" y="514"/>
      <point x="349" y="485" type="qcurve"/>
      <point x="242" y="509" type="line"/>
      <point x="287" y="547"/>
      <point x="368" y="648"/>
      <point x="395" y="696" type="qcurve"/>
      <point x="470" y="623" type="line"/>
    </contour>
    <contour>
      <point x="263" y="623" type="line"/>
      <point x="234" y="577"/>
      <point x="177" y="514"/>
      <point x="142" y="485" type="qcurve"/>
      <point x="35" y="509" type="line"/>
      <point x="80" y="547"/>
      <point x="161" y="648"/>
      <point x="188" y="696" type="qcurve"/>
      <point x="263" y="623" type="line"/>
    </contour>
  </outline>
</glyph>
<glyph name="ogonek" format="1">
  <advance width="500"/>
  <unicode hex="000B"/>
  <outline>
    <contour>
      <point x="356" y="-226" type="line"/>
      <point x="343" y="-235"/>
      <point x="300" y="-245"/>
      <point x="274" y="-245" type="qcurve" smooth="yes"/>
      <point x="221" y="-245"/>
      <point x="158" y="-187"/>
      <point x="158" y="-139" type="qcurve" smooth="yes"/>
      <point x="158" y="-114"/>
      <point x="177" y="-70"/>
      <point x="207" y="-33"/>
      <point x="243" y="-7"/>
      <point x="260" y="0" type="qcurve"/>
      <point x="364" y="0" type="line"/>
      <point x="317" y="-23"/>
      <point x="253" y="-91"/>
      <point x="253" y="-124" type="qcurve" smooth="yes"/>
      <point x="253" y="-139"/>
      <point x="276" y="-161"/>
      <point x="296" y="-161" type="qcurve" smooth="yes"/>
      <point x="315" y="-161"/>
      <point x="350" y="-153"/>
      <point x="365" y="-143" type="qcurve"/>
    </contour>
  </outline>
</glyph>
<glyph name="caron" format="1">
  <advance width="500"/>
  <unicode hex="000C"/>
  <outline>
    <contour>
      <point x="417" y="623" type="line"/>
      <point x="377" y="604"/>
      <point x="285" y="531"/>
      <point x="250" y="477" type="qcurve"/>
      <point x="215" y="531"/>
      <point x="123" y="604"/>
      <point x="83" y="623" type="qcurve"/>
      <point x="160" y="700" type="line"/>
      <point x="184" y="689"/>
      <point x="228" y="660"/>
      <point x="250" y="638" type="qcurve"/>
      <point x="273" y="661"/>
      <point x="316" y="689"/>
      <point x="340" y="700" type="qcurve"/>
      <point x="417" y="623" type="line"/>
    </contour>
  </outline>
</glyph>
<glyph name="dotlessi" format="1">
  <advance width="285"/>
  <unicode hex="000D"/>
  <outline>
    <contour>
      <point x="40" y="0" type="line"/>
      <point x="40" y="453" type="line"/>
      <point x="245" y="453" type="line"/>
      <point x="245" y="0" type="line"/>
    </contour>
  </outline>
</glyph>
<glyph name="fraction" format="1">
  <advance width="605"/>
  <unicode hex="0019"/>
  <outline>
    <contour>
      <point x="99" y="-13" type="line"/>
      <point x="20" y="49" type="line"/>
      <point x="507" y="650" type="line"/>
      <point x="585" y="589" type="line"/>
    </contour>
  </outline>
</glyph>
<glyph name="fi" format="1">
  <advance width="605"/>
  <unicode hex="001A"/>
  <outline>
    <contour>
      <point x="362" y="0" type="line"/>
      <point x="362" y="286" type="line"/>
      <point x="273" y="286" type="line"/>
      <point x="273" y="0" type="line"/>
      <point x="74" y="0" type="line"/>
      <point x="74" y="286" type="line"/>
      <point x="12" y="286" type="line"/>
      <point x="12" y="453" type="line"/>
      <point x="74" y="453" type="line"/>
      <point x="74" y="457" type="line" smooth="yes"/>
      <point x="74" y="518"/>
      <point x="114" y="617"/>
      <point x="187" y="687"/>
      <point x="291" y="724"/>
      <point x="355" y="724" type="qcurve" smooth="yes"/>
      <point x="387" y="724"/>
      <point x="446" y="713"/>
      <point x="463" y="705" type="qcurve"/>
      <point x="458" y="536" type="line"/>
      <point x="441" y="544"/>
      <point x="404" y="553"/>
      <point x="380" y="553" type="qcurve" smooth="yes"/>
      <point x="324" y="553"/>
      <point x="273" y="509"/>
      <point x="273" y="465" type="qcurve" smooth="yes"/>
      <point x="273" y="453" type="line"/>
      <point x="565" y="453" type="line"/>
      <point x="565" y="0" type="line"/>
    </contour>
  </outline>
</glyph>
<glyph name="fl" format="1">
  <advance width="683"/>
  <unicode hex="001B"/>
  <outline>
    <contour>
      <point x="623" y="-22" type="line"/>
      <point x="581" y="-22"/>
      <point x="508" y="7"/>
      <point x="453" y="60"/>
      <point x="421" y="135"/>
      <point x="421" y="182" type="qcurve" smooth="yes"/>
      <point x="421" y="543" type="line"/>
      <point x="399" y="557"/>
      <point x="357" y="557" type="qcurve" smooth="yes"/>
      <point x="313" y="557"/>
      <point x="273" y="504"/>
      <point x="273" y="469" type="qcurve" smooth="yes"/>
      <point x="273" y="453" type="line"/>
      <point x="352" y="453" type="line"/>
      <point x="347" y="286" type="line"/>
      <point x="273" y="286" type="line"/>
      <point x="273" y="0" type="line"/>
      <point x="74" y="0" type="line"/>
      <point x="74" y="286" type="line"/>
      <point x="12" y="286" type="line"/>
      <point x="12" y="453" type="line"/>
      <point x="74" y="453" type="line"/>
      <point x="74" y="457" type="line" smooth="yes"/>
      <point x="74" y="517"/>
      <point x="113" y="615"/>
      <point x="192" y="685"/>
      <point x="311" y="724"/>
      <point x="391" y="724" type="qcurve" smooth="yes"/>
      <point x="420" y="724"/>
      <point x="485" y="712"/>
      <point x="547" y="692"/>
      <point x="602" y="664"/>
      <point x="620" y="649" type="qcurve"/>
      <point x="620" y="195" type="line" smooth="yes"/>
      <point x="620" y="162"/>
      <point x="647" y="132"/>
      <point x="672" y="125" type="qcurve"/>
    </contour>
  </outline>
</glyph>
<glyph name="Lslash" format="1">
  <advance width="553"/>
  <unicode hex="001C"/>
  <outline>
    <contour>
      <point x="96" y="0" type="line"/>
      <point x="96" y="201" type="line"/>
      <point x="54" y="177" type="line"/>
      <point x="-18" y="305" type="line"/>
      <point x="96" y="371" type="line"/>
      <point x="96" y="638" type="line"/>
      <point x="309" y="638" type="line"/>
      <point x="309" y="493" type="line"/>
      <point x="385" y="537" type="line"/>
      <point x="385" y="367" type="line"/>
      <point x="309" y="323" type="line"/>
      <point x="309" y="184" type="line"/>
      <point x="540" y="184" type="line"/>
      <point x="540" y="0" type="line"/>
    </contour>
  </outline>
</glyph>
<glyph name="lslash" format="1">
  <advance width="384"/>
  <unicode hex="001D"/>
  <outline>
    <contour>
      <point x="293" y="315" type="line"/>
      <point x="293" y="191" type="line" smooth="yes"/>
      <point x="293" y="158"/>
      <point x="320" y="128"/>
      <point x="345" y="121" type="qcurve"/>
      <point x="276" y="-22" type="line"/>
      <point x="241" y="-22"/>
      <point x="176" y="7"/>
      <point x="125" y="60"/>
      <point x="94" y="135"/>
      <point x="94" y="182" type="qcurve" smooth="yes"/>
      <point x="94" y="201" type="line"/>
      <point x="52" y="177" type="line"/>
      <point x="-20" y="305" type="line"/>
      <point x="94" y="371" type="line"/>
      <point x="94" y="712" type="line"/>
      <point x="293" y="712" type="line"/>
      <point x="293" y="485" type="line"/>
      <point x="365" y="527" type="line"/>
      <point x="365" y="357" type="line"/>
    </contour>
  </outline>
</glyph>
<glyph name="zcaron" format="1">
  <advance width="455"/>
  <unicode hex="001F"/>
  <outline>
    <contour>
      <point x="27" y="0" type="line"/>
      <point x="27" y="38" type="line"/>
      <point x="110" y="203" type="line" smooth="yes"/>
      <point x="132" y="248"/>
      <point x="157" y="284" type="qcurve"/>
      <point x="156" y="286" type="line"/>
      <point x="48" y="286" type="line"/>
      <point x="48" y="453" type="line"/>
      <point x="411" y="453" type="line"/>
      <point x="411" y="415" type="line"/>
      <point x="327" y="248" type="line" smooth="yes"/>
      <point x="306" y="204"/>
      <point x="280" y="169" type="qcurve"/>
      <point x="281" y="167" type="line"/>
      <point x="423" y="167" type="line"/>
      <point x="423" y="0" type="line"/>
    </contour>
    <contour>
      <point x="367" y="622" type="line"/>
      <point x="333" y="605"/>
      <point x="255" y="544"/>
      <point x="225" y="497" type="qcurve"/>
      <point x="196" y="544"/>
      <point x="118" y="605"/>
      <point x="84" y="622" type="qcurve"/>
      <point x="149" y="687" type="line"/>
      <point x="169" y="677"/>
      <point x="207" y="653"/>
      <point x="225" y="634" type="qcurve"/>
      <point x="245" y="654"/>
      <point x="282" y="677"/>
      <point x="302" y="687" type="qcurve"/>
      <point x="367" y="622" type="line"/>
    </contour>
  </outline>
</glyph>
<glyph name="exclam" format="1">
  <advance width="269"/>
  <unicode hex="0021"/>
  <outline>
    <contour>
      <point x="216" y="222" type="line"/>
      <point x="52" y="255" type="line"/>
      <point x="33" y="682" type="line"/>
      <point x="236" y="682" type="line"/>
    </contour>
    <contour>
      <point x="240" y="87" type="qcurve" smooth="yes"/>
      <point x="240" y="74"/>
      <point x="217" y="38"/>
      <point x="184" y="5"/>
      <point x="148" y="-18"/>
      <point x="135" y="-18" type="qcurve" smooth="yes"/>
      <point x="122" y="-18"/>
      <point x="86" y="5"/>
      <point x="53" y="38"/>
      <point x="30" y="74"/>
      <point x="30" y="87" type="qcurve" smooth="yes"/>
      <point x="30" y="99"/>
      <point x="53" y="135"/>
      <point x="86" y="168"/>
      <point x="122" y="191"/>
      <point x="135" y="191" type="qcurve" smooth="yes"/>
      <point x="148" y="191"/>
      <point x="184" y="168"/>
      <point x="217" y="135"/>
      <point x="240" y="99"/>
    </contour>
  </outline>
</glyph>
<glyph name="quotedbl" format="1">
  <advance width="416"/>
  <unicode hex="0022"/>
  <outline>
    <contour>
      <point x="357" y="378" type="line"/>
      <point x="263" y="378" type="line"/>
      <point x="237" y="712" type="line"/>
      <point x="383" y="712" type="line"/>
    </contour>
    <contour>
      <point x="153" y="378" type="line"/>
      <point x="59" y="378" type="line"/>
      <point x="33" y="712" type="line"/>
      <point x="179" y="712" type="line"/>
    </contour>
  </outline>
</glyph>
<glyph name="numbersign" format="1">
  <advance width="472"/>
  <unicode hex="0023"/>
  <outline>
    <contour>
      <point x="373" y="353" type="line"/>
      <point x="358" y="285" type="line"/>
      <point x="403" y="285" type="line"/>
      <point x="403" y="187" type="line"/>
      <point x="334" y="187" type="line"/>
      <point x="291" y="0" type="line"/>
      <point x="185" y="0" type="line"/>
      <point x="228" y="187" type="line"/>
      <point x="182" y="187" type="line"/>
      <point x="139" y="0" type="line"/>
      <point x="33" y="0" type="line"/>
      <point x="76" y="187" type="line"/>
      <point x="33" y="187" type="line"/>
      <point x="33" y="285" type="line"/>
      <point x="100" y="285" type="line"/>
      <point x="115" y="353" type="line"/>
      <point x="71" y="353" type="line"/>
      <point x="71" y="451" type="line"/>
      <point x="138" y="451" type="line"/>
      <point x="181" y="638" type="line"/>
      <point x="287" y="638" type="line"/>
      <point x="244" y="451" type="line"/>
      <point x="290" y="451" type="line"/>
      <point x="333" y="638" type="line"/>
      <point x="439" y="638" type="line"/>
      <point x="396" y="451" type="line"/>
      <point x="442" y="451" type="line"/>
      <point x="442" y="353" type="line"/>
    </contour>
    <contour>
      <point x="221" y="353" type="line"/>
      <point x="206" y="285" type="line"/>
      <point x="252" y="285" type="line"/>
      <point x="267" y="353" type="line"/>
    </contour>
  </outline>
</glyph>
<glyph name="dollar" format="1">
  <advance width="513"/>
  <unicode hex="0024"/>
  <outline>
    <contour>
      <point x="479" y="192" type="qcurve" smooth="yes"/>
      <point x="479" y="104"/>
      <point x="390" y="-4"/>
      <point x="304" y="-16" type="qcurve"/>
      <point x="304" y="-97" type="line"/>
      <point x="208" y="-97" type="line"/>
      <point x="208" y="-15" type="line"/>
      <point x="160" y="-12"/>
      <point x="83" y="17"/>
      <point x="46" y="39" type="qcurve"/>
      <point x="51" y="208" type="line"/>
      <point x="87" y="183"/>
      <point x="178" y="149"/>
      <point x="235" y="149" type="qcurve" smooth="yes"/>
      <point x="255" y="149"/>
      <point x="279" y="170"/>
      <point x="279" y="184" type="qcurve" smooth="yes"/>
      <point x="279" y="193"/>
      <point x="274" y="205"/>
      <point x="259" y="216"/>
      <point x="233" y="228"/>
      <point x="212" y="236" type="qcurve" smooth="yes"/>
      <point x="121" y="272"/>
      <point x="31" y="374"/>
      <point x="31" y="455" type="qcurve" smooth="yes"/>
      <point x="31" y="534"/>
      <point x="123" y="642"/>
      <point x="208" y="652" type="qcurve"/>
      <point x="208" y="737" type="line"/>
      <point x="304" y="737" type="line"/>
      <point x="304" y="655" type="line"/>
      <point x="343" y="650"/>
      <point x="408" y="634"/>
      <point x="434" y="620" type="qcurve"/>
      <point x="429" y="447" type="line"/>
      <point x="416" y="456"/>
      <point x="378" y="472"/>
      <point x="334" y="485"/>
      <point x="286" y="493"/>
      <point x="263" y="493" type="qcurve" smooth="yes"/>
      <point x="244" y="493"/>
      <point x="226" y="476"/>
      <point x="226" y="463" type="qcurve" smooth="yes"/>
      <point x="226" y="456"/>
      <point x="230" y="445"/>
      <point x="244" y="435"/>
      <point x="271" y="423"/>
      <point x="295" y="414" type="qcurve" smooth="yes"/>
      <point x="388" y="381"/>
      <point x="479" y="266"/>
    </contour>
  </outline>
</glyph>
<glyph name="ampersand" format="1">
  <advance width="649"/>
  <unicode hex="0026"/>
  <outline>
    <contour>
      <point x="448" y="0" type="line"/>
      <point x="417" y="31" type="line"/>
      <point x="378" y="9"/>
      <point x="287" y="-16"/>
      <point x="235" y="-16" type="qcurve" smooth="yes"/>
      <point x="185" y="-16"/>
      <point x="105" y="12"/>
      <point x="49" y="62"/>
      <point x="18" y="128"/>
      <point x="18" y="167" type="qcurve" smooth="yes"/>
      <point x="18" y="206"/>
      <point x="34" y="263"/>
      <point x="60" y="303"/>
      <point x="91" y="331"/>
      <point x="105" y="341" type="qcurve"/>
      <point x="79" y="370"/>
      <point x="51" y="430"/>
      <point x="51" y="468" type="qcurve" smooth="yes"/>
      <point x="51" y="511"/>
      <point x="82" y="580"/>
      <point x="136" y="629"/>
      <point x="210" y="656"/>
      <point x="253" y="656" type="qcurve" smooth="yes"/>
      <point x="297" y="656"/>
      <point x="373" y="629"/>
      <point x="430" y="579"/>
      <point x="463" y="508"/>
      <point x="463" y="464" type="qcurve" smooth="yes"/>
      <point x="463" y="435"/>
      <point x="444" y="385"/>
      <point x="415" y="345"/>
      <point x="381" y="314"/>
      <point x="365" y="304" type="qcurve"/>
      <point x="425" y="244" type="line"/>
      <point x="450" y="273"/>
      <point x="492" y="337"/>
      <point x="508" y="372" type="qcurve"/>
      <point x="621" y="259" type="line"/>
      <point x="607" y="229"/>
      <point x="566" y="163"/>
      <point x="538" y="131" type="qcurve"/>
      <point x="669" y="0" type="line"/>
    </contour>
    <contour>
      <point x="299" y="471" type="qcurve" smooth="yes"/>
      <point x="299" y="488"/>
      <point x="275" y="516"/>
      <point x="255" y="516" type="qcurve" smooth="yes"/>
      <point x="235" y="516"/>
      <point x="210" y="491"/>
      <point x="210" y="474" type="qcurve" smooth="yes"/>
      <point x="210" y="450"/>
      <point x="252" y="414" type="qcurve"/>
      <point x="275" y="428"/>
      <point x="299" y="458"/>
    </contour>
    <contour>
      <point x="217" y="229" type="line"/>
      <point x="200" y="221"/>
      <point x="185" y="192"/>
      <point x="185" y="174" type="qcurve" smooth="yes"/>
      <point x="185" y="152"/>
      <point x="220" y="128"/>
      <point x="243" y="128" type="qcurve" smooth="yes"/>
      <point x="269" y="128"/>
      <point x="303" y="144" type="qcurve"/>
    </contour>
  </outline>
</glyph>
<glyph name="quotesingle" format="1">
  <advance width="212"/>
  <unicode hex="0027"/>
  <outline>
    <contour>
      <point x="153" y="378" type="line"/>
      <point x="59" y="378" type="line"/>
      <point x="33" y="712" type="line"/>
      <point x="179" y="712" type="line"/>
    </contour>
  </outline>
</glyph>
<glyph name="parenleft" format="1">
  <advance width="323"/>
  <unicode hex="0028"/>
  <outline>
    <contour>
      <point x="328" y="697" type="line"/>
      <point x="280" y="592"/>
      <point x="234" y="350"/>
      <point x="234" y="230" type="qcurve" smooth="yes"/>
      <point x="234" y="101"/>
      <point x="277" y="-131"/>
      <point x="327" y="-246" type="qcurve"/>
      <point x="123" y="-205" type="line"/>
      <point x="97" y="-145"/>
      <point x="62" y="-33"/>
      <point x="39" y="78"/>
      <point x="29" y="194"/>
      <point x="29" y="258" type="qcurve" smooth="yes"/>
      <point x="29" y="395"/>
      <point x="73" y="627"/>
      <point x="121" y="736" type="qcurve"/>
      <point x="328" y="697" type="line"/>
    </contour>
  </outline>
</glyph>
<glyph name="parenright" format="1">
  <advance width="323"/>
  <unicode hex="0029"/>
  <outline>
    <contour>
      <point x="294" y="226" type="qcurve" smooth="yes"/>
      <point x="294" y="89"/>
      <point x="250" y="-143"/>
      <point x="202" y="-252" type="qcurve"/>
      <point x="-5" y="-213" type="line"/>
      <point x="43" y="-108"/>
      <point x="89" y="134"/>
      <point x="89" y="254" type="qcurve" smooth="yes"/>
      <point x="89" y="383"/>
      <point x="45" y="614"/>
      <point x="-4" y="730" type="qcurve"/>
      <point x="200" y="689" type="line"/>
      <point x="225" y="629"/>
      <point x="261" y="517"/>
      <point x="284" y="406"/>
      <point x="294" y="290"/>
    </contour>
  </outline>
</glyph>
<glyph name="asterisk" format="1">
  <advance width="468"/>
  <unicode hex="002A"/>
  <outline>
    <contour>
      <point x="326" y="472" type="line"/>
      <point x="404" y="377" type="line"/>
      <point x="315" y="281" type="line"/>
      <point x="235" y="406" type="line"/>
      <point x="171" y="303" type="line"/>
      <point x="52" y="359" type="line"/>
      <point x="149" y="472" type="line"/>
      <point x="30" y="504" type="line"/>
      <point x="45" y="631" type="line"/>
      <point x="178" y="575" type="line"/>
      <point x="171" y="696" type="line"/>
      <point x="300" y="725" type="line"/>
      <point x="293" y="578" type="line"/>
      <point x="400" y="624" type="line"/>
      <point x="468" y="511" type="line"/>
    </contour>
  </outline>
</glyph>
<glyph name="plus" format="1">
  <advance width="449"/>
  <unicode hex="002B"/>
  <outline>
    <contour>
      <point x="304" y="202" type="line"/>
      <point x="304" y="91" type="line"/>
      <point x="144" y="91" type="line"/>
      <point x="144" y="202" type="line"/>
      <point x="25" y="202" type="line"/>
      <point x="25" y="348" type="line"/>
      <point x="144" y="348" type="line"/>
      <point x="144" y="459" type="line"/>
      <point x="304" y="459" type="line"/>
      <point x="304" y="348" type="line"/>
      <point x="424" y="348" type="line"/>
      <point x="424" y="202" type="line"/>
    </contour>
  </outline>
</glyph>
<glyph name="hyphen" format="1">
  <advance width="325"/>
  <unicode hex="002D"/>
  <outline>
    <contour>
      <point x="25" y="202" type="line"/>
      <point x="25" y="348" type="line"/>
      <point x="300" y="348" type="line"/>
      <point x="300" y="202" type="line"/>
    </contour>
  </outline>
</glyph>
<glyph name="period" format="1">
  <advance width="244"/>
  <unicode hex="002E"/>
  <outline>
    <contour>
      <point x="227" y="87" type="qcurve" smooth="yes"/>
      <point x="227" y="74"/>
      <point x="204" y="38"/>
      <point x="171" y="5"/>
      <point x="135" y="-18"/>
      <point x="122" y="-18" type="qcurve" smooth="yes"/>
      <point x="109" y="-18"/>
      <point x="73" y="5"/>
      <point x="40" y="38"/>
      <point x="17" y="74"/>
      <point x="17" y="87" type="qcurve" smooth="yes"/>
      <point x="17" y="99"/>
      <point x="40" y="135"/>
      <point x="73" y="168"/>
      <point x="109" y="191"/>
      <point x="122" y="191" type="qcurve" smooth="yes"/>
      <point x="135" y="191"/>
      <point x="171" y="168"/>
      <point x="204" y="135"/>
      <point x="227" y="99"/>
    </contour>
  </outline>
</glyph>
<glyph name="slash" format="1">
  <advance width="676"/>
  <unicode hex="002F"/>
  <outline>
    <contour>
      <point x="148" y="-26" type="line"/>
      <point x="35" y="71" type="line"/>
      <point x="529" y="680" type="line"/>
      <point x="641" y="586" type="line"/>
    </contour>
  </outline>
</glyph>
<glyph name="zero" format="1">
  <advance width="564"/>
  <unicode hex="0030"/>
  <outline>
    <contour>
      <point x="534" y="319" type="qcurve" smooth="yes"/>
      <point x="534" y="230"/>
      <point x="495" y="103"/>
      <point x="426" y="21"/>
      <point x="334" y="-18"/>
      <point x="282" y="-18" type="qcurve" smooth="yes"/>
      <point x="229" y="-18"/>
      <point x="138" y="21"/>
      <point x="69" y="103"/>
      <point x="30" y="230"/>
      <point x="30" y="319" type="qcurve" smooth="yes"/>
      <point x="30" y="407"/>
      <point x="69" y="534"/>
      <point x="138" y="617"/>
      <point x="229" y="656"/>
      <point x="282" y="656" type="qcurve" smooth="yes"/>
      <point x="334" y="656"/>
      <point x="426" y="617"/>
      <point x="495" y="534"/>
      <point x="534" y="407"/>
    </contour>
    <contour>
      <point x="334" y="319" type="qcurve" smooth="yes"/>
      <point x="334" y="391"/>
      <point x="306" y="484"/>
      <point x="282" y="484" type="qcurve" smooth="yes"/>
      <point x="270" y="484"/>
      <point x="251" y="459"/>
      <point x="238" y="415"/>
      <point x="231" y="354"/>
      <point x="231" y="319" type="qcurve" smooth="yes"/>
      <point x="231" y="247"/>
      <point x="258" y="156"/>
      <point x="282" y="156" type="qcurve" smooth="yes"/>
      <point x="306" y="156"/>
      <point x="334" y="245"/>
    </contour>
  </outline>
</glyph>
<glyph name="one" format="1">
  <advance width="355"/>
  <unicode hex="0031"/>
  <outline>
    <contour>
      <point x="108" y="0" type="line"/>
      <point x="108" y="455" type="line"/>
      <point x="13" y="447" type="line"/>
      <point x="18" y="625" type="line"/>
      <point x="306" y="651" type="line"/>
      <point x="306" y="0" type="line"/>
    </contour>
  </outline>
</glyph>
<glyph name="two" format="1">
  <advance width="489"/>
  <unicode hex="0032"/>
  <outline>
    <contour>
      <point x="24" y="0" type="line"/>
      <point x="24" y="60" type="line"/>
      <point x="60" y="95"/>
      <point x="136" y="187"/>
      <point x="198" y="282"/>
      <point x="237" y="370"/>
      <point x="237" y="401" type="qcurve" smooth="yes"/>
      <point x="237" y="435"/>
      <point x="197" y="478"/>
      <point x="164" y="478" type="qcurve" smooth="yes"/>
      <point x="132" y="478"/>
      <point x="71" y="460"/>
      <point x="43" y="443" type="qcurve"/>
      <point x="38" y="621" type="line"/>
      <point x="66" y="636"/>
      <point x="144" y="656"/>
      <point x="192" y="656" type="qcurve" smooth="yes"/>
      <point x="246" y="656"/>
      <point x="338" y="627"/>
      <point x="404" y="570"/>
      <point x="442" y="485"/>
      <point x="442" y="428" type="qcurve" smooth="yes"/>
      <point x="442" y="365"/>
      <point x="385" y="227"/>
      <point x="335" y="167" type="qcurve"/>
      <point x="475" y="167" type="line"/>
      <point x="475" y="0" type="line"/>
    </contour>
  </outline>
</glyph>
<glyph name="three" format="1">
  <advance width="442"/>
  <unicode hex="0033"/>
  <outline>
    <contour>
      <point x="417" y="201" type="qcurve" smooth="yes"/>
      <point x="417" y="87"/>
      <point x="271" y="-17"/>
      <point x="145" y="-17" type="qcurve" smooth="yes"/>
      <point x="120" y="-17"/>
      <point x="56" y="-6"/>
      <point x="34" y="3" type="qcurve"/>
      <point x="29" y="171" type="line"/>
      <point x="53" y="159"/>
      <point x="107" y="151"/>
      <point x="136" y="151" type="qcurve" smooth="yes"/>
      <point x="164" y="151"/>
      <point x="202" y="178"/>
      <point x="202" y="201" type="qcurve" smooth="yes"/>
      <point x="202" y="220"/>
      <point x="173" y="245"/>
      <point x="150" y="245" type="qcurve" smooth="yes"/>
      <point x="142" y="245"/>
      <point x="120" y="243"/>
      <point x="107" y="241" type="qcurve"/>
      <point x="101" y="392" type="line"/>
      <point x="131" y="400"/>
      <point x="166" y="427"/>
      <point x="166" y="448" type="qcurve" smooth="yes"/>
      <point x="166" y="463"/>
      <point x="142" y="487"/>
      <point x="116" y="487" type="qcurve" smooth="yes"/>
      <point x="95" y="487"/>
      <point x="63" y="483"/>
      <point x="47" y="478" type="qcurve"/>
      <point x="42" y="638" type="line"/>
      <point x="65" y="647"/>
      <point x="120" y="656"/>
      <point x="162" y="656" type="qcurve" smooth="yes"/>
      <point x="211" y="656"/>
      <point x="289" y="631"/>
      <point x="343" y="586"/>
      <point x="372" y="524"/>
      <point x="372" y="487" type="qcurve" smooth="yes"/>
      <point x="372" y="442"/>
      <point x="334" y="377"/>
      <point x="306" y="360" type="qcurve"/>
      <point x="327" y="353"/>
      <point x="366" y="325"/>
      <point x="398" y="284"/>
      <point x="417" y="231"/>
    </contour>
  </outline>
</glyph>
<glyph name="four" format="1">
  <advance width="544"/>
  <unicode hex="0034"/>
  <outline>
    <contour>
      <point x="461" y="137" type="line"/>
      <point x="461" y="0" type="line"/>
      <point x="280" y="0" type="line"/>
      <point x="280" y="137" type="line"/>
      <point x="26" y="137" type="line"/>
      <point x="4" y="296" type="line"/>
      <point x="254" y="638" type="line"/>
      <point x="461" y="638" type="line"/>
      <point x="461" y="285" type="line"/>
      <point x="522" y="285" type="line"/>
      <point x="522" y="137" type="line"/>
    </contour>
    <contour>
      <point x="282" y="443" type="line"/>
      <point x="268" y="412"/>
      <point x="251" y="388" type="qcurve" smooth="yes"/>
      <point x="177" y="285" type="line"/>
      <point x="280" y="285" type="line"/>
      <point x="280" y="390" type="line" smooth="yes"/>
      <point x="280" y="401"/>
      <point x="282" y="429"/>
      <point x="284" y="442" type="qcurve"/>
    </contour>
  </outline>
</glyph>
<glyph name="five" format="1">
  <advance width="457"/>
  <unicode hex="0035"/>
  <outline>
    <contour>
      <point x="432" y="204" type="qcurve" smooth="yes"/>
      <point x="432" y="95"/>
      <point x="294" y="-18"/>
      <point x="168" y="-18" type="qcurve" smooth="yes"/>
      <point x="130" y="-18"/>
      <point x="62" y="-5"/>
      <point x="43" y="4" type="qcurve"/>
      <point x="38" y="175" type="line"/>
      <point x="62" y="163"/>
      <point x="110" y="153"/>
      <point x="145" y="153" type="qcurve" smooth="yes"/>
      <point x="177" y="153"/>
      <point x="217" y="183"/>
      <point x="217" y="201" type="qcurve" smooth="yes"/>
      <point x="217" y="223"/>
      <point x="175" y="254"/>
      <point x="137" y="254" type="qcurve" smooth="yes"/>
      <point x="107" y="254"/>
      <point x="72" y="247"/>
      <point x="49" y="239" type="qcurve"/>
      <point x="58" y="638" type="line"/>
      <point x="381" y="638" type="line"/>
      <point x="376" y="471" type="line"/>
      <point x="251" y="471" type="line"/>
      <point x="248" y="399" type="line"/>
      <point x="259" y="399" type="line" smooth="yes"/>
      <point x="288" y="399"/>
      <point x="349" y="369"/>
      <point x="400" y="316"/>
      <point x="432" y="245"/>
    </contour>
  </outline>
</glyph>
<glyph name="six" format="1">
  <advance width="539"/>
  <unicode hex="0036"/>
  <outline>
    <contour>
      <point x="514" y="214" type="qcurve" smooth="yes"/>
      <point x="514" y="161"/>
      <point x="477" y="76"/>
      <point x="412" y="15"/>
      <point x="324" y="-18"/>
      <point x="273" y="-18" type="qcurve" smooth="yes"/>
      <point x="222" y="-18"/>
      <point x="133" y="17"/>
      <point x="67" y="82"/>
      <point x="30" y="175"/>
      <point x="30" y="233" type="qcurve" smooth="yes"/>
      <point x="30" y="298"/>
      <point x="67" y="422"/>
      <point x="132" y="533"/>
      <point x="221" y="629"/>
      <point x="274" y="665" type="qcurve"/>
      <point x="481" y="613" type="line"/>
      <point x="457" y="602"/>
      <point x="399" y="560"/>
      <point x="343" y="509"/>
      <point x="298" y="455"/>
      <point x="286" y="433" type="qcurve"/>
      <point x="292" y="433" type="line" smooth="yes"/>
      <point x="322" y="433"/>
      <point x="399" y="407"/>
      <point x="467" y="354"/>
      <point x="514" y="271"/>
    </contour>
    <contour>
      <point x="320" y="209" type="qcurve" smooth="yes"/>
      <point x="320" y="233"/>
      <point x="290" y="262"/>
      <point x="267" y="262" type="qcurve" smooth="yes"/>
      <point x="257" y="262"/>
      <point x="237" y="257"/>
      <point x="231" y="254" type="qcurve"/>
      <point x="227" y="239"/>
      <point x="227" y="218" type="qcurve" smooth="yes"/>
      <point x="227" y="189"/>
      <point x="258" y="161"/>
      <point x="278" y="161" type="qcurve" smooth="yes"/>
      <point x="295" y="161"/>
      <point x="320" y="189"/>
    </contour>
  </outline>
</glyph>
<glyph name="seven" format="1">
  <advance width="516"/>
  <unicode hex="0037"/>
  <outline>
    <contour>
      <point x="274" y="0" type="line"/>
      <point x="67" y="0" type="line"/>
      <point x="260" y="471" type="line"/>
      <point x="22" y="471" type="line"/>
      <point x="22" y="638" type="line"/>
      <point x="524" y="638" type="line"/>
    </contour>
  </outline>
</glyph>
<glyph name="eight" format="1">
  <advance width="558"/>
  <unicode hex="0038"/>
  <outline>
    <contour>
      <point x="528" y="192" type="qcurve" smooth="yes"/>
      <point x="528" y="95"/>
      <point x="397" y="-18"/>
      <point x="279" y="-18" type="qcurve" smooth="yes"/>
      <point x="161" y="-18"/>
      <point x="30" y="95"/>
      <point x="30" y="192" type="qcurve" smooth="yes"/>
      <point x="30" y="218"/>
      <point x="47" y="265"/>
      <point x="72" y="302"/>
      <point x="104" y="330"/>
      <point x="119" y="336" type="qcurve"/>
      <point x="104" y="345"/>
      <point x="78" y="375"/>
      <point x="59" y="411"/>
      <point x="47" y="451"/>
      <point x="47" y="470" type="qcurve" smooth="yes"/>
      <point x="47" y="511"/>
      <point x="79" y="579"/>
      <point x="139" y="629"/>
      <point x="223" y="656"/>
      <point x="276" y="656" type="qcurve" smooth="yes"/>
      <point x="328" y="656"/>
      <point x="413" y="628"/>
      <point x="473" y="578"/>
      <point x="506" y="507"/>
      <point x="506" y="464" type="qcurve" smooth="yes"/>
      <point x="506" y="447"/>
      <point x="494" y="411"/>
      <point x="475" y="376"/>
      <point x="449" y="348"/>
      <point x="435" y="340" type="qcurve"/>
      <point x="451" y="332"/>
      <point x="484" y="304"/>
      <point x="511" y="265"/>
      <point x="528" y="218"/>
    </contour>
    <contour>
      <point x="332" y="457" type="qcurve" smooth="yes"/>
      <point x="332" y="477"/>
      <point x="302" y="504"/>
      <point x="279" y="504" type="qcurve" smooth="yes"/>
      <point x="256" y="504"/>
      <point x="228" y="477"/>
      <point x="228" y="457" type="qcurve" smooth="yes"/>
      <point x="228" y="438"/>
      <point x="256" y="409"/>
      <point x="283" y="404" type="qcurve"/>
      <point x="307" y="410"/>
      <point x="332" y="438"/>
    </contour>
    <contour>
      <point x="333" y="190" type="qcurve" smooth="yes"/>
      <point x="333" y="213"/>
      <point x="292" y="243"/>
      <point x="271" y="248" type="qcurve"/>
      <point x="252" y="243"/>
      <point x="215" y="213"/>
      <point x="215" y="190" type="qcurve" smooth="yes"/>
      <point x="215" y="169"/>
      <point x="251" y="139"/>
      <point x="274" y="139" type="qcurve" smooth="yes"/>
      <point x="297" y="139"/>
      <point x="333" y="169"/>
    </contour>
  </outline>
</glyph>
<glyph name="nine" format="1">
  <advance width="539"/>
  <unicode hex="0039"/>
  <outline>
    <contour>
      <point x="509" y="405" type="qcurve" smooth="yes"/>
      <point x="509" y="340"/>
      <point x="472" y="216"/>
      <point x="407" y="105"/>
      <point x="318" y="9"/>
      <point x="265" y="-27" type="qcurve"/>
      <point x="58" y="25" type="line"/>
      <point x="82" y="36"/>
      <point x="140" y="78"/>
      <point x="196" y="129"/>
      <point x="241" y="182"/>
      <point x="253" y="205" type="qcurve"/>
      <point x="247" y="205" type="line" smooth="yes"/>
      <point x="217" y="205"/>
      <point x="140" y="231"/>
      <point x="72" y="284"/>
      <point x="25" y="367"/>
      <point x="25" y="424" type="qcurve" smooth="yes"/>
      <point x="25" y="476"/>
      <point x="62" y="562"/>
      <point x="127" y="623"/>
      <point x="215" y="656"/>
      <point x="266" y="656" type="qcurve" smooth="yes"/>
      <point x="317" y="656"/>
      <point x="406" y="621"/>
      <point x="472" y="556"/>
      <point x="509" y="463"/>
    </contour>
    <contour>
      <point x="312" y="420" type="qcurve" smooth="yes"/>
      <point x="312" y="449"/>
      <point x="281" y="477"/>
      <point x="261" y="477" type="qcurve" smooth="yes"/>
      <point x="244" y="477"/>
      <point x="219" y="449"/>
      <point x="219" y="429" type="qcurve" smooth="yes"/>
      <point x="219" y="405"/>
      <point x="249" y="376"/>
      <point x="272" y="376" type="qcurve" smooth="yes"/>
      <point x="282" y="376"/>
      <point x="302" y="381"/>
      <point x="308" y="384" type="qcurve"/>
      <point x="312" y="399"/>
    </contour>
  </outline>
</glyph>
<glyph name="colon" format="1">
  <advance width="244"/>
  <unicode hex="003A"/>
  <outline>
    <contour>
      <point x="227" y="367" type="qcurve" smooth="yes"/>
      <point x="227" y="354"/>
      <point x="204" y="318"/>
      <point x="171" y="285"/>
      <point x="135" y="262"/>
      <point x="122" y="262" type="qcurve" smooth="yes"/>
      <point x="109" y="262"/>
      <point x="73" y="285"/>
      <point x="40" y="318"/>
      <point x="17" y="354"/>
      <point x="17" y="367" type="qcurve" smooth="yes"/>
      <point x="17" y="379"/>
      <point x="40" y="415"/>
      <point x="73" y="448"/>
      <point x="109" y="471"/>
      <point x="122" y="471" type="qcurve" smooth="yes"/>
      <point x="135" y="471"/>
      <point x="171" y="448"/>
      <point x="204" y="415"/>
      <point x="227" y="379"/>
    </contour>
    <contour>
      <point x="227" y="87" type="qcurve" smooth="yes"/>
      <point x="227" y="74"/>
      <point x="204" y="38"/>
      <point x="171" y="5"/>
      <point x="135" y="-18"/>
      <point x="122" y="-18" type="qcurve" smooth="yes"/>
      <point x="109" y="-18"/>
      <point x="73" y="5"/>
      <point x="40" y="38"/>
      <point x="17" y="74"/>
      <point x="17" y="87" type="qcurve" smooth="yes"/>
      <point x="17" y="99"/>
      <point x="40" y="135"/>
      <point x="73" y="168"/>
      <point x="109" y="191"/>
      <point x="122" y="191" type="qcurve" smooth="yes"/>
      <point x="135" y="191"/>
      <point x="171" y="168"/>
      <point x="204" y="135"/>
      <point x="227" y="99"/>
    </contour>
  </outline>
</glyph>
<glyph name="semicolon" format="1">
  <advance width="244"/>
  <unicode hex="003B"/>
  <outline>
    <contour>
      <point x="227" y="367" type="qcurve" smooth="yes"/>
      <point x="227" y="354"/>
      <point x="204" y="318"/>
      <point x="171" y="285"/>
      <point x="135" y="262"/>
      <point x="122" y="262" type="qcurve" smooth="yes"/>
      <point x="109" y="262"/>
      <point x="73" y="285"/>
      <point x="40" y="318"/>
      <point x="17" y="354"/>
      <point x="17" y="367" type="qcurve" smooth="yes"/>
      <point x="17" y="379"/>
      <point x="40" y="415"/>
      <point x="73" y="448"/>
      <point x="109" y="471"/>
      <point x="122" y="471" type="qcurve" smooth="yes"/>
      <point x="135" y="471"/>
      <point x="171" y="448"/>
      <point x="204" y="415"/>
      <point x="227" y="379"/>
    </contour>
    <contour>
      <point x="227" y="88" type="qcurve" smooth="yes"/>
      <point x="227" y="61"/>
      <point x="201" y="-6"/>
      <point x="158" y="-77"/>
      <point x="103" y="-144"/>
      <point x="75" y="-169" type="qcurve"/>
      <point x="15" y="-159" type="line"/>
      <point x="44" y="-127"/>
      <point x="91" y="-43"/>
      <point x="99" y="-3" type="qcurve"/>
      <point x="88" y="-1"/>
      <point x="60" y="20"/>
      <point x="34" y="48"/>
      <point x="17" y="77"/>
      <point x="17" y="88" type="qcurve" smooth="yes"/>
      <point x="17" y="102"/>
      <point x="41" y="138"/>
      <point x="74" y="169"/>
      <point x="110" y="191"/>
      <point x="122" y="191" type="qcurve" smooth="yes"/>
      <point x="133" y="191"/>
      <point x="168" y="170"/>
      <point x="202" y="138"/>
      <point x="227" y="103"/>
    </contour>
  </outline>
</glyph>
<glyph name="less" format="1">
  <advance width="342"/>
  <unicode hex="003C"/>
  <outline>
    <contour>
      <point x="206" y="85" type="line"/>
      <point x="13" y="277" type="line"/>
      <point x="205" y="471" type="line"/>
      <point x="313" y="362" type="line"/>
      <point x="228" y="277" type="line"/>
      <point x="313" y="192" type="line"/>
    </contour>
  </outline>
</glyph>
<glyph name="equal" format="1">
  <advance width="449"/>
  <unicode hex="003D"/>
  <outline>
    <contour>
      <point x="25" y="314" type="line"/>
      <point x="25" y="459" type="line"/>
      <point x="424" y="459" type="line"/>
      <point x="424" y="314" type="line"/>
    </contour>
    <contour>
      <point x="25" y="91" type="line"/>
      <point x="25" y="237" type="line"/>
      <point x="424" y="237" type="line"/>
      <point x="424" y="91" type="line"/>
    </contour>
  </outline>
</glyph>
<glyph name="greater" format="1">
  <advance width="342"/>
  <unicode hex="003E"/>
  <outline>
    <contour>
      <point x="136" y="85" type="line"/>
      <point x="29" y="192" type="line"/>
      <point x="114" y="277" type="line"/>
      <point x="29" y="362" type="line"/>
      <point x="137" y="471" type="line"/>
      <point x="329" y="279" type="line"/>
    </contour>
  </outline>
</glyph>
<glyph name="question" format="1">
  <advance width="419"/>
  <unicode hex="003F"/>
  <outline>
    <contour>
      <point x="389" y="509" type="qcurve" smooth="yes"/>
      <point x="389" y="484"/>
      <point x="379" y="441"/>
      <point x="357" y="396"/>
      <point x="322" y="348"/>
      <point x="297" y="318" type="qcurve" smooth="yes"/>
      <point x="279" y="297"/>
      <point x="264" y="256"/>
      <point x="264" y="238" type="qcurve" smooth="yes"/>
      <point x="264" y="233"/>
      <point x="265" y="227"/>
      <point x="266" y="222" type="qcurve"/>
      <point x="102" y="255" type="line"/>
      <point x="99" y="266"/>
      <point x="95" y="290"/>
      <point x="95" y="300" type="qcurve" smooth="yes"/>
      <point x="95" y="317"/>
      <point x="101" y="347"/>
      <point x="116" y="379"/>
      <point x="142" y="415"/>
      <point x="162" y="439" type="qcurve" smooth="yes"/>
      <point x="174" y="453"/>
      <point x="189" y="482"/>
      <point x="189" y="499" type="qcurve" smooth="yes"/>
      <point x="189" y="513"/>
      <point x="168" y="532"/>
      <point x="148" y="532" type="qcurve" smooth="yes"/>
      <point x="116" y="532"/>
      <point x="53" y="504"/>
      <point x="27" y="485" type="qcurve"/>
      <point x="22" y="656" type="line"/>
      <point x="51" y="676"/>
      <point x="128" y="700"/>
      <point x="171" y="700" type="qcurve" smooth="yes"/>
      <point x="223" y="700"/>
      <point x="304" y="670"/>
      <point x="360" y="618"/>
      <point x="389" y="549"/>
    </contour>
    <contour>
      <point x="291" y="87" type="qcurve" smooth="yes"/>
      <point x="291" y="74"/>
      <point x="268" y="38"/>
      <point x="235" y="5"/>
      <point x="199" y="-18"/>
      <point x="186" y="-18" type="qcurve" smooth="yes"/>
      <point x="173" y="-18"/>
      <point x="137" y="5"/>
      <point x="104" y="38"/>
      <point x="81" y="74"/>
      <point x="81" y="87" type="qcurve" smooth="yes"/>
      <point x="81" y="99"/>
      <point x="104" y="135"/>
      <point x="137" y="168"/>
      <point x="173" y="191"/>
      <point x="186" y="191" type="qcurve" smooth="yes"/>
      <point x="199" y="191"/>
      <point x="235" y="168"/>
      <point x="268" y="135"/>
      <point x="291" y="99"/>
    </contour>
  </outline>
</glyph>
<glyph name="at" format="1">
  <advance width="758"/>
  <unicode hex="0040"/>
  <outline>
    <contour>
      <point x="728" y="383" type="qcurve" smooth="yes"/>
      <point x="728" y="330"/>
      <point x="699" y="239"/>
      <point x="647" y="172"/>
      <point x="577" y="133"/>
      <point x="536" y="133" type="qcurve" smooth="yes"/>
      <point x="511" y="133"/>
      <point x="466" y="163"/>
      <point x="459" y="192" type="qcurve"/>
      <point x="430" y="158"/>
      <point x="373" y="136"/>
      <point x="337" y="136" type="qcurve" smooth="yes"/>
      <point x="314" y="136"/>
      <point x="271" y="155"/>
      <point x="236" y="190"/>
      <point x="215" y="240"/>
      <point x="215" y="271" type="qcurve" smooth="yes"/>
      <point x="215" y="328"/>
      <point x="259" y="414"/>
      <point x="326" y="471"/>
      <point x="406" y="500"/>
      <point x="442" y="500" type="qcurve" smooth="yes"/>
      <point x="479" y="500"/>
      <point x="540" y="479"/>
      <point x="559" y="458" type="qcurve"/>
      <point x="535" y="291" type="line" smooth="yes"/>
      <point x="534" y="284"/>
      <point x="533" y="272"/>
      <point x="533" y="266" type="qcurve" smooth="yes"/>
      <point x="533" y="248"/>
      <point x="550" y="248" type="qcurve" smooth="yes"/>
      <point x="563" y="248"/>
      <point x="585" y="270"/>
      <point x="601" y="308"/>
      <point x="610" y="358"/>
      <point x="610" y="387" type="qcurve" smooth="yes"/>
      <point x="610" y="430"/>
      <point x="582" y="492"/>
      <point x="532" y="532"/>
      <point x="464" y="550"/>
      <point x="424" y="550" type="qcurve" smooth="yes"/>
      <point x="372" y="550"/>
      <point x="271" y="507"/>
      <point x="192" y="431"/>
      <point x="144" y="328"/>
      <point x="144" y="267" type="qcurve" smooth="yes"/>
      <point x="144" y="223"/>
      <point x="171" y="156"/>
      <point x="219" y="110"/>
      <point x="282" y="87"/>
      <point x="318" y="87" type="qcurve" smooth="yes"/>
      <point x="355" y="87"/>
      <point x="413" y="103"/>
      <point x="434" y="117" type="qcurve"/>
      <point x="429" y="12" type="line"/>
      <point x="409" y="-2"/>
      <point x="347" y="-18"/>
      <point x="315" y="-18" type="qcurve" smooth="yes"/>
      <point x="248" y="-18"/>
      <point x="142" y="25"/>
      <point x="69" y="100"/>
      <point x="30" y="203"/>
      <point x="30" y="264" type="qcurve" smooth="yes"/>
      <point x="30" y="344"/>
      <point x="94" y="486"/>
      <point x="204" y="593"/>
      <point x="352" y="656"/>
      <point x="436" y="656" type="qcurve" smooth="yes"/>
      <point x="499" y="656"/>
      <point x="606" y="617"/>
      <point x="684" y="546"/>
      <point x="728" y="445"/>
    </contour>
    <contour>
      <point x="426" y="372" type="line"/>
      <point x="423" y="375"/>
      <point x="417" y="379"/>
      <point x="409" y="379" type="qcurve" smooth="yes"/>
      <point x="400" y="379"/>
      <point x="378" y="365"/>
      <point x="360" y="339"/>
      <point x="347" y="303"/>
      <point x="347" y="281" type="qcurve" smooth="yes"/>
      <point x="347" y="266"/>
      <point x="360" y="253"/>
      <point x="370" y="253" type="qcurve" smooth="yes"/>
      <point x="386" y="253"/>
      <point x="408" y="282"/>
      <point x="412" y="300" type="qcurve" smooth="yes"/>
      <point x="426" y="372" type="line"/>
    </contour>
  </outline>
</glyph>
<glyph name="A" format="1">
  <advance width="639"/>
  <unicode hex="0041"/>
  <outline>
    <contour>
      <point x="428" y="0" type="line"/>
      <point x="398" y="100" type="line"/>
      <point x="227" y="100" type="line"/>
      <point x="197" y="0" type="line"/>
      <point x="0" y="0" type="line"/>
      <point x="230" y="638" type="line"/>
      <point x="409" y="638" type="line"/>
      <point x="639" y="0" type="line"/>
    </contour>
    <contour>
      <point x="326" y="358" type="line" smooth="yes"/>
      <point x="322" y="369"/>
      <point x="315" y="395"/>
      <point x="313" y="409" type="qcurve"/>
      <point x="311" y="409" type="line"/>
      <point x="309" y="395"/>
      <point x="302" y="369"/>
      <point x="299" y="358" type="qcurve" smooth="yes"/>
      <point x="270" y="259" type="line"/>
      <point x="355" y="259" type="line"/>
    </contour>
  </outline>
</glyph>
<glyph name="B" format="1">
  <advance width="569"/>
  <unicode hex="0042"/>
  <outline>
    <contour>
      <point x="547" y="203" type="qcurve" smooth="yes"/>
      <point x="547" y="159"/>
      <point x="516" y="85"/>
      <point x="457" y="31"/>
      <point x="373" y="0"/>
      <point x="320" y="0" type="qcurve" smooth="yes"/>
      <point x="45" y="0" type="line"/>
      <point x="45" y="638" type="line"/>
      <point x="296" y="638" type="line" smooth="yes"/>
      <point x="339" y="638"/>
      <point x="410" y="612"/>
      <point x="462" y="565"/>
      <point x="491" y="503"/>
      <point x="491" y="467" type="qcurve" smooth="yes"/>
      <point x="491" y="445"/>
      <point x="467" y="385"/>
      <point x="444" y="368" type="qcurve"/>
      <point x="462" y="362"/>
      <point x="499" y="328"/>
      <point x="529" y="283"/>
      <point x="547" y="230"/>
    </contour>
    <contour>
      <point x="306" y="447" type="qcurve" smooth="yes"/>
      <point x="306" y="471"/>
      <point x="279" y="492"/>
      <point x="264" y="492" type="qcurve" smooth="yes"/>
      <point x="231" y="492" type="line"/>
      <point x="231" y="402" type="line"/>
      <point x="264" y="402" type="line" smooth="yes"/>
      <point x="279" y="402"/>
      <point x="306" y="423"/>
    </contour>
    <contour>
      <point x="346" y="202" type="qcurve" smooth="yes"/>
      <point x="346" y="229"/>
      <point x="309" y="256"/>
      <point x="289" y="256" type="qcurve" smooth="yes"/>
      <point x="232" y="256" type="line"/>
      <point x="232" y="150" type="line"/>
      <point x="289" y="150" type="line" smooth="yes"/>
      <point x="309" y="150"/>
      <point x="346" y="175"/>
    </contour>
  </outline>
</glyph>
<glyph name="C" format="1">
  <advance width="585"/>
  <unicode hex="0043"/>
  <outline>
    <contour>
      <point x="550" y="433" type="line"/>
      <point x="524" y="450"/>
      <point x="461" y="470"/>
      <point x="407" y="470" type="qcurve" smooth="yes"/>
      <point x="367" y="470"/>
      <point x="307" y="444"/>
      <point x="267" y="401"/>
      <point x="247" y="347"/>
      <point x="247" y="319" type="qcurve" smooth="yes"/>
      <point x="247" y="291"/>
      <point x="268" y="237"/>
      <point x="311" y="194"/>
      <point x="375" y="168"/>
      <point x="418" y="168" type="qcurve" smooth="yes"/>
      <point x="464" y="168"/>
      <point x="532" y="188"/>
      <point x="555" y="205" type="qcurve"/>
      <point x="549" y="19" type="line"/>
      <point x="526" y="2"/>
      <point x="435" y="-18"/>
      <point x="381" y="-18" type="qcurve" smooth="yes"/>
      <point x="316" y="-18"/>
      <point x="190" y="25"/>
      <point x="91" y="110"/>
      <point x="30" y="236"/>
      <point x="30" y="319" type="qcurve" smooth="yes"/>
      <point x="30" y="401"/>
      <point x="91" y="527"/>
      <point x="190" y="612"/>
      <point x="316" y="656"/>
      <point x="381" y="656" type="qcurve" smooth="yes"/>
      <point x="435" y="656"/>
      <point x="527" y="636"/>
      <point x="556" y="619" type="qcurve"/>
    </contour>
  </outline>
</glyph>
<glyph name="D" format="1">
  <advance width="649"/>
  <unicode hex="0044"/>
  <outline>
    <contour>
      <point x="619" y="319" type="qcurve" smooth="yes"/>
      <point x="619" y="247"/>
      <point x="566" y="130"/>
      <point x="475" y="46"/>
      <point x="351" y="0"/>
      <point x="280" y="0" type="qcurve" smooth="yes"/>
      <point x="45" y="0" type="line"/>
      <point x="45" y="638" type="line"/>
      <point x="280" y="638" type="line" smooth="yes"/>
      <point x="351" y="638"/>
      <point x="475" y="592"/>
      <point x="566" y="508"/>
      <point x="619" y="391"/>
    </contour>
    <contour>
      <point x="406" y="319" type="qcurve" smooth="yes"/>
      <point x="406" y="351"/>
      <point x="382" y="401"/>
      <point x="342" y="436"/>
      <point x="290" y="454"/>
      <point x="261" y="454" type="qcurve" smooth="yes"/>
      <point x="248" y="454" type="line"/>
      <point x="248" y="184" type="line"/>
      <point x="261" y="184" type="line" smooth="yes"/>
      <point x="290" y="184"/>
      <point x="342" y="202"/>
      <point x="382" y="236"/>
      <point x="406" y="287"/>
    </contour>
  </outline>
</glyph>
<glyph name="E" format="1">
  <advance width="486"/>
  <unicode hex="0045"/>
  <outline>
    <contour>
      <point x="45" y="0" type="line"/>
      <point x="45" y="638" type="line"/>
      <point x="446" y="638" type="line"/>
      <point x="446" y="467" type="line"/>
      <point x="258" y="467" type="line"/>
      <point x="258" y="407" type="line"/>
      <point x="406" y="407" type="line"/>
      <point x="406" y="231" type="line"/>
      <point x="258" y="231" type="line"/>
      <point x="258" y="171" type="line"/>
      <point x="466" y="171" type="line"/>
      <point x="466" y="0" type="line"/>
    </contour>
  </outline>
</glyph>
<glyph name="F" format="1">
  <advance width="470"/>
  <unicode hex="0046"/>
  <outline>
    <contour>
      <point x="258" y="467" type="line"/>
      <point x="258" y="407" type="line"/>
      <point x="415" y="407" type="line"/>
      <point x="415" y="231" type="line"/>
      <point x="258" y="231" type="line"/>
      <point x="258" y="0" type="line"/>
      <point x="45" y="0" type="line"/>
      <point x="45" y="638" type="line"/>
      <point x="455" y="638" type="line"/>
      <point x="455" y="467" type="line"/>
    </contour>
  </outline>
</glyph>
<glyph name="G" format="1">
  <advance width="665"/>
  <unicode hex="0047"/>
  <outline>
    <contour>
      <point x="627" y="45" type="line"/>
      <point x="592" y="17"/>
      <point x="472" y="-18"/>
      <point x="387" y="-18" type="qcurve" smooth="yes"/>
      <point x="319" y="-18"/>
      <point x="191" y="25"/>
      <point x="91" y="110"/>
      <point x="30" y="236"/>
      <point x="30" y="319" type="qcurve" smooth="yes"/>
      <point x="30" y="401"/>
      <point x="91" y="527"/>
      <point x="192" y="612"/>
      <point x="320" y="656"/>
      <point x="387" y="656" type="qcurve" smooth="yes"/>
      <point x="454" y="656"/>
      <point x="555" y="626"/>
      <point x="586" y="604" type="qcurve"/>
      <point x="580" y="415" type="line"/>
      <point x="549" y="441"/>
      <point x="463" y="471"/>
      <point x="408" y="471" type="qcurve" smooth="yes"/>
      <point x="367" y="471"/>
      <point x="305" y="445"/>
      <point x="262" y="401"/>
      <point x="240" y="343"/>
      <point x="240" y="311" type="qcurve" smooth="yes"/>
      <point x="240" y="284"/>
      <point x="260" y="230"/>
      <point x="300" y="188"/>
      <point x="357" y="162"/>
      <point x="395" y="162" type="qcurve" smooth="yes"/>
      <point x="406" y="162"/>
      <point x="424" y="164"/>
      <point x="434" y="167" type="qcurve"/>
      <point x="434" y="213" type="line"/>
      <point x="350" y="213" type="line"/>
      <point x="350" y="374" type="line"/>
      <point x="627" y="374" type="line"/>
      <point x="627" y="45" type="line"/>
    </contour>
  </outline>
</glyph>
<glyph name="H" format="1">
  <advance width="680"/>
  <unicode hex="0048"/>
  <outline>
    <contour>
      <point x="422" y="0" type="line"/>
      <point x="422" y="227" type="line"/>
      <point x="258" y="227" type="line"/>
      <point x="258" y="0" type="line"/>
      <point x="45" y="0" type="line"/>
      <point x="45" y="638" type="line"/>
      <point x="258" y="638" type="line"/>
      <point x="258" y="411" type="line"/>
      <point x="422" y="411" type="line"/>
      <point x="422" y="638" type="line"/>
      <point x="635" y="638" type="line"/>
      <point x="635" y="0" type="line"/>
    </contour>
  </outline>
</glyph>
<glyph name="I" format="1">
  <advance width="313"/>
  <unicode hex="0049"/>
  <outline>
    <contour>
      <point x="50" y="0" type="line"/>
      <point x="50" y="638" type="line"/>
      <point x="263" y="638" type="line"/>
      <point x="263" y="0" type="line"/>
    </contour>
  </outline>
</glyph>
<glyph name="J" format="1">
  <advance width="348"/>
  <unicode hex="004A"/>
  <outline>
    <contour>
      <point x="298" y="129" type="line"/>
      <point x="298" y="49"/>
      <point x="259" y="-64"/>
      <point x="189" y="-140"/>
      <point x="94" y="-183"/>
      <point x="39" y="-192" type="qcurve"/>
      <point x="-32" y="-42" type="line"/>
      <point x="-2" y="-36"/>
      <point x="42" y="-13"/>
      <point x="71" y="30"/>
      <point x="85" y="97"/>
      <point x="85" y="146" type="qcurve" smooth="yes"/>
      <point x="85" y="638" type="line"/>
      <point x="298" y="638" type="line"/>
      <point x="298" y="129" type="line"/>
    </contour>
  </outline>
</glyph>
<glyph name="K" format="1">
  <advance width="627"/>
  <unicode hex="004B"/>
  <outline>
    <contour>
      <point x="390" y="0" type="line"/>
      <point x="258" y="227" type="line"/>
      <point x="258" y="0" type="line"/>
      <point x="45" y="0" type="line"/>
      <point x="45" y="638" type="line"/>
      <point x="258" y="638" type="line"/>
      <point x="258" y="391" type="line"/>
      <point x="397" y="638" type="line"/>
      <point x="625" y="638" type="line"/>
      <point x="444" y="318" type="line"/>
      <point x="633" y="0" type="line"/>
    </contour>
  </outline>
</glyph>
<glyph name="L" format="1">
  <advance width="502"/>
  <unicode hex="004C"/>
  <outline>
    <contour>
      <point x="45" y="0" type="line"/>
      <point x="45" y="638" type="line"/>
      <point x="258" y="638" type="line"/>
      <point x="258" y="184" type="line"/>
      <point x="489" y="184" type="line"/>
      <point x="489" y="0" type="line"/>
    </contour>
  </outline>
</glyph>
<glyph name="M" format="1">
  <advance width="877"/>
  <unicode hex="004D"/>
  <outline>
    <contour>
      <point x="631" y="0" type="line"/>
      <point x="616" y="182" type="line" smooth="yes"/>
      <point x="614" y="202"/>
      <point x="612" y="247"/>
      <point x="614" y="273" type="qcurve"/>
      <point x="612" y="273" type="line"/>
      <point x="604" y="246"/>
      <point x="588" y="203"/>
      <point x="576" y="180" type="qcurve" smooth="yes"/>
      <point x="483" y="0" type="line"/>
      <point x="395" y="0" type="line"/>
      <point x="302" y="180" type="line" smooth="yes"/>
      <point x="280" y="223"/>
      <point x="265" y="273" type="qcurve"/>
      <point x="263" y="273" type="line"/>
      <point x="265" y="247"/>
      <point x="264" y="205"/>
      <point x="262" y="182" type="qcurve" smooth="yes"/>
      <point x="247" y="0" type="line"/>
      <point x="35" y="0" type="line"/>
      <point x="90" y="638" type="line"/>
      <point x="282" y="638" type="line"/>
      <point x="390" y="429" type="line" smooth="yes"/>
      <point x="401" y="407"/>
      <point x="428" y="348"/>
      <point x="438" y="322" type="qcurve"/>
      <point x="439" y="322" type="line"/>
      <point x="448" y="348"/>
      <point x="473" y="406"/>
      <point x="485" y="429" type="qcurve" smooth="yes"/>
      <point x="592" y="638" type="line"/>
      <point x="786" y="638" type="line"/>
      <point x="842" y="0" type="line"/>
    </contour>
  </outline>
</glyph>
<glyph name="N" format="1">
  <advance width="716"/>
  <unicode hex="004E"/>
  <outline>
    <contour>
      <point x="543" y="0" type="line"/>
      <point x="348" y="217" type="line" smooth="yes"/>
      <point x="322" y="245"/>
      <point x="275" y="304"/>
      <point x="256" y="329" type="qcurve"/>
      <point x="254" y="328" type="line"/>
      <point x="256" y="304"/>
      <point x="258" y="244"/>
      <point x="258" y="219" type="qcurve" smooth="yes"/>
      <point x="258" y="0" type="line"/>
      <point x="45" y="0" type="line"/>
      <point x="45" y="638" type="line"/>
      <point x="229" y="638" type="line"/>
      <point x="386" y="462" type="line" smooth="yes"/>
      <point x="404" y="442"/>
      <point x="446" y="391"/>
      <point x="460" y="371" type="qcurve"/>
      <point x="462" y="372" type="line"/>
      <point x="460" y="393"/>
      <point x="458" y="435"/>
      <point x="458" y="460" type="qcurve" smooth="yes"/>
      <point x="458" y="638" type="line"/>
      <point x="671" y="638" type="line"/>
      <point x="671" y="0" type="line"/>
    </contour>
  </outline>
</glyph>
<glyph name="O" format="1">
  <advance width="758"/>
  <unicode hex="004F"/>
  <outline>
    <contour>
      <point x="728" y="319" type="qcurve" smooth="yes"/>
      <point x="728" y="242"/>
      <point x="670" y="118"/>
      <point x="574" y="30"/>
      <point x="448" y="-18"/>
      <point x="379" y="-18" type="qcurve" smooth="yes"/>
      <point x="310" y="-18"/>
      <point x="184" y="30"/>
      <point x="88" y="118"/>
      <point x="30" y="242"/>
      <point x="30" y="319" type="qcurve" smooth="yes"/>
      <point x="30" y="395"/>
      <point x="88" y="520"/>
      <point x="184" y="608"/>
      <point x="310" y="656"/>
      <point x="379" y="656" type="qcurve" smooth="yes"/>
      <point x="448" y="656"/>
      <point x="574" y="608"/>
      <point x="670" y="520"/>
      <point x="728" y="395"/>
    </contour>
    <contour>
      <point x="511" y="319" type="qcurve" smooth="yes"/>
      <point x="511" y="349"/>
      <point x="491" y="403"/>
      <point x="455" y="443"/>
      <point x="407" y="467"/>
      <point x="379" y="467" type="qcurve" smooth="yes"/>
      <point x="351" y="467"/>
      <point x="303" y="443"/>
      <point x="267" y="403"/>
      <point x="247" y="349"/>
      <point x="247" y="319" type="qcurve" smooth="yes"/>
      <point x="247" y="289"/>
      <point x="267" y="236"/>
      <point x="303" y="196"/>
      <point x="351" y="173"/>
      <point x="379" y="173" type="qcurve" smooth="yes"/>
      <point x="407" y="173"/>
      <point x="455" y="196"/>
      <point x="491" y="236"/>
      <point x="511" y="289"/>
    </contour>
  </outline>
</glyph>
<glyph name="P" format="1">
  <advance width="556"/>
  <unicode hex="0050"/>
  <outline>
    <contour>
      <point x="542" y="430" type="qcurve" smooth="yes"/>
      <point x="542" y="385"/>
      <point x="510" y="309"/>
      <point x="451" y="254"/>
      <point x="370" y="222"/>
      <point x="322" y="222" type="qcurve" smooth="yes"/>
      <point x="248" y="222" type="line"/>
      <point x="248" y="0" type="line"/>
      <point x="45" y="0" type="line"/>
      <point x="45" y="638" type="line"/>
      <point x="322" y="638" type="line" smooth="yes"/>
      <point x="370" y="638"/>
      <point x="451" y="606"/>
      <point x="510" y="551"/>
      <point x="542" y="475"/>
    </contour>
    <contour>
      <point x="343" y="430" type="qcurve" smooth="yes"/>
      <point x="343" y="453"/>
      <point x="311" y="476"/>
      <point x="294" y="476" type="qcurve" smooth="yes"/>
      <point x="248" y="476" type="line"/>
      <point x="248" y="384" type="line"/>
      <point x="294" y="384" type="line" smooth="yes"/>
      <point x="311" y="384"/>
      <point x="343" y="407"/>
    </contour>
  </outline>
</glyph>
<glyph name="Q" format="1">
  <advance width="758"/>
  <unicode hex="0051"/>
  <outline>
    <contour>
      <point x="670" y="-167" type="line" smooth="yes"/>
      <point x="665" y="-168"/>
      <point x="656" y="-168"/>
      <point x="651" y="-168" type="qcurve" smooth="yes"/>
      <point x="605" y="-168"/>
      <point x="515" y="-140"/>
      <point x="471" y="-110" type="qcurve" smooth="yes"/>
      <point x="432" y="-84"/>
      <point x="352" y="-31"/>
      <point x="323" y="-14" type="qcurve"/>
      <point x="266" y="-5"/>
      <point x="160" y="49"/>
      <point x="79" y="134"/>
      <point x="30" y="249"/>
      <point x="30" y="319" type="qcurve" smooth="yes"/>
      <point x="30" y="395"/>
      <point x="88" y="520"/>
      <point x="184" y="608"/>
      <point x="310" y="656"/>
      <point x="379" y="656" type="qcurve" smooth="yes"/>
      <point x="448" y="656"/>
      <point x="574" y="608"/>
      <point x="670" y="520"/>
      <point x="728" y="395"/>
      <point x="728" y="319" type="qcurve" smooth="yes"/>
      <point x="728" y="269"/>
      <point x="697" y="177"/>
      <point x="646" y="103"/>
      <point x="582" y="50"/>
      <point x="549" y="38" type="qcurve"/>
      <point x="549" y="36" type="line"/>
      <point x="557" y="34"/>
      <point x="570" y="30"/>
      <point x="586" y="23"/>
      <point x="608" y="12"/>
      <point x="624" y="3" type="qcurve" smooth="yes"/>
      <point x="644" y="-8"/>
      <point x="691" y="-20"/>
      <point x="708" y="-20" type="qcurve" smooth="yes"/>
      <point x="728" y="-20"/>
      <point x="755" y="-16"/>
      <point x="769" y="-11" type="qcurve"/>
    </contour>
    <contour>
      <point x="511" y="319" type="qcurve" smooth="yes"/>
      <point x="511" y="349"/>
      <point x="491" y="403"/>
      <point x="455" y="443"/>
      <point x="407" y="467"/>
      <point x="379" y="467" type="qcurve" smooth="yes"/>
      <point x="351" y="467"/>
      <point x="303" y="443"/>
      <point x="267" y="403"/>
      <point x="247" y="349"/>
      <point x="247" y="319" type="qcurve" smooth="yes"/>
      <point x="247" y="289"/>
      <point x="267" y="236"/>
      <point x="303" y="196"/>
      <point x="351" y="173"/>
      <point x="379" y="173" type="qcurve" smooth="yes"/>
      <point x="407" y="173"/>
      <point x="455" y="196"/>
      <point x="491" y="236"/>
      <point x="511" y="289"/>
    </contour>
  </outline>
</glyph>
<glyph name="R" format="1">
  <advance width="612"/>
  <unicode hex="0052"/>
  <outline>
    <contour>
      <point x="409" y="0" type="line"/>
      <point x="268" y="222" type="line"/>
      <point x="248" y="222" type="line"/>
      <point x="248" y="0" type="line"/>
      <point x="45" y="0" type="line"/>
      <point x="45" y="638" type="line"/>
      <point x="319" y="638" type="line" smooth="yes"/>
      <point x="367" y="638"/>
      <point x="448" y="606"/>
      <point x="507" y="551"/>
      <point x="539" y="475"/>
      <point x="539" y="430" type="qcurve" smooth="yes"/>
      <point x="539" y="406"/>
      <point x="526" y="358"/>
      <point x="503" y="317"/>
      <point x="473" y="284"/>
      <point x="456" y="275" type="qcurve"/>
      <point x="644" y="0" type="line"/>
    </contour>
    <contour>
      <point x="340" y="430" type="qcurve" smooth="yes"/>
      <point x="340" y="453"/>
      <point x="308" y="476"/>
      <point x="291" y="476" type="qcurve" smooth="yes"/>
      <point x="248" y="476" type="line"/>
      <point x="248" y="384" type="line"/>
      <point x="291" y="384" type="line" smooth="yes"/>
      <point x="308" y="384"/>
      <point x="340" y="407"/>
    </contour>
  </outline>
</glyph>
<glyph name="S" format="1">
  <advance width="526"/>
  <unicode hex="0053"/>
  <outline>
    <contour>
      <point x="510" y="204" type="qcurve" smooth="yes"/>
      <point x="510" y="101"/>
      <point x="382" y="-18"/>
      <point x="254" y="-18" type="qcurve" smooth="yes"/>
      <point x="187" y="-18"/>
      <point x="77" y="12"/>
      <point x="34" y="46" type="qcurve"/>
      <point x="28" y="238" type="line"/>
      <point x="75" y="196"/>
      <point x="179" y="158"/>
      <point x="235" y="158" type="qcurve" smooth="yes"/>
      <point x="267" y="158"/>
      <point x="295" y="170"/>
      <point x="295" y="183" type="qcurve" smooth="yes"/>
      <point x="295" y="191"/>
      <point x="290" y="201"/>
      <point x="271" y="211"/>
      <point x="235" y="225"/>
      <point x="205" y="236" type="qcurve" smooth="yes"/>
      <point x="123" y="267"/>
      <point x="39" y="377"/>
      <point x="39" y="443" type="qcurve" smooth="yes"/>
      <point x="39" y="490"/>
      <point x="73" y="569"/>
      <point x="135" y="625"/>
      <point x="223" y="656"/>
      <point x="277" y="656" type="qcurve" smooth="yes"/>
      <point x="313" y="656"/>
      <point x="367" y="649"/>
      <point x="408" y="639"/>
      <point x="439" y="624"/>
      <point x="451" y="617" type="qcurve"/>
      <point x="445" y="439" type="line"/>
      <point x="417" y="457"/>
      <point x="342" y="481"/>
      <point x="305" y="481" type="qcurve" smooth="yes"/>
      <point x="271" y="481"/>
      <point x="249" y="470"/>
      <point x="249" y="458" type="qcurve" smooth="yes"/>
      <point x="249" y="452"/>
      <point x="254" y="443"/>
      <point x="273" y="433"/>
      <point x="309" y="419"/>
      <point x="341" y="409" type="qcurve" smooth="yes"/>
      <point x="376" y="397"/>
      <point x="438" y="356"/>
      <point x="484" y="302"/>
      <point x="510" y="238"/>
    </contour>
  </outline>
</glyph>
<glyph name="T" format="1">
  <advance width="602"/>
  <unicode hex="0054"/>
  <outline>
    <contour>
      <point x="408" y="473" type="line"/>
      <point x="408" y="0" type="line"/>
      <point x="195" y="0" type="line"/>
      <point x="195" y="474" type="line"/>
      <point x="15" y="474" type="line"/>
      <point x="15" y="638" type="line"/>
      <point x="587" y="638" type="line"/>
      <point x="587" y="473" type="line"/>
    </contour>
  </outline>
</glyph>
<glyph name="U" format="1">
  <advance width="676"/>
  <unicode hex="0055"/>
  <outline>
    <contour>
      <point x="631" y="232" type="line"/>
      <point x="631" y="173"/>
      <point x="583" y="80"/>
      <point x="503" y="17"/>
      <point x="396" y="-16"/>
      <point x="338" y="-16" type="qcurve" smooth="yes"/>
      <point x="279" y="-16"/>
      <point x="173" y="17"/>
      <point x="93" y="80"/>
      <point x="45" y="173"/>
      <point x="45" y="232" type="qcurve" smooth="yes"/>
      <point x="45" y="638" type="line"/>
      <point x="258" y="638" type="line"/>
      <point x="258" y="250" type="line" smooth="yes"/>
      <point x="258" y="229"/>
      <point x="273" y="199"/>
      <point x="297" y="180"/>
      <point x="326" y="171"/>
      <point x="340" y="171" type="qcurve" smooth="yes"/>
      <point x="353" y="171"/>
      <point x="382" y="180"/>
      <point x="406" y="198"/>
      <point x="422" y="228"/>
      <point x="422" y="249" type="qcurve" smooth="yes"/>
      <point x="422" y="638" type="line"/>
      <point x="631" y="638" type="line"/>
      <point x="631" y="232" type="line"/>
    </contour>
  </outline>
</glyph>
<glyph name="V" format="1">
  <advance width="624"/>
  <unicode hex="0056"/>
  <outline>
    <contour>
      <point x="419" y="0" type="line"/>
      <point x="196" y="0" type="line"/>
      <point x="-15" y="638" type="line"/>
      <point x="200" y="638" type="line"/>
      <point x="282" y="379" type="line" smooth="yes"/>
      <point x="292" y="349"/>
      <point x="308" y="280"/>
      <point x="313" y="248" type="qcurve"/>
      <point x="315" y="248" type="line"/>
      <point x="320" y="280"/>
      <point x="336" y="349"/>
      <point x="346" y="379" type="qcurve" smooth="yes"/>
      <point x="428" y="638" type="line"/>
      <point x="629" y="638" type="line"/>
    </contour>
  </outline>
</glyph>
<glyph name="W" format="1">
  <advance width="907"/>
  <unicode hex="0057"/>
  <outline>
    <contour>
      <point x="713" y="0" type="line"/>
      <point x="548" y="0" type="line"/>
      <point x="481" y="224" type="line" smooth="yes"/>
      <point x="465" y="276"/>
      <point x="452" y="337" type="qcurve"/>
      <point x="450" y="337" type="line"/>
      <point x="443" y="305"/>
      <point x="429" y="250"/>
      <point x="421" y="224" type="qcurve" smooth="yes"/>
      <point x="354" y="0" type="line"/>
      <point x="189" y="0" type="line"/>
      <point x="-10" y="638" type="line"/>
      <point x="189" y="638" type="line"/>
      <point x="252" y="416" type="line" smooth="yes"/>
      <point x="260" y="389"/>
      <point x="269" y="338"/>
      <point x="274" y="305" type="qcurve"/>
      <point x="276" y="305" type="line"/>
      <point x="280" y="338"/>
      <point x="290" y="389"/>
      <point x="298" y="416" type="qcurve" smooth="yes"/>
      <point x="365" y="638" type="line"/>
      <point x="548" y="638" type="line"/>
      <point x="611" y="417" type="line" smooth="yes"/>
      <point x="618" y="394"/>
      <point x="629" y="336"/>
      <point x="634" y="305" type="qcurve"/>
      <point x="636" y="305" type="line"/>
      <point x="642" y="369"/>
      <point x="657" y="416" type="qcurve" smooth="yes"/>
      <point x="724" y="638" type="line"/>
      <point x="912" y="638" type="line"/>
    </contour>
  </outline>
</glyph>
<glyph name="X" format="1">
  <advance width="647"/>
  <unicode hex="0058"/>
  <outline>
    <contour>
      <point x="414" y="0" type="line"/>
      <point x="347" y="109" type="line" smooth="yes"/>
      <point x="341" y="120"/>
      <point x="325" y="150"/>
      <point x="318" y="165" type="qcurve"/>
      <point x="316" y="165" type="line"/>
      <point x="309" y="150"/>
      <point x="294" y="123"/>
      <point x="286" y="109" type="qcurve" smooth="yes"/>
      <point x="217" y="0" type="line"/>
      <point x="0" y="0" type="line"/>
      <point x="205" y="324" type="line"/>
      <point x="11" y="638" type="line"/>
      <point x="239" y="638" type="line"/>
      <point x="300" y="540" type="line" smooth="yes"/>
      <point x="315" y="517"/>
      <point x="325" y="491" type="qcurve"/>
      <point x="327" y="491" type="line"/>
      <point x="332" y="503"/>
      <point x="345" y="529"/>
      <point x="353" y="540" type="qcurve" smooth="yes"/>
      <point x="414" y="638" type="line"/>
      <point x="631" y="638" type="line"/>
      <point x="437" y="327" type="line"/>
      <point x="642" y="0" type="line"/>
    </contour>
  </outline>
</glyph>
<glyph name="Y" format="1">
  <advance width="643"/>
  <unicode hex="0059"/>
  <outline>
    <contour>
      <point x="423" y="276" type="line"/>
      <point x="423" y="0" type="line"/>
      <point x="218" y="0" type="line"/>
      <point x="218" y="269" type="line"/>
      <point x="-15" y="638" type="line"/>
      <point x="211" y="638" type="line"/>
      <point x="293" y="511" type="line" smooth="yes"/>
      <point x="301" y="499"/>
      <point x="318" y="465"/>
      <point x="325" y="448" type="qcurve"/>
      <point x="327" y="448" type="line"/>
      <point x="334" y="465"/>
      <point x="352" y="500"/>
      <point x="360" y="511" type="qcurve" smooth="yes"/>
      <point x="442" y="638" type="line"/>
      <point x="653" y="638" type="line"/>
    </contour>
  </outline>
</glyph>
<glyph name="Z" format="1">
  <advance width="539"/>
  <unicode hex="005A"/>
  <outline>
    <contour>
      <point x="14" y="0" type="line"/>
      <point x="14" y="52" type="line"/>
      <point x="153" y="321" type="line" smooth="yes"/>
      <point x="160" y="336"/>
      <point x="179" y="370"/>
      <point x="199" y="405"/>
      <point x="219" y="439"/>
      <point x="228" y="453" type="qcurve"/>
      <point x="227" y="454" type="line"/>
      <point x="30" y="454" type="line"/>
      <point x="30" y="638" type="line"/>
      <point x="513" y="638" type="line"/>
      <point x="513" y="586" type="line"/>
      <point x="374" y="315" type="line" smooth="yes"/>
      <point x="357" y="283"/>
      <point x="316" y="211"/>
      <point x="299" y="185" type="qcurve"/>
      <point x="300" y="184" type="line"/>
      <point x="524" y="184" type="line"/>
      <point x="524" y="0" type="line"/>
    </contour>
  </outline>
</glyph>
<glyph name="bracketleft" format="1">
  <advance width="389"/>
  <unicode hex="005B"/>
  <outline>
    <contour>
      <point x="38" y="-231" type="line"/>
      <point x="38" y="712" type="line"/>
      <point x="369" y="712" type="line"/>
      <point x="369" y="545" type="line"/>
      <point x="237" y="545" type="line"/>
      <point x="237" y="-64" type="line"/>
      <point x="369" y="-64" type="line"/>
      <point x="369" y="-231" type="line"/>
    </contour>
  </outline>
</glyph>
<glyph name="backslash" format="1">
  <advance width="686"/>
  <unicode hex="005C"/>
  <outline>
    <contour>
      <point x="533" y="-26" type="line"/>
      <point x="40" y="586" type="line"/>
      <point x="152" y="680" type="line"/>
      <point x="646" y="71" type="line"/>
    </contour>
  </outline>
</glyph>
<glyph name="bracketright" format="1">
  <advance width="389"/>
  <unicode hex="005D"/>
  <outline>
    <contour>
      <point x="20" y="-231" type="line"/>
      <point x="20" y="-64" type="line"/>
      <point x="152" y="-64" type="line"/>
      <point x="152" y="545" type="line"/>
      <point x="20" y="545" type="line"/>
      <point x="20" y="712" type="line"/>
      <point x="351" y="712" type="line"/>
      <point x="351" y="-231" type="line"/>
    </contour>
  </outline>
</glyph>
<glyph name="asciicircum" format="1">
  <advance width="430"/>
  <unicode hex="005E"/>
  <outline>
    <contour>
      <point x="321" y="500" type="line"/>
      <point x="292" y="514"/>
      <point x="241" y="547"/>
      <point x="215" y="573" type="qcurve"/>
      <point x="189" y="547"/>
      <point x="138" y="514"/>
      <point x="109" y="500" type="qcurve"/>
      <point x="19" y="591" type="line"/>
      <point x="66" y="613"/>
      <point x="174" y="699"/>
      <point x="215" y="762" type="qcurve"/>
      <point x="256" y="699"/>
      <point x="364" y="613"/>
      <point x="411" y="591" type="qcurve"/>
    </contour>
  </outline>
</glyph>
<glyph name="grave" format="1">
  <advance width="500"/>
  <unicode hex="0060"/>
  <outline>
    <contour>
      <point x="329" y="485" type="line"/>
      <point x="272" y="499"/>
      <point x="180" y="536"/>
      <point x="129" y="572" type="qcurve"/>
      <point x="159" y="701" type="line"/>
      <point x="185" y="676"/>
      <point x="247" y="634"/>
      <point x="313" y="600"/>
      <point x="380" y="574"/>
      <point x="410" y="566" type="qcurve"/>
    </contour>
  </outline>
</glyph>
<glyph name="b" format="1">
  <advance width="539"/>
  <unicode hex="0062"/>
  <outline>
    <contour>
      <point x="514" y="238" type="qcurve" smooth="yes"/>
      <point x="514" y="177"/>
      <point x="473" y="82"/>
      <point x="401" y="16"/>
      <point x="301" y="-18"/>
      <point x="242" y="-18" type="qcurve" smooth="yes"/>
      <point x="179" y="-18"/>
      <point x="73" y="15"/>
      <point x="40" y="38" type="qcurve"/>
      <point x="40" y="712" type="line"/>
      <point x="234" y="712" type="line"/>
      <point x="234" y="468" type="line"/>
      <point x="250" y="471"/>
      <point x="264" y="471" type="qcurve" smooth="yes"/>
      <point x="315" y="471"/>
      <point x="405" y="437"/>
      <point x="474" y="375"/>
      <point x="514" y="289"/>
    </contour>
    <contour>
      <point x="323" y="227" type="qcurve" smooth="yes"/>
      <point x="323" y="256"/>
      <point x="289" y="297"/>
      <point x="263" y="297" type="qcurve" smooth="yes"/>
      <point x="258" y="297"/>
      <point x="239" y="295"/>
      <point x="234" y="292" type="qcurve"/>
      <point x="234" y="163" type="line"/>
      <point x="240" y="160"/>
      <point x="259" y="158"/>
      <point x="263" y="158" type="qcurve" smooth="yes"/>
      <point x="289" y="158"/>
      <point x="323" y="198"/>
    </contour>
  </outline>
</glyph>
<glyph name="c" format="1">
  <advance width="458"/>
  <unicode hex="0063"/>
  <outline>
    <contour>
      <point x="416" y="265" type="line"/>
      <point x="395" y="276"/>
      <point x="343" y="290"/>
      <point x="314" y="290" type="qcurve" smooth="yes"/>
      <point x="274" y="290"/>
      <point x="230" y="255"/>
      <point x="230" y="225" type="qcurve" smooth="yes"/>
      <point x="230" y="196"/>
      <point x="282" y="160"/>
      <point x="325" y="160" type="qcurve" smooth="yes"/>
      <point x="354" y="160"/>
      <point x="400" y="172"/>
      <point x="420" y="183" type="qcurve"/>
      <point x="415" y="10" type="line"/>
      <point x="395" y="-2"/>
      <point x="326" y="-18"/>
      <point x="282" y="-18" type="qcurve" smooth="yes"/>
      <point x="229" y="-18"/>
      <point x="135" y="16"/>
      <point x="65" y="80"/>
      <point x="25" y="170"/>
      <point x="25" y="226" type="qcurve" smooth="yes"/>
      <point x="25" y="283"/>
      <point x="65" y="374"/>
      <point x="134" y="437"/>
      <point x="226" y="471"/>
      <point x="278" y="471" type="qcurve" smooth="yes"/>
      <point x="323" y="471"/>
      <point x="397" y="455"/>
      <point x="421" y="441" type="qcurve"/>
    </contour>
  </outline>
</glyph>
<glyph name="d" format="1">
  <advance width="565"/>
  <unicode hex="0064"/>
  <outline>
    <contour>
      <point x="372" y="0" type="line"/>
      <point x="368" y="29" type="line"/>
      <point x="354" y="7"/>
      <point x="295" y="-14"/>
      <point x="260" y="-14" type="qcurve" smooth="yes"/>
      <point x="215" y="-14"/>
      <point x="130" y="19"/>
      <point x="65" y="80"/>
      <point x="25" y="164"/>
      <point x="25" y="215" type="qcurve" smooth="yes"/>
      <point x="25" y="274"/>
      <point x="63" y="369"/>
      <point x="130" y="435"/>
      <point x="221" y="471"/>
      <point x="275" y="471" type="qcurve" smooth="yes"/>
      <point x="295" y="471"/>
      <point x="321" y="467"/>
      <point x="331" y="462" type="qcurve"/>
      <point x="331" y="712" type="line"/>
      <point x="525" y="712" type="line"/>
      <point x="525" y="0" type="line"/>
    </contour>
    <contour>
      <point x="331" y="283" type="line"/>
      <point x="313" y="298"/>
      <point x="281" y="298" type="qcurve" smooth="yes"/>
      <point x="252" y="298"/>
      <point x="216" y="258"/>
      <point x="216" y="230" type="qcurve" smooth="yes"/>
      <point x="216" y="202"/>
      <point x="252" y="162"/>
      <point x="281" y="162" type="qcurve" smooth="yes"/>
      <point x="308" y="162"/>
      <point x="331" y="177" type="qcurve"/>
    </contour>
  </outline>
</glyph>
<glyph name="f" format="1">
  <advance width="399"/>
  <unicode hex="0066"/>
  <outline>
    <contour>
      <point x="427" y="545" type="line"/>
      <point x="408" y="553"/>
      <point x="374" y="553" type="qcurve" smooth="yes"/>
      <point x="326" y="553"/>
      <point x="273" y="512"/>
      <point x="273" y="464" type="qcurve" smooth="yes"/>
      <point x="273" y="453" type="line"/>
      <point x="374" y="453" type="line"/>
      <point x="369" y="286" type="line"/>
      <point x="273" y="286" type="line"/>
      <point x="273" y="0" type="line"/>
      <point x="74" y="0" type="line"/>
      <point x="74" y="286" type="line"/>
      <point x="12" y="286" type="line"/>
      <point x="12" y="453" type="line"/>
      <point x="74" y="453" type="line"/>
      <point x="74" y="456" type="line" smooth="yes"/>
      <point x="74" y="525"/>
      <point x="120" y="626"/>
      <point x="197" y="692"/>
      <point x="297" y="724"/>
      <point x="352" y="724" type="qcurve" smooth="yes"/>
      <point x="402" y="724"/>
      <point x="432" y="713" type="qcurve"/>
    </contour>
  </outline>
</glyph>
<glyph name="g" format="1">
  <advance width="505"/>
  <unicode hex="0067"/>
  <outline>
    <contour>
      <point x="481" y="-70" type="qcurve" smooth="yes"/>
      <point x="481" y="-108"/>
      <point x="449" y="-172"/>
      <point x="389" y="-218"/>
      <point x="304" y="-245"/>
      <point x="252" y="-245" type="qcurve" smooth="yes"/>
      <point x="200" y="-245"/>
      <point x="115" y="-217"/>
      <point x="55" y="-168"/>
      <point x="22" y="-103"/>
      <point x="22" y="-67" type="qcurve" smooth="yes"/>
      <point x="22" y="-19"/>
      <point x="66" y="45"/>
      <point x="104" y="56" type="qcurve"/>
      <point x="48" y="112" type="line"/>
      <point x="53" y="132"/>
      <point x="84" y="166"/>
      <point x="101" y="176" type="qcurve"/>
      <point x="79" y="190"/>
      <point x="40" y="249"/>
      <point x="40" y="290" type="qcurve" smooth="yes"/>
      <point x="40" y="329"/>
      <point x="65" y="395"/>
      <point x="116" y="444"/>
      <point x="190" y="471"/>
      <point x="240" y="471" type="qcurve" smooth="yes"/>
      <point x="262" y="471"/>
      <point x="298" y="466"/>
      <point x="315" y="461" type="qcurve" smooth="yes"/>
      <point x="333" y="456"/>
      <point x="367" y="451"/>
      <point x="387" y="451" type="qcurve" smooth="yes"/>
      <point x="415" y="451"/>
      <point x="458" y="460"/>
      <point x="475" y="468" type="qcurve"/>
      <point x="480" y="322" type="line"/>
      <point x="474" y="317"/>
      <point x="449" y="311"/>
      <point x="437" y="312" type="qcurve"/>
      <point x="438" y="309"/>
      <point x="438" y="299" type="qcurve" smooth="yes"/>
      <point x="438" y="264"/>
      <point x="417" y="209"/>
      <point x="380" y="167"/>
      <point x="332" y="140"/>
      <point x="305" y="134" type="qcurve" smooth="yes"/>
      <point x="295" y="132"/>
      <point x="295" y="122" type="qcurve" smooth="yes"/>
      <point x="295" y="113"/>
      <point x="305" y="110" type="qcurve" smooth="yes"/>
      <point x="337" y="99" type="line" smooth="yes"/>
      <point x="409" y="74"/>
      <point x="481" y="-6"/>
    </contour>
    <contour>
      <point x="286" y="300" type="qcurve" smooth="yes"/>
      <point x="286" y="320"/>
      <point x="260" y="346"/>
      <point x="240" y="346" type="qcurve" smooth="yes"/>
      <point x="221" y="346"/>
      <point x="194" y="320"/>
      <point x="194" y="300" type="qcurve" smooth="yes"/>
      <point x="194" y="281"/>
      <point x="221" y="254"/>
      <point x="240" y="254" type="qcurve" smooth="yes"/>
      <point x="260" y="254"/>
      <point x="286" y="281"/>
    </contour>
    <contour>
      <point x="310" y="-74" type="qcurve" smooth="yes"/>
      <point x="310" y="-63"/>
      <point x="292" y="-39"/>
      <point x="277" y="-35" type="qcurve" smooth="yes"/>
      <point x="232" y="-24" type="line"/>
      <point x="214" y="-26"/>
      <point x="186" y="-49"/>
      <point x="186" y="-69" type="qcurve" smooth="yes"/>
      <point x="186" y="-89"/>
      <point x="219" y="-112"/>
      <point x="248" y="-112" type="qcurve" smooth="yes"/>
      <point x="277" y="-112"/>
      <point x="310" y="-91"/>
    </contour>
  </outline>
</glyph>
<glyph name="h" format="1">
  <advance width="549"/>
  <unicode hex="0068"/>
  <outline>
    <contour>
      <point x="311" y="0" type="line"/>
      <point x="311" y="249" type="line" smooth="yes"/>
      <point x="311" y="263"/>
      <point x="290" y="279"/>
      <point x="278" y="279" type="qcurve" smooth="yes"/>
      <point x="266" y="279"/>
      <point x="239" y="264"/>
      <point x="239" y="244" type="qcurve" smooth="yes"/>
      <point x="239" y="0" type="line"/>
      <point x="40" y="0" type="line"/>
      <point x="40" y="712" type="line"/>
      <point x="239" y="712" type="line"/>
      <point x="239" y="431" type="line"/>
      <point x="259" y="447"/>
      <point x="318" y="467"/>
      <point x="351" y="467" type="qcurve" smooth="yes"/>
      <point x="426" y="467"/>
      <point x="514" y="379"/>
      <point x="514" y="304" type="qcurve" smooth="yes"/>
      <point x="514" y="0" type="line"/>
    </contour>
  </outline>
</glyph>
<glyph name="i" format="1">
  <advance width="285"/>
  <unicode hex="0069"/>
  <outline>
    <contour>
      <point x="238" y="609" type="qcurve" smooth="yes"/>
      <point x="238" y="597"/>
      <point x="217" y="564"/>
      <point x="187" y="534"/>
      <point x="154" y="513"/>
      <point x="142" y="513" type="qcurve" smooth="yes"/>
      <point x="130" y="513"/>
      <point x="97" y="534"/>
      <point x="67" y="564"/>
      <point x="46" y="597"/>
      <point x="46" y="609" type="qcurve" smooth="yes"/>
      <point x="46" y="621"/>
      <point x="67" y="654"/>
      <point x="97" y="684"/>
      <point x="130" y="705"/>
      <point x="142" y="705" type="qcurve" smooth="yes"/>
      <point x="154" y="705"/>
      <point x="187" y="684"/>
      <point x="217" y="654"/>
      <point x="238" y="621"/>
    </contour>
    <contour>
      <point x="40" y="0" type="line"/>
      <point x="40" y="453" type="line"/>
      <point x="245" y="453" type="line"/>
      <point x="245" y="0" type="line"/>
    </contour>
  </outline>
</glyph>
<glyph name="j" format="1">
  <advance width="283"/>
  <unicode hex="006A"/>
  <outline>
    <contour>
      <point x="237" y="609" type="qcurve" smooth="yes"/>
      <point x="237" y="597"/>
      <point x="216" y="564"/>
      <point x="186" y="534"/>
      <point x="153" y="513"/>
      <point x="141" y="513" type="qcurve" smooth="yes"/>
      <point x="129" y="513"/>
      <point x="96" y="534"/>
      <point x="66" y="564"/>
      <point x="45" y="597"/>
      <point x="45" y="609" type="qcurve" smooth="yes"/>
      <point x="45" y="621"/>
      <point x="66" y="654"/>
      <point x="96" y="684"/>
      <point x="129" y="705"/>
      <point x="141" y="705" type="qcurve" smooth="yes"/>
      <point x="153" y="705"/>
      <point x="186" y="684"/>
      <point x="216" y="654"/>
      <point x="237" y="621"/>
    </contour>
    <contour>
      <point x="243" y="-4" type="line"/>
      <point x="243" y="-110"/>
      <point x="131" y="-234"/>
      <point x="34" y="-245" type="qcurve"/>
      <point x="-34" y="-102" type="line"/>
      <point x="8" y="-95"/>
      <point x="40" y="-42"/>
      <point x="40" y="9" type="qcurve" smooth="yes"/>
      <point x="40" y="453" type="line"/>
      <point x="243" y="453" type="line"/>
      <point x="243" y="-4" type="line"/>
    </contour>
  </outline>
</glyph>
<glyph name="k" format="1">
  <advance width="545"/>
  <unicode hex="006B"/>
  <outline>
    <contour>
      <point x="320" y="0" type="line"/>
      <point x="239" y="152" type="line"/>
      <point x="239" y="0" type="line"/>
      <point x="40" y="0" type="line"/>
      <point x="40" y="712" type="line"/>
      <point x="239" y="712" type="line"/>
      <point x="239" y="300" type="line"/>
      <point x="319" y="453" type="line"/>
      <point x="523" y="453" type="line"/>
      <point x="408" y="243" type="line"/>
      <point x="545" y="0" type="line"/>
    </contour>
  </outline>
</glyph>
<glyph name="l" format="1">
  <advance width="307"/>
  <unicode hex="006C"/>
  <outline>
    <contour>
      <point x="227" y="-22" type="line"/>
      <point x="192" y="-22"/>
      <point x="127" y="7"/>
      <point x="76" y="60"/>
      <point x="45" y="135"/>
      <point x="45" y="182" type="qcurve" smooth="yes"/>
      <point x="45" y="712" type="line"/>
      <point x="244" y="712" type="line"/>
      <point x="244" y="191" type="line" smooth="yes"/>
      <point x="244" y="158"/>
      <point x="271" y="128"/>
      <point x="296" y="121" type="qcurve"/>
    </contour>
  </outline>
</glyph>
<glyph name="m" format="1">
  <advance width="822"/>
  <unicode hex="006D"/>
  <outline>
    <contour>
      <point x="584" y="0" type="line"/>
      <point x="584" y="248" type="line" smooth="yes"/>
      <point x="584" y="262"/>
      <point x="564" y="278"/>
      <point x="553" y="278" type="qcurve" smooth="yes"/>
      <point x="540" y="278"/>
      <point x="513" y="263"/>
      <point x="513" y="243" type="qcurve" smooth="yes"/>
      <point x="513" y="0" type="line"/>
      <point x="310" y="0" type="line"/>
      <point x="310" y="248" type="line" smooth="yes"/>
      <point x="310" y="262"/>
      <point x="290" y="278"/>
      <point x="277" y="278" type="qcurve" smooth="yes"/>
      <point x="264" y="278"/>
      <point x="238" y="263"/>
      <point x="238" y="243" type="qcurve" smooth="yes"/>
      <point x="238" y="0" type="line"/>
      <point x="35" y="0" type="line"/>
      <point x="35" y="453" type="line"/>
      <point x="213" y="453" type="line"/>
      <point x="217" y="408" type="line"/>
      <point x="221" y="417"/>
      <point x="246" y="437"/>
      <point x="280" y="455"/>
      <point x="322" y="467"/>
      <point x="344" y="467" type="qcurve" smooth="yes"/>
      <point x="393" y="467"/>
      <point x="455" y="438"/>
      <point x="475" y="415" type="qcurve"/>
      <point x="483" y="426"/>
      <point x="515" y="445"/>
      <point x="553" y="459"/>
      <point x="595" y="467"/>
      <point x="614" y="467" type="qcurve" smooth="yes"/>
      <point x="659" y="467"/>
      <point x="724" y="442"/>
      <point x="766" y="398"/>
      <point x="787" y="336"/>
      <point x="787" y="299" type="qcurve" smooth="yes"/>
      <point x="787" y="0" type="line"/>
    </contour>
  </outline>
</glyph>
<glyph name="n" format="1">
  <advance width="548"/>
  <unicode hex="006E"/>
  <outline>
    <contour>
      <point x="310" y="0" type="line"/>
      <point x="310" y="249" type="line" smooth="yes"/>
      <point x="310" y="263"/>
      <point x="289" y="279"/>
      <point x="277" y="279" type="qcurve" smooth="yes"/>
      <point x="265" y="279"/>
      <point x="238" y="264"/>
      <point x="238" y="244" type="qcurve" smooth="yes"/>
      <point x="238" y="0" type="line"/>
      <point x="35" y="0" type="line"/>
      <point x="35" y="453" type="line"/>
      <point x="213" y="453" type="line"/>
      <point x="217" y="408" type="line"/>
      <point x="223" y="420"/>
      <point x="250" y="441"/>
      <point x="286" y="457"/>
      <point x="328" y="467"/>
      <point x="350" y="467" type="qcurve" smooth="yes"/>
      <point x="425" y="467"/>
      <point x="513" y="379"/>
      <point x="513" y="304" type="qcurve" smooth="yes"/>
      <point x="513" y="0" type="line"/>
    </contour>
  </outline>
</glyph>
<glyph name="o" format="1">
  <advance width="556"/>
  <unicode hex="006F"/>
  <outline>
    <contour>
      <point x="531" y="227" type="qcurve" smooth="yes"/>
      <point x="531" y="173"/>
      <point x="490" y="83"/>
      <point x="421" y="18"/>
      <point x="329" y="-18"/>
      <point x="278" y="-18" type="qcurve" smooth="yes"/>
      <point x="226" y="-18"/>
      <point x="134" y="18"/>
      <point x="65" y="83"/>
      <point x="25" y="173"/>
      <point x="25" y="227" type="qcurve" smooth="yes"/>
      <point x="25" y="281"/>
      <point x="65" y="370"/>
      <point x="134" y="435"/>
      <point x="226" y="471"/>
      <point x="278" y="471" type="qcurve" smooth="yes"/>
      <point x="329" y="471"/>
      <point x="421" y="435"/>
      <point x="490" y="370"/>
      <point x="531" y="281"/>
    </contour>
    <contour>
      <point x="339" y="227" type="qcurve" smooth="yes"/>
      <point x="339" y="257"/>
      <point x="303" y="301"/>
      <point x="278" y="301" type="qcurve" smooth="yes"/>
      <point x="253" y="301"/>
      <point x="217" y="257"/>
      <point x="217" y="227" type="qcurve" smooth="yes"/>
      <point x="217" y="197"/>
      <point x="253" y="153"/>
      <point x="278" y="153" type="qcurve" smooth="yes"/>
      <point x="303" y="153"/>
      <point x="339" y="197"/>
    </contour>
  </outline>
</glyph>
<glyph name="q" format="1">
  <advance width="539"/>
  <unicode hex="0071"/>
  <outline>
    <contour>
      <point x="305" y="-231" type="line"/>
      <point x="305" y="-15" type="line"/>
      <point x="288" y="-18"/>
      <point x="275" y="-18" type="qcurve" smooth="yes"/>
      <point x="220" y="-18"/>
      <point x="128" y="19"/>
      <point x="62" y="84"/>
      <point x="25" y="174"/>
      <point x="25" y="228" type="qcurve" smooth="yes"/>
      <point x="25" y="282"/>
      <point x="65" y="372"/>
      <point x="133" y="436"/>
      <point x="225" y="471"/>
      <point x="277" y="471" type="qcurve" smooth="yes"/>
      <point x="312" y="471"/>
      <point x="372" y="458"/>
      <point x="394" y="447" type="qcurve"/>
      <point x="434" y="471" type="line"/>
      <point x="499" y="471" type="line"/>
      <point x="499" y="-231" type="line"/>
    </contour>
    <contour>
      <point x="305" y="290" type="line"/>
      <point x="299" y="293"/>
      <point x="280" y="295"/>
      <point x="276" y="295" type="qcurve" smooth="yes"/>
      <point x="250" y="295"/>
      <point x="216" y="255"/>
      <point x="216" y="226" type="qcurve" smooth="yes"/>
      <point x="216" y="197"/>
      <point x="250" y="156"/>
      <point x="276" y="156" type="qcurve" smooth="yes"/>
      <point x="281" y="156"/>
      <point x="300" y="158"/>
      <point x="305" y="161" type="qcurve"/>
    </contour>
  </outline>
</glyph>
<glyph name="r" format="1">
  <advance width="416"/>
  <unicode hex="0072"/>
  <outline>
    <contour>
      <point x="393" y="285" type="line" smooth="yes"/>
      <point x="391" y="285"/>
      <point x="386" y="286"/>
      <point x="382" y="286" type="qcurve" smooth="yes"/>
      <point x="319" y="286"/>
      <point x="243" y="210"/>
      <point x="243" y="143" type="qcurve" smooth="yes"/>
      <point x="243" y="0" type="line"/>
      <point x="40" y="0" type="line"/>
      <point x="40" y="453" type="line"/>
      <point x="225" y="453" type="line"/>
      <point x="229" y="382" type="line"/>
      <point x="253" y="427"/>
      <point x="331" y="464"/>
      <point x="392" y="464" type="qcurve"/>
      <point x="397" y="285" type="line"/>
    </contour>
  </outline>
</glyph>
<glyph name="t" format="1">
  <advance width="418"/>
  <unicode hex="0074"/>
  <outline>
    <contour>
      <point x="391" y="286" type="line"/>
      <point x="277" y="286" type="line"/>
      <point x="277" y="211" type="line" smooth="yes"/>
      <point x="277" y="188"/>
      <point x="299" y="161"/>
      <point x="322" y="161" type="qcurve" smooth="yes"/>
      <point x="348" y="161"/>
      <point x="366" y="168" type="qcurve"/>
      <point x="361" y="10" type="line"/>
      <point x="347" y="2"/>
      <point x="295" y="-9"/>
      <point x="265" y="-9" type="qcurve" smooth="yes"/>
      <point x="220" y="-9"/>
      <point x="150" y="20"/>
      <point x="102" y="68"/>
      <point x="76" y="131"/>
      <point x="76" y="166" type="qcurve" smooth="yes"/>
      <point x="76" y="286" type="line"/>
      <point x="12" y="286" type="line"/>
      <point x="12" y="453" type="line"/>
      <point x="81" y="453" type="line"/>
      <point x="81" y="537" type="line"/>
      <point x="272" y="597" type="line"/>
      <point x="272" y="453" type="line"/>
      <point x="396" y="453" type="line"/>
    </contour>
  </outline>
</glyph>
<glyph name="v" format="1">
  <advance width="511"/>
  <unicode hex="0076"/>
  <outline>
    <contour>
      <point x="347" y="0" type="line"/>
      <point x="164" y="0" type="line"/>
      <point x="5" y="453" type="line"/>
      <point x="197" y="453" type="line"/>
      <point x="241" y="308" type="line" smooth="yes"/>
      <point x="246" y="293"/>
      <point x="254" y="255"/>
      <point x="256" y="236" type="qcurve"/>
      <point x="258" y="236" type="line"/>
      <point x="264" y="276"/>
      <point x="274" y="308" type="qcurve" smooth="yes"/>
      <point x="320" y="453" type="line"/>
      <point x="506" y="453" type="line"/>
    </contour>
  </outline>
</glyph>
<glyph name="w" format="1">
  <advance width="755"/>
  <unicode hex="0077"/>
  <outline>
    <contour>
      <point x="599" y="0" type="line"/>
      <point x="433" y="0" type="line"/>
      <point x="394" y="140" type="line" smooth="yes"/>
      <point x="389" y="157"/>
      <point x="382" y="191"/>
      <point x="378" y="212" type="qcurve"/>
      <point x="376" y="212" type="line"/>
      <point x="374" y="191"/>
      <point x="367" y="156"/>
      <point x="362" y="140" type="qcurve" smooth="yes"/>
      <point x="323" y="0" type="line"/>
      <point x="156" y="0" type="line"/>
      <point x="10" y="453" type="line"/>
      <point x="192" y="453" type="line"/>
      <point x="232" y="303" type="line" smooth="yes"/>
      <point x="237" y="286"/>
      <point x="244" y="247"/>
      <point x="246" y="227" type="qcurve"/>
      <point x="248" y="227" type="line"/>
      <point x="253" y="269"/>
      <point x="262" y="303" type="qcurve" smooth="yes"/>
      <point x="304" y="453" type="line"/>
      <point x="459" y="453" type="line"/>
      <point x="500" y="304" type="line" smooth="yes"/>
      <point x="505" y="286"/>
      <point x="511" y="244"/>
      <point x="513" y="227" type="qcurve"/>
      <point x="515" y="227" type="line"/>
      <point x="517" y="245"/>
      <point x="524" y="286"/>
      <point x="529" y="304" type="qcurve" smooth="yes"/>
      <point x="571" y="453" type="line"/>
      <point x="745" y="453" type="line"/>
    </contour>
  </outline>
</glyph>
<glyph name="x" format="1">
  <advance width="476"/>
  <unicode hex="0078"/>
  <outline>
    <contour>
      <point x="285" y="0" type="line"/>
      <point x="246" y="71" type="line" smooth="yes"/>
      <point x="241" y="79"/>
      <point x="233" y="99"/>
      <point x="231" y="108" type="qcurve"/>
      <point x="229" y="108" type="line"/>
      <point x="227" y="98"/>
      <point x="219" y="79"/>
      <point x="214" y="71" type="qcurve" smooth="yes"/>
      <point x="175" y="0" type="line"/>
      <point x="0" y="0" type="line"/>
      <point x="129" y="224" type="line"/>
      <point x="4" y="453" type="line"/>
      <point x="195" y="453" type="line"/>
      <point x="230" y="391" type="line" smooth="yes"/>
      <point x="235" y="383"/>
      <point x="241" y="370"/>
      <point x="244" y="361" type="qcurve"/>
      <point x="246" y="361" type="line"/>
      <point x="250" y="370"/>
      <point x="256" y="383"/>
      <point x="261" y="391" type="qcurve" smooth="yes"/>
      <point x="296" y="453" type="line"/>
      <point x="472" y="453" type="line"/>
      <point x="348" y="237" type="line"/>
      <point x="476" y="0" type="line"/>
    </contour>
  </outline>
</glyph>
<glyph name="y" format="1">
  <advance width="532"/>
  <unicode hex="0079"/>
  <outline>
    <contour>
      <point x="376" y="33" type="line" smooth="yes"/>
      <point x="356" y="-23"/>
      <point x="306" y="-120"/>
      <point x="244" y="-194"/>
      <point x="166" y="-240"/>
      <point x="118" y="-245" type="qcurve"/>
      <point x="54" y="-109" type="line"/>
      <point x="75" y="-103"/>
      <point x="109" y="-88"/>
      <point x="137" y="-62"/>
      <point x="161" y="-23"/>
      <point x="173" y="6" type="qcurve"/>
      <point x="5" y="453" type="line"/>
      <point x="201" y="453" type="line"/>
      <point x="251" y="306" type="line" smooth="yes"/>
      <point x="257" y="289"/>
      <point x="265" y="253"/>
      <point x="268" y="232" type="qcurve"/>
      <point x="270" y="232" type="line"/>
      <point x="274" y="253"/>
      <point x="281" y="288"/>
      <point x="287" y="306" type="qcurve" smooth="yes"/>
      <point x="337" y="453" type="line"/>
      <point x="527" y="453" type="line"/>
    </contour>
  </outline>
</glyph>
<glyph name="z" format="1">
  <advance width="455"/>
  <unicode hex="007A"/>
  <outline>
    <contour>
      <point x="27" y="0" type="line"/>
      <point x="27" y="38" type="line"/>
      <point x="110" y="203" type="line" smooth="yes"/>
      <point x="132" y="248"/>
      <point x="157" y="284" type="qcurve"/>
      <point x="156" y="286" type="line"/>
      <point x="48" y="286" type="line"/>
      <point x="48" y="453" type="line"/>
      <point x="411" y="453" type="line"/>
      <point x="411" y="415" type="line"/>
      <point x="327" y="248" type="line" smooth="yes"/>
      <point x="306" y="204"/>
      <point x="280" y="169" type="qcurve"/>
      <point x="281" y="167" type="line"/>
      <point x="423" y="167" type="line"/>
      <point x="423" y="0" type="line"/>
    </contour>
  </outline>
</glyph>
<glyph name="braceleft" format="1">
  <advance width="403"/>
  <unicode hex="007B"/>
  <outline>
    <contour>
      <point x="370" y="-231" type="line"/>
      <point x="307" y="-231"/>
      <point x="202" y="-195"/>
      <point x="127" y="-124"/>
      <point x="86" y="-17"/>
      <point x="86" y="54" type="qcurve" smooth="yes"/>
      <point x="86" y="120"/>
      <point x="50" y="209"/>
      <point x="3" y="240" type="qcurve"/>
      <point x="50" y="271"/>
      <point x="86" y="360"/>
      <point x="86" y="426" type="qcurve" smooth="yes"/>
      <point x="86" y="497"/>
      <point x="127" y="604"/>
      <point x="202" y="676"/>
      <point x="307" y="712"/>
      <point x="370" y="712" type="qcurve"/>
      <point x="390" y="546" type="line"/>
      <point x="361" y="546"/>
      <point x="322" y="529"/>
      <point x="296" y="502"/>
      <point x="285" y="470"/>
      <point x="285" y="456" type="qcurve" smooth="yes"/>
      <point x="285" y="367"/>
      <point x="246" y="265"/>
      <point x="208" y="240" type="qcurve"/>
      <point x="246" y="215"/>
      <point x="285" y="113"/>
      <point x="285" y="24" type="qcurve" smooth="yes"/>
      <point x="285" y="10"/>
      <point x="296" y="-22"/>
      <point x="322" y="-48"/>
      <point x="361" y="-65"/>
      <point x="390" y="-65" type="qcurve"/>
    </contour>
  </outline>
</glyph>
<glyph name="bar" format="1">
  <advance width="236"/>
  <unicode hex="007C"/>
  <outline>
    <contour>
      <point x="45" y="-231" type="line"/>
      <point x="45" y="712" type="line"/>
      <point x="191" y="712" type="line"/>
      <point x="191" y="-231" type="line"/>
    </contour>
  </outline>
</glyph>
<glyph name="braceright" format="1">
  <advance width="403"/>
  <unicode hex="007D"/>
  <outline>
    <contour>
      <point x="400" y="240" type="qcurve"/>
      <point x="353" y="209"/>
      <point x="317" y="120"/>
      <point x="317" y="54" type="qcurve" smooth="yes"/>
      <point x="317" y="-17"/>
      <point x="276" y="-124"/>
      <point x="201" y="-195"/>
      <point x="96" y="-231"/>
      <point x="33" y="-231" type="qcurve"/>
      <point x="13" y="-65" type="line"/>
      <point x="41" y="-65"/>
      <point x="81" y="-48"/>
      <point x="107" y="-22"/>
      <point x="118" y="10"/>
      <point x="118" y="24" type="qcurve" smooth="yes"/>
      <point x="118" y="113"/>
      <point x="157" y="215"/>
      <point x="195" y="240" type="qcurve"/>
      <point x="157" y="265"/>
      <point x="118" y="367"/>
      <point x="118" y="456" type="qcurve" smooth="yes"/>
      <point x="118" y="470"/>
      <point x="107" y="502"/>
      <point x="81" y="529"/>
      <point x="41" y="546"/>
      <point x="13" y="546" type="qcurve"/>
      <point x="33" y="712" type="line"/>
      <point x="96" y="712"/>
      <point x="201" y="676"/>
      <point x="276" y="604"/>
      <point x="317" y="497"/>
      <point x="317" y="426" type="qcurve" smooth="yes"/>
      <point x="317" y="360"/>
      <point x="353" y="271"/>
    </contour>
  </outline>
</glyph>
<glyph name="asciitilde" format="1">
  <advance width="412"/>
  <unicode hex="007E"/>
  <outline>
    <contour>
      <point x="359" y="228" type="line"/>
      <point x="316" y="200"/>
      <point x="236" y="171"/>
      <point x="183" y="167" type="qcurve"/>
      <point x="175" y="243" type="line"/>
      <point x="138" y="237"/>
      <point x="59" y="207"/>
      <point x="22" y="184" type="qcurve"/>
      <point x="53" y="311" type="line"/>
      <point x="96" y="339"/>
      <point x="176" y="367"/>
      <point x="229" y="372" type="qcurve"/>
      <point x="237" y="296" type="line"/>
      <point x="275" y="303"/>
      <point x="354" y="334"/>
      <point x="390" y="355" type="qcurve"/>
    </contour>
  </outline>
</glyph>
<glyph name="exclamdown" format="1">
  <advance width="269"/>
  <unicode hex="00A1"/>
  <outline>
    <contour>
      <point x="239" y="551" type="qcurve" smooth="yes"/>
      <point x="239" y="539"/>
      <point x="216" y="503"/>
      <point x="183" y="470"/>
      <point x="147" y="447"/>
      <point x="134" y="447" type="qcurve" smooth="yes"/>
      <point x="121" y="447"/>
      <point x="85" y="470"/>
      <point x="52" y="503"/>
      <point x="29" y="539"/>
      <point x="29" y="551" type="qcurve" smooth="yes"/>
      <point x="29" y="564"/>
      <point x="52" y="600"/>
      <point x="85" y="633"/>
      <point x="121" y="656"/>
      <point x="134" y="656" type="qcurve" smooth="yes"/>
      <point x="147" y="656"/>
      <point x="183" y="633"/>
      <point x="216" y="600"/>
      <point x="239" y="564"/>
    </contour>
    <contour>
      <point x="33" y="-44" type="line"/>
      <point x="53" y="416" type="line"/>
      <point x="217" y="383" type="line"/>
      <point x="236" y="-44" type="line"/>
    </contour>
  </outline>
</glyph>
<glyph name="cent" format="1">
  <advance width="458"/>
  <unicode hex="00A2"/>
  <outline>
    <contour>
      <point x="416" y="450" type="line"/>
      <point x="395" y="461"/>
      <point x="343" y="475"/>
      <point x="314" y="475" type="qcurve" smooth="yes"/>
      <point x="274" y="475"/>
      <point x="230" y="440"/>
      <point x="230" y="410" type="qcurve" smooth="yes"/>
      <point x="230" y="381"/>
      <point x="282" y="345"/>
      <point x="325" y="345" type="qcurve" smooth="yes"/>
      <point x="354" y="345"/>
      <point x="400" y="357"/>
      <point x="420" y="368" type="qcurve"/>
      <point x="415" y="195" type="line"/>
      <point x="390" y="179"/>
      <point x="338" y="171" type="qcurve"/>
      <point x="338" y="82" type="line"/>
      <point x="242" y="82" type="line"/>
      <point x="242" y="170" type="line"/>
      <point x="196" y="176"/>
      <point x="117" y="215"/>
      <point x="58" y="277"/>
      <point x="25" y="360"/>
      <point x="25" y="411" type="qcurve" smooth="yes"/>
      <point x="25" y="463"/>
      <point x="59" y="548"/>
      <point x="117" y="610"/>
      <point x="197" y="648"/>
      <point x="242" y="654" type="qcurve"/>
      <point x="242" y="737" type="line"/>
      <point x="338" y="737" type="line"/>
      <point x="338" y="652" type="line"/>
      <point x="388" y="645"/>
      <point x="421" y="626" type="qcurve"/>
    </contour>
  </outline>
</glyph>
<glyph name="sterling" format="1">
  <advance width="461"/>
  <unicode hex="00A3"/>
  <outline>
    <contour>
      <point x="428" y="-11" type="line"/>
      <point x="410" y="-3"/>
      <point x="336" y="9"/>
      <point x="298" y="9" type="qcurve" smooth="yes"/>
      <point x="258" y="9"/>
      <point x="188" y="-2"/>
      <point x="168" y="-11" type="qcurve"/>
      <point x="27" y="63" type="line"/>
      <point x="47" y="98"/>
      <point x="69" y="186"/>
      <point x="69" y="240" type="qcurve" smooth="yes"/>
      <point x="69" y="260" type="line"/>
      <point x="7" y="260" type="line"/>
      <point x="7" y="365" type="line"/>
      <point x="69" y="365" type="line"/>
      <point x="69" y="388" type="line" smooth="yes"/>
      <point x="69" y="457"/>
      <point x="114" y="558"/>
      <point x="190" y="624"/>
      <point x="290" y="656"/>
      <point x="345" y="656" type="qcurve" smooth="yes"/>
      <point x="367" y="656"/>
      <point x="406" y="647"/>
      <point x="417" y="641" type="qcurve"/>
      <point x="412" y="476" type="line"/>
      <point x="401" y="481"/>
      <point x="373" y="485"/>
      <point x="353" y="485" type="qcurve" smooth="yes"/>
      <point x="319" y="485"/>
      <point x="270" y="442"/>
      <point x="270" y="407" type="qcurve" smooth="yes"/>
      <point x="270" y="365" type="line"/>
      <point x="380" y="365" type="line"/>
      <point x="373" y="260" type="line"/>
      <point x="270" y="260" type="line"/>
      <point x="270" y="240" type="line" smooth="yes"/>
      <point x="270" y="225"/>
      <point x="263" y="186"/>
      <point x="255" y="167" type="qcurve"/>
      <point x="267" y="170"/>
      <point x="298" y="172"/>
      <point x="317" y="172" type="qcurve" smooth="yes"/>
      <point x="352" y="172"/>
      <point x="413" y="162"/>
      <point x="433" y="155" type="qcurve"/>
    </contour>
  </outline>
</glyph>
<glyph name="currency" format="1">
  <advance width="492"/>
  <unicode hex="00A4"/>
  <outline>
    <contour>
      <point x="370" y="62" type="line"/>
      <point x="311" y="120" type="line"/>
      <point x="296" y="114"/>
      <point x="263" y="107"/>
      <point x="246" y="107" type="qcurve" smooth="yes"/>
      <point x="212" y="107"/>
      <point x="179" y="121" type="qcurve"/>
      <point x="118" y="63" type="line"/>
      <point x="30" y="152" type="line"/>
      <point x="90" y="209" type="line"/>
      <point x="76" y="242"/>
      <point x="76" y="277" type="qcurve" smooth="yes"/>
      <point x="76" y="294"/>
      <point x="83" y="327"/>
      <point x="89" y="342" type="qcurve"/>
      <point x="30" y="402" type="line"/>
      <point x="119" y="490" type="line"/>
      <point x="177" y="432" type="line"/>
      <point x="208" y="447"/>
      <point x="246" y="447" type="qcurve" smooth="yes"/>
      <point x="282" y="447"/>
      <point x="313" y="433" type="qcurve"/>
      <point x="372" y="491" type="line"/>
      <point x="459" y="402" type="line"/>
      <point x="402" y="344" type="line"/>
      <point x="416" y="315"/>
      <point x="416" y="277" type="qcurve" smooth="yes"/>
      <point x="416" y="239"/>
      <point x="401" y="208" type="qcurve"/>
      <point x="459" y="151" type="line"/>
    </contour>
    <contour>
      <point x="305" y="277" type="qcurve" smooth="yes"/>
      <point x="305" y="301"/>
      <point x="271" y="335"/>
      <point x="246" y="335" type="qcurve" smooth="yes"/>
      <point x="222" y="335"/>
      <point x="188" y="301"/>
      <point x="188" y="277" type="qcurve" smooth="yes"/>
      <point x="188" y="252"/>
      <point x="222" y="218"/>
      <point x="246" y="218" type="qcurve" smooth="yes"/>
      <point x="271" y="218"/>
      <point x="305" y="252"/>
    </contour>
  </outline>
</glyph>
<glyph name="yen" format="1">
  <advance width="631"/>
  <unicode hex="00A5"/>
  <outline>
    <contour>
      <point x="515" y="439" type="line"/>
      <point x="574" y="439" type="line"/>
      <point x="574" y="334" type="line"/>
      <point x="448" y="334" type="line"/>
      <point x="411" y="276" type="line"/>
      <point x="411" y="267" type="line"/>
      <point x="574" y="267" type="line"/>
      <point x="574" y="162" type="line"/>
      <point x="411" y="162" type="line"/>
      <point x="411" y="0" type="line"/>
      <point x="218" y="0" type="line"/>
      <point x="218" y="162" type="line"/>
      <point x="54" y="162" type="line"/>
      <point x="54" y="267" type="line"/>
      <point x="218" y="267" type="line"/>
      <point x="218" y="269" type="line"/>
      <point x="177" y="334" type="line"/>
      <point x="54" y="334" type="line"/>
      <point x="54" y="439" type="line"/>
      <point x="111" y="439" type="line"/>
      <point x="-15" y="638" type="line"/>
      <point x="205" y="638" type="line"/>
      <point x="287" y="511" type="line" smooth="yes"/>
      <point x="295" y="499"/>
      <point x="312" y="465"/>
      <point x="319" y="448" type="qcurve"/>
      <point x="321" y="448" type="line"/>
      <point x="328" y="465"/>
      <point x="346" y="500"/>
      <point x="354" y="511" type="qcurve" smooth="yes"/>
      <point x="436" y="638" type="line"/>
      <point x="641" y="638" type="line"/>
    </contour>
  </outline>
</glyph>
<glyph name="brokenbar" format="1">
  <advance width="236"/>
  <unicode hex="00A6"/>
  <outline>
    <contour>
      <point x="45" y="300" type="line"/>
      <point x="45" y="712" type="line"/>
      <point x="191" y="712" type="line"/>
      <point x="191" y="300" type="line"/>
    </contour>
    <contour>
      <point x="45" y="-231" type="line"/>
      <point x="45" y="181" type="line"/>
      <point x="191" y="181" type="line"/>
      <point x="191" y="-231" type="line"/>
    </contour>
  </outline>
</glyph>
<glyph name="section" format="1">
  <advance width="483"/>
  <unicode hex="00A7"/>
  <outline>
    <contour>
      <point x="462" y="-27" type="qcurve" smooth="yes"/>
      <point x="462" y="-74"/>
      <point x="428" y="-153"/>
      <point x="366" y="-209"/>
      <point x="278" y="-240"/>
      <point x="224" y="-240" type="qcurve" smooth="yes"/>
      <point x="188" y="-240"/>
      <point x="134" y="-233"/>
      <point x="93" y="-223"/>
      <point x="62" y="-209"/>
      <point x="50" y="-201" type="qcurve"/>
      <point x="56" y="-23" type="line"/>
      <point x="84" y="-41"/>
      <point x="159" y="-65"/>
      <point x="196" y="-65" type="qcurve" smooth="yes"/>
      <point x="230" y="-65"/>
      <point x="252" y="-53"/>
      <point x="252" y="-42" type="qcurve" smooth="yes"/>
      <point x="252" y="-32"/>
      <point x="242" y="-23" type="qcurve" smooth="yes"/>
      <point x="58" y="140" type="line"/>
      <point x="64" y="323" type="line"/>
      <point x="54" y="338"/>
      <point x="39" y="364"/>
      <point x="28" y="391"/>
      <point x="22" y="422"/>
      <point x="22" y="443" type="qcurve" smooth="yes"/>
      <point x="22" y="490"/>
      <point x="56" y="569"/>
      <point x="118" y="625"/>
      <point x="206" y="656"/>
      <point x="260" y="656" type="qcurve" smooth="yes"/>
      <point x="296" y="656"/>
      <point x="350" y="649"/>
      <point x="391" y="639"/>
      <point x="422" y="624"/>
      <point x="434" y="617" type="qcurve"/>
      <point x="428" y="439" type="line"/>
      <point x="400" y="457"/>
      <point x="325" y="481"/>
      <point x="288" y="481" type="qcurve" smooth="yes"/>
      <point x="254" y="481"/>
      <point x="232" y="469"/>
      <point x="232" y="458" type="qcurve" smooth="yes"/>
      <point x="232" y="448"/>
      <point x="242" y="439" type="qcurve" smooth="yes"/>
      <point x="426" y="276" type="line"/>
      <point x="420" y="93" type="line"/>
      <point x="430" y="78"/>
      <point x="445" y="52"/>
      <point x="456" y="25"/>
      <point x="462" y="-6"/>
    </contour>
    <contour>
      <point x="152" y="317" type="line"/>
      <point x="151" y="264" type="line"/>
      <point x="331" y="101" type="line"/>
      <point x="332" y="155" type="line"/>
    </contour>
  </outline>
</glyph>
<glyph name="dieresis" format="1">
  <advance width="500"/>
  <unicode hex="00A8"/>
  <outline>
    <contour>
      <point x="434" y="566" type="qcurve" smooth="yes"/>
      <point x="434" y="557"/>
      <point x="416" y="529"/>
      <point x="390" y="503"/>
      <point x="362" y="485"/>
      <point x="353" y="485" type="qcurve" smooth="yes"/>
      <point x="344" y="485"/>
      <point x="316" y="503"/>
      <point x="290" y="529"/>
      <point x="272" y="557"/>
      <point x="272" y="566" type="qcurve" smooth="yes"/>
      <point x="272" y="575"/>
      <point x="290" y="603"/>
      <point x="316" y="629"/>
      <point x="344" y="647"/>
      <point x="353" y="647" type="qcurve" smooth="yes"/>
      <point x="362" y="647"/>
      <point x="390" y="629"/>
      <point x="416" y="603"/>
      <point x="434" y="575"/>
    </contour>
    <contour>
      <point x="228" y="566" type="qcurve" smooth="yes"/>
      <point x="228" y="557"/>
      <point x="210" y="529"/>
      <point x="184" y="503"/>
      <point x="156" y="485"/>
      <point x="147" y="485" type="qcurve" smooth="yes"/>
      <point x="138" y="485"/>
      <point x="110" y="503"/>
      <point x="84" y="529"/>
      <point x="66" y="557"/>
      <point x="66" y="566" type="qcurve" smooth="yes"/>
      <point x="66" y="575"/>
      <point x="84" y="603"/>
      <point x="110" y="629"/>
      <point x="138" y="647"/>
      <point x="147" y="647" type="qcurve" smooth="yes"/>
      <point x="156" y="647"/>
      <point x="184" y="629"/>
      <point x="210" y="603"/>
      <point x="228" y="575"/>
    </contour>
  </outline>
</glyph>
<glyph name="copyright" format="1">
  <advance width="591"/>
  <unicode hex="00A9"/>
  <outline>
    <contour>
      <point x="566" y="250" type="qcurve" smooth="yes"/>
      <point x="566" y="191"/>
      <point x="524" y="93"/>
      <point x="451" y="22"/>
      <point x="353" y="-18"/>
      <point x="296" y="-18" type="qcurve" smooth="yes"/>
      <point x="239" y="-18"/>
      <point x="140" y="22"/>
      <point x="67" y="93"/>
      <point x="25" y="191"/>
      <point x="25" y="250" type="qcurve" smooth="yes"/>
      <point x="25" y="310"/>
      <point x="67" y="409"/>
      <point x="140" y="480"/>
      <point x="239" y="519"/>
      <point x="296" y="519" type="qcurve" smooth="yes"/>
      <point x="353" y="519"/>
      <point x="451" y="480"/>
      <point x="524" y="409"/>
      <point x="566" y="310"/>
    </contour>
    <contour>
      <point x="480" y="250" type="qcurve" smooth="yes"/>
      <point x="480" y="290"/>
      <point x="453" y="359"/>
      <point x="405" y="410"/>
      <point x="337" y="439"/>
      <point x="296" y="439" type="qcurve" smooth="yes"/>
      <point x="254" y="439"/>
      <point x="186" y="410"/>
      <point x="138" y="359"/>
      <point x="111" y="290"/>
      <point x="111" y="250" type="qcurve" smooth="yes"/>
      <point x="111" y="210"/>
      <point x="138" y="141"/>
      <point x="186" y="90"/>
      <point x="254" y="61"/>
      <point x="296" y="61" type="qcurve" smooth="yes"/>
      <point x="337" y="61"/>
      <point x="405" y="90"/>
      <point x="453" y="141"/>
      <point x="480" y="210"/>
    </contour>
    <contour>
      <point x="388" y="268" type="line"/>
      <point x="365" y="286"/>
      <point x="333" y="286" type="qcurve" smooth="yes"/>
      <point x="315" y="286"/>
      <point x="291" y="264"/>
      <point x="291" y="249" type="qcurve" smooth="yes"/>
      <point x="291" y="234"/>
      <point x="317" y="212"/>
      <point x="340" y="212" type="qcurve" smooth="yes"/>
      <point x="355" y="212"/>
      <point x="377" y="217"/>
      <point x="388" y="225" type="qcurve"/>
      <point x="386" y="124" type="line"/>
      <point x="375" y="117"/>
      <point x="341" y="110"/>
      <point x="322" y="110" type="qcurve" smooth="yes"/>
      <point x="289" y="110"/>
      <point x="233" y="131"/>
      <point x="193" y="168"/>
      <point x="170" y="220"/>
      <point x="170" y="251" type="qcurve" smooth="yes"/>
      <point x="170" y="283"/>
      <point x="193" y="335"/>
      <point x="233" y="373"/>
      <point x="288" y="393"/>
      <point x="320" y="393" type="qcurve" smooth="yes"/>
      <point x="342" y="393"/>
      <point x="379" y="382"/>
      <point x="390" y="374" type="qcurve"/>
    </contour>
  </outline>
</glyph>
<glyph name="ordfeminine" format="1">
  <advance width="416"/>
  <unicode hex="00AA"/>
  <outline>
    <contour>
      <point x="365" y="266" type="line"/>
      <point x="333" y="266"/>
      <point x="285" y="282"/>
      <point x="269" y="302" type="qcurve"/>
      <point x="251" y="285"/>
      <point x="196" y="266"/>
      <point x="167" y="266" type="qcurve" smooth="yes"/>
      <point x="139" y="266"/>
      <point x="87" y="281"/>
      <point x="48" y="313"/>
      <point x="25" y="360"/>
      <point x="25" y="393" type="qcurve" smooth="yes"/>
      <point x="25" y="441"/>
      <point x="91" y="506"/>
      <point x="151" y="512" type="qcurve" smooth="yes"/>
      <point x="212" y="518" type="line"/>
      <point x="212" y="522" type="line" smooth="yes"/>
      <point x="212" y="533"/>
      <point x="191" y="543"/>
      <point x="167" y="543" type="qcurve" smooth="yes"/>
      <point x="132" y="543"/>
      <point x="70" y="530"/>
      <point x="55" y="522" type="qcurve"/>
      <point x="51" y="636" type="line"/>
      <point x="68" y="644"/>
      <point x="140" y="657"/>
      <point x="175" y="657" type="qcurve" smooth="yes"/>
      <point x="263" y="657"/>
      <point x="359" y="573"/>
      <point x="359" y="498" type="qcurve" smooth="yes"/>
      <point x="359" y="429" type="line" smooth="yes"/>
      <point x="359" y="381"/>
      <point x="402" y="376" type="qcurve"/>
    </contour>
    <contour>
      <point x="288" y="137" type="qcurve" smooth="yes"/>
      <point x="288" y="128"/>
      <point x="270" y="100"/>
      <point x="244" y="74"/>
      <point x="216" y="56"/>
      <point x="207" y="56" type="qcurve" smooth="yes"/>
      <point x="198" y="56"/>
      <point x="170" y="74"/>
      <point x="144" y="100"/>
      <point x="126" y="128"/>
      <point x="126" y="137" type="qcurve" smooth="yes"/>
      <point x="126" y="146"/>
      <point x="144" y="174"/>
      <point x="170" y="200"/>
      <point x="198" y="218"/>
      <point x="207" y="218" type="qcurve" smooth="yes"/>
      <point x="216" y="218"/>
      <point x="244" y="200"/>
      <point x="270" y="174"/>
      <point x="288" y="146"/>
    </contour>
    <contour>
      <point x="219" y="431" type="line"/>
      <point x="188" y="429" type="line" smooth="yes"/>
      <point x="169" y="427"/>
      <point x="153" y="404"/>
      <point x="153" y="390" type="qcurve" smooth="yes"/>
      <point x="153" y="379"/>
      <point x="168" y="365"/>
      <point x="182" y="365" type="qcurve" smooth="yes"/>
      <point x="198" y="365"/>
      <point x="219" y="384"/>
      <point x="219" y="398" type="qcurve" smooth="yes"/>
    </contour>
  </outline>
</glyph>
<glyph name="guillemotleft" format="1">
  <advance width="545"/>
  <unicode hex="00AB"/>
  <outline>
    <contour>
      <point x="430" y="78" type="line"/>
      <point x="394" y="137"/>
      <point x="298" y="239"/>
      <point x="239" y="277" type="qcurve"/>
      <point x="298" y="315"/>
      <point x="394" y="417"/>
      <point x="430" y="476" type="qcurve"/>
      <point x="524" y="382" type="line"/>
      <point x="511" y="353"/>
      <point x="466" y="294"/>
      <point x="449" y="277" type="qcurve"/>
      <point x="466" y="260"/>
      <point x="511" y="201"/>
      <point x="524" y="172" type="qcurve"/>
    </contour>
    <contour>
      <point x="175" y="78" type="line"/>
      <point x="140" y="137"/>
      <point x="43" y="239"/>
      <point x="-15" y="277" type="qcurve"/>
      <point x="43" y="315"/>
      <point x="140" y="417"/>
      <point x="175" y="476" type="qcurve"/>
      <point x="269" y="382" type="line"/>
      <point x="256" y="353"/>
      <point x="212" y="294"/>
      <point x="194" y="277" type="qcurve"/>
      <point x="212" y="260"/>
      <point x="256" y="201"/>
      <point x="269" y="172" type="qcurve"/>
    </contour>
  </outline>
</glyph>
<glyph name="logicalnot" format="1">
  <advance width="570"/>
  <unicode hex="00AC"/>
  <outline>
    <contour>
      <point x="371" y="97" type="line"/>
      <point x="371" y="202" type="line"/>
      <point x="25" y="202" type="line"/>
      <point x="25" y="348" type="line"/>
      <point x="525" y="348" type="line"/>
      <point x="525" y="97" type="line"/>
    </contour>
  </outline>
</glyph>
<glyph name="minus" format="1">
  <advance width="449"/>
  <unicode hex="00AD"/>
  <outline>
    <contour>
      <point x="25" y="202" type="line"/>
      <point x="25" y="348" type="line"/>
      <point x="424" y="348" type="line"/>
      <point x="424" y="202" type="line"/>
    </contour>
  </outline>
</glyph>
<glyph name="registered" format="1">
  <advance width="459"/>
  <unicode hex="00AE"/>
  <outline>
    <contour>
      <point x="434" y="453" type="qcurve" smooth="yes"/>
      <point x="434" y="410"/>
      <point x="403" y="336"/>
      <point x="348" y="281"/>
      <point x="273" y="250"/>
      <point x="230" y="250" type="qcurve" smooth="yes"/>
      <point x="186" y="250"/>
      <point x="112" y="281"/>
      <point x="56" y="336"/>
      <point x="25" y="410"/>
      <point x="25" y="453" type="qcurve" smooth="yes"/>
      <point x="25" y="496"/>
      <point x="56" y="571"/>
      <point x="112" y="625"/>
      <point x="186" y="656"/>
      <point x="230" y="656" type="qcurve" smooth="yes"/>
      <point x="273" y="656"/>
      <point x="348" y="625"/>
      <point x="403" y="571"/>
      <point x="434" y="496"/>
    </contour>
    <contour>
      <point x="384" y="453" type="qcurve" smooth="yes"/>
      <point x="384" y="486"/>
      <point x="361" y="543"/>
      <point x="319" y="585"/>
      <point x="263" y="608"/>
      <point x="230" y="608" type="qcurve" smooth="yes"/>
      <point x="197" y="608"/>
      <point x="140" y="585"/>
      <point x="99" y="543"/>
      <point x="75" y="486"/>
      <point x="75" y="453" type="qcurve" smooth="yes"/>
      <point x="75" y="420"/>
      <point x="99" y="364"/>
      <point x="140" y="322"/>
      <point x="197" y="299"/>
      <point x="230" y="299" type="qcurve" smooth="yes"/>
      <point x="263" y="299"/>
      <point x="319" y="323"/>
      <point x="361" y="364"/>
      <point x="384" y="420"/>
    </contour>
    <contour>
      <point x="281" y="339" type="line"/>
      <point x="227" y="418" type="line"/>
      <point x="221" y="418" type="line"/>
      <point x="221" y="342" type="line"/>
      <point x="160" y="342" type="line"/>
      <point x="160" y="564" type="line"/>
      <point x="235" y="564" type="line" smooth="yes"/>
      <point x="250" y="564"/>
      <point x="280" y="554"/>
      <point x="304" y="536"/>
      <point x="319" y="508"/>
      <point x="319" y="490" type="qcurve" smooth="yes"/>
      <point x="319" y="473"/>
      <point x="300" y="443"/>
      <point x="286" y="434" type="qcurve"/>
      <point x="336" y="369" type="line"/>
    </contour>
    <contour>
      <point x="253" y="490" type="qcurve" smooth="yes"/>
      <point x="253" y="503"/>
      <point x="238" y="513"/>
      <point x="231" y="513" type="qcurve" smooth="yes"/>
      <point x="221" y="513" type="line"/>
      <point x="221" y="469" type="line"/>
      <point x="231" y="469" type="line" smooth="yes"/>
      <point x="238" y="469"/>
      <point x="253" y="478"/>
    </contour>
  </outline>
</glyph>
<glyph name="macron" format="1">
  <advance width="500"/>
  <unicode hex="00AF"/>
  <outline>
    <contour>
      <point x="138" y="503" type="line"/>
      <point x="138" y="599" type="line"/>
      <point x="372" y="599" type="line"/>
      <point x="372" y="503" type="line"/>
    </contour>
  </outline>
</glyph>
<glyph name="degree" format="1">
  <advance width="292"/>
  <unicode hex="00B0"/>
  <outline>
    <contour>
      <point x="269" y="534" type="qcurve" smooth="yes"/>
      <point x="269" y="509"/>
      <point x="249" y="464"/>
      <point x="216" y="431"/>
      <point x="171" y="412"/>
      <point x="146" y="412" type="qcurve" smooth="yes"/>
      <point x="121" y="412"/>
      <point x="76" y="431"/>
      <point x="43" y="464"/>
      <point x="23" y="509"/>
      <point x="23" y="534" type="qcurve" smooth="yes"/>
      <point x="23" y="559"/>
      <point x="43" y="604"/>
      <point x="76" y="637"/>
      <point x="121" y="656"/>
      <point x="146" y="656" type="qcurve" smooth="yes"/>
      <point x="171" y="656"/>
      <point x="216" y="637"/>
      <point x="249" y="604"/>
      <point x="269" y="559"/>
    </contour>
    <contour>
      <point x="204" y="534" type="qcurve" smooth="yes"/>
      <point x="204" y="559"/>
      <point x="171" y="592"/>
      <point x="146" y="592" type="qcurve" smooth="yes"/>
      <point x="121" y="592"/>
      <point x="88" y="559"/>
      <point x="88" y="534" type="qcurve" smooth="yes"/>
      <point x="88" y="509"/>
      <point x="121" y="476"/>
      <point x="146" y="476" type="qcurve" smooth="yes"/>
      <point x="171" y="476"/>
      <point x="204" y="509"/>
    </contour>
  </outline>
</glyph>
<glyph name="plusminus" format="1">
  <advance width="1012"/>
  <unicode hex="00B1"/>
  <outline>
    <contour>
      <point x="952" y="-22" type="line"/>
      <point x="910" y="-22"/>
      <point x="837" y="7"/>
      <point x="782" y="60"/>
      <point x="750" y="135"/>
      <point x="750" y="182" type="qcurve" smooth="yes"/>
      <point x="750" y="543" type="line"/>
      <point x="728" y="557"/>
      <point x="686" y="557" type="qcurve" smooth="yes"/>
      <point x="642" y="557"/>
      <point x="602" y="504"/>
      <point x="602" y="469" type="qcurve" smooth="yes"/>
      <point x="602" y="453" type="line"/>
      <point x="681" y="453" type="line"/>
      <point x="676" y="286" type="line"/>
      <point x="602" y="286" type="line"/>
      <point x="602" y="0" type="line"/>
      <point x="403" y="0" type="line"/>
      <point x="403" y="286" type="line"/>
      <point x="273" y="286" type="line"/>
      <point x="273" y="0" type="line"/>
      <point x="74" y="0" type="line"/>
      <point x="74" y="286" type="line"/>
      <point x="12" y="286" type="line"/>
      <point x="12" y="453" type="line"/>
      <point x="74" y="453" type="line"/>
      <point x="74" y="465" type="line" smooth="yes"/>
      <point x="74" y="517"/>
      <point x="106" y="606"/>
      <point x="168" y="671"/>
      <point x="257" y="708"/>
      <point x="313" y="708" type="qcurve" smooth="yes"/>
      <point x="339" y="708"/>
      <point x="371" y="705"/>
      <point x="385" y="700" type="qcurve"/>
      <point x="380" y="531" type="line"/>
      <point x="365" y="537"/>
      <point x="338" y="537" type="qcurve" smooth="yes"/>
      <point x="327" y="537"/>
      <point x="304" y="528"/>
      <point x="285" y="511"/>
      <point x="273" y="488"/>
      <point x="273" y="473" type="qcurve" smooth="yes"/>
      <point x="273" y="453" type="line"/>
      <point x="403" y="453" type="line"/>
      <point x="403" y="457" type="line" smooth="yes"/>
      <point x="403" y="517"/>
      <point x="442" y="615"/>
      <point x="521" y="685"/>
      <point x="640" y="724"/>
      <point x="720" y="724" type="qcurve" smooth="yes"/>
      <point x="749" y="724"/>
      <point x="814" y="712"/>
      <point x="876" y="692"/>
      <point x="931" y="664"/>
      <point x="949" y="649" type="qcurve"/>
      <point x="949" y="195" type="line" smooth="yes"/>
      <point x="949" y="162"/>
      <point x="976" y="132"/>
      <point x="1001" y="125" type="qcurve"/>
    </contour>
  </outline>
</glyph>
<glyph name="twosuperior" format="1">
  <advance width="336"/>
  <unicode hex="00B2"/>
  <outline>
    <contour>
      <point x="6" y="241" type="line"/>
      <point x="6" y="278" type="line"/>
      <point x="30" y="299"/>
      <point x="83" y="357"/>
      <point x="127" y="415"/>
      <point x="156" y="469"/>
      <point x="156" y="486" type="qcurve" smooth="yes"/>
      <point x="156" y="505"/>
      <point x="132" y="529"/>
      <point x="112" y="529" type="qcurve" smooth="yes"/>
      <point x="93" y="529"/>
      <point x="53" y="520"/>
      <point x="38" y="512" type="qcurve"/>
      <point x="33" y="625" type="line"/>
      <point x="55" y="634"/>
      <point x="109" y="646"/>
      <point x="135" y="646" type="qcurve" smooth="yes"/>
      <point x="171" y="646"/>
      <point x="232" y="627"/>
      <point x="277" y="588"/>
      <point x="302" y="531"/>
      <point x="302" y="492" type="qcurve" smooth="yes"/>
      <point x="302" y="474"/>
      <point x="288" y="434"/>
      <point x="266" y="395"/>
      <point x="239" y="361"/>
      <point x="225" y="348" type="qcurve"/>
      <point x="318" y="348" type="line"/>
      <point x="318" y="241" type="line"/>
    </contour>
  </outline>
</glyph>
<glyph name="acute" format="1">
  <advance width="500"/>
  <unicode hex="00B4"/>
  <outline>
    <contour>
      <point x="368" y="572" type="line"/>
      <point x="317" y="536"/>
      <point x="224" y="499"/>
      <point x="168" y="485" type="qcurve"/>
      <point x="87" y="566" type="line"/>
      <point x="117" y="574"/>
      <point x="184" y="600"/>
      <point x="250" y="634"/>
      <point x="312" y="676"/>
      <point x="338" y="701" type="qcurve"/>
      <point x="368" y="572" type="line"/>
    </contour>
  </outline>
</glyph>
<glyph name="paragraph" format="1">
  <advance width="567"/>
  <unicode hex="00B6"/>
  <outline>
    <contour>
      <point x="465" y="472" type="line"/>
      <point x="465" y="-4" type="line" smooth="yes"/>
      <point x="465" y="-110"/>
      <point x="353" y="-234"/>
      <point x="256" y="-245" type="qcurve"/>
      <point x="188" y="-102" type="line"/>
      <point x="230" y="-95"/>
      <point x="262" y="-42"/>
      <point x="262" y="9" type="qcurve" smooth="yes"/>
      <point x="262" y="206" type="line"/>
      <point x="255" y="206" type="line" smooth="yes"/>
      <point x="211" y="206"/>
      <point x="127" y="238"/>
      <point x="62" y="296"/>
      <point x="23" y="376"/>
      <point x="23" y="424" type="qcurve" smooth="yes"/>
      <point x="23" y="472"/>
      <point x="62" y="552"/>
      <point x="127" y="611"/>
      <point x="211" y="643"/>
      <point x="255" y="643" type="qcurve" smooth="yes"/>
      <point x="549" y="643" type="line"/>
      <point x="549" y="472" type="line"/>
    </contour>
  </outline>
</glyph>
<glyph name="periodcentered" format="1">
  <advance width="244"/>
  <unicode hex="00B7"/>
  <unicode hex="2219"/>
  <outline>
    <contour>
      <point x="227" y="271" type="qcurve" smooth="yes"/>
      <point x="227" y="258"/>
      <point x="204" y="222"/>
      <point x="171" y="189"/>
      <point x="135" y="166"/>
      <point x="122" y="166" type="qcurve" smooth="yes"/>
      <point x="109" y="166"/>
      <point x="73" y="189"/>
      <point x="40" y="222"/>
      <point x="17" y="258"/>
      <point x="17" y="271" type="qcurve" smooth="yes"/>
      <point x="17" y="283"/>
      <point x="40" y="319"/>
      <point x="73" y="352"/>
      <point x="109" y="375"/>
      <point x="122" y="375" type="qcurve" smooth="yes"/>
      <point x="135" y="375"/>
      <point x="171" y="352"/>
      <point x="204" y="319"/>
      <point x="227" y="283"/>
    </contour>
  </outline>
</glyph>
<glyph name="cedilla" format="1">
  <advance width="500"/>
  <unicode hex="00B8"/>
  <outline>
    <contour>
      <point x="313" y="-134" type="qcurve" smooth="yes"/>
      <point x="313" y="-162"/>
      <point x="293" y="-203"/>
      <point x="259" y="-231"/>
      <point x="215" y="-245"/>
      <point x="191" y="-245" type="qcurve" smooth="yes"/>
      <point x="162" y="-245"/>
      <point x="127" y="-236"/>
      <point x="113" y="-227" type="qcurve"/>
      <point x="122" y="-147" type="line"/>
      <point x="136" y="-158"/>
      <point x="166" y="-165"/>
      <point x="182" y="-165" type="qcurve" smooth="yes"/>
      <point x="201" y="-165"/>
      <point x="218" y="-148"/>
      <point x="218" y="-134" type="qcurve" smooth="yes"/>
      <point x="218" y="-104"/>
      <point x="181" y="-104" type="qcurve" smooth="yes"/>
      <point x="173" y="-104"/>
      <point x="157" y="-105"/>
      <point x="144" y="-107" type="qcurve"/>
      <point x="157" y="0" type="line"/>
      <point x="221" y="0" type="line"/>
      <point x="218" y="-26" type="line"/>
      <point x="237" y="-28"/>
      <point x="272" y="-45"/>
      <point x="298" y="-73"/>
      <point x="313" y="-112"/>
    </contour>
  </outline>
</glyph>
<glyph name="onesuperior" format="1">
  <advance width="226"/>
  <unicode hex="00B9"/>
  <outline>
    <contour>
      <point x="60" y="241" type="line"/>
      <point x="60" y="524" type="line"/>
      <point x="8" y="520" type="line"/>
      <point x="13" y="631" type="line"/>
      <point x="194" y="646" type="line"/>
      <point x="194" y="241" type="line"/>
    </contour>
  </outline>
</glyph>
<glyph name="ordmasculine" format="1">
  <advance width="455"/>
  <unicode hex="00BA"/>
  <outline>
    <contour>
      <point x="431" y="462" type="qcurve" smooth="yes"/>
      <point x="431" y="418"/>
      <point x="398" y="346"/>
      <point x="343" y="295"/>
      <point x="269" y="266"/>
      <point x="228" y="266" type="qcurve" smooth="yes"/>
      <point x="186" y="266"/>
      <point x="113" y="295"/>
      <point x="58" y="346"/>
      <point x="26" y="418"/>
      <point x="26" y="462" type="qcurve" smooth="yes"/>
      <point x="26" y="505"/>
      <point x="58" y="576"/>
      <point x="113" y="628"/>
      <point x="186" y="657"/>
      <point x="228" y="657" type="qcurve" smooth="yes"/>
      <point x="269" y="657"/>
      <point x="343" y="628"/>
      <point x="398" y="576"/>
      <point x="431" y="505"/>
    </contour>
    <contour>
      <point x="309" y="137" type="qcurve" smooth="yes"/>
      <point x="309" y="128"/>
      <point x="291" y="100"/>
      <point x="265" y="74"/>
      <point x="237" y="56"/>
      <point x="228" y="56" type="qcurve" smooth="yes"/>
      <point x="219" y="56"/>
      <point x="192" y="74"/>
      <point x="168" y="100"/>
      <point x="151" y="128"/>
      <point x="151" y="137" type="qcurve" smooth="yes"/>
      <point x="151" y="146"/>
      <point x="168" y="174"/>
      <point x="192" y="200"/>
      <point x="219" y="218"/>
      <point x="228" y="218" type="qcurve" smooth="yes"/>
      <point x="237" y="218"/>
      <point x="265" y="200"/>
      <point x="291" y="174"/>
      <point x="309" y="146"/>
    </contour>
    <contour>
      <point x="277" y="462" type="qcurve" smooth="yes"/>
      <point x="277" y="486"/>
      <point x="248" y="521"/>
      <point x="228" y="521" type="qcurve" smooth="yes"/>
      <point x="208" y="521"/>
      <point x="180" y="486"/>
      <point x="180" y="462" type="qcurve" smooth="yes"/>
      <point x="180" y="438"/>
      <point x="208" y="402"/>
      <point x="228" y="402" type="qcurve" smooth="yes"/>
      <point x="248" y="402"/>
      <point x="277" y="438"/>
    </contour>
  </outline>
</glyph>
<glyph name="guillemotright" format="1">
  <advance width="545"/>
  <unicode hex="00BB"/>
  <outline>
    <contour>
      <point x="560" y="277" type="qcurve"/>
      <point x="502" y="239"/>
      <point x="405" y="137"/>
      <point x="369" y="78" type="qcurve"/>
      <point x="276" y="172" type="line"/>
      <point x="289" y="201"/>
      <point x="333" y="260"/>
      <point x="351" y="277" type="qcurve"/>
      <point x="333" y="294"/>
      <point x="289" y="353"/>
      <point x="276" y="382" type="qcurve"/>
      <point x="369" y="476" type="line"/>
      <point x="405" y="417"/>
      <point x="502" y="315"/>
    </contour>
    <contour>
      <point x="306" y="277" type="qcurve"/>
      <point x="247" y="239"/>
      <point x="151" y="137"/>
      <point x="115" y="78" type="qcurve"/>
      <point x="21" y="172" type="line"/>
      <point x="34" y="201"/>
      <point x="79" y="260"/>
      <point x="96" y="277" type="qcurve"/>
      <point x="79" y="294"/>
      <point x="34" y="353"/>
      <point x="21" y="382" type="qcurve"/>
      <point x="115" y="476" type="line"/>
      <point x="151" y="417"/>
      <point x="247" y="315"/>
    </contour>
  </outline>
</glyph>
<glyph name="onequarter" format="1">
  <advance width="724"/>
  <unicode hex="00BC"/>
  <outline>
    <contour>
      <point x="681" y="94" type="line"/>
      <point x="681" y="0" type="line"/>
      <point x="556" y="0" type="line"/>
      <point x="556" y="94" type="line"/>
      <point x="394" y="94" type="line"/>
      <point x="380" y="181" type="line"/>
      <point x="547" y="397" type="line"/>
      <point x="681" y="397" type="line"/>
      <point x="681" y="186" type="line"/>
      <point x="722" y="186" type="line"/>
      <point x="722" y="94" type="line"/>
    </contour>
    <contour>
      <point x="149" y="-12" type="line"/>
      <point x="70" y="50" type="line"/>
      <point x="557" y="651" type="line"/>
      <point x="635" y="590" type="line"/>
    </contour>
    <contour>
      <point x="60" y="241" type="line"/>
      <point x="60" y="524" type="line"/>
      <point x="8" y="520" type="line"/>
      <point x="13" y="631" type="line"/>
      <point x="194" y="646" type="line"/>
      <point x="194" y="241" type="line"/>
    </contour>
    <contour>
      <point x="558" y="278" type="line"/>
      <point x="554" y="268"/>
      <point x="545" y="250"/>
      <point x="541" y="245" type="qcurve" smooth="yes"/>
      <point x="497" y="186" type="line"/>
      <point x="556" y="186" type="line"/>
      <point x="556" y="247" type="line" smooth="yes"/>
      <point x="556" y="259"/>
      <point x="561" y="277" type="qcurve"/>
    </contour>
  </outline>
</glyph>
<glyph name="onehalf" format="1">
  <advance width="792"/>
  <unicode hex="00BD"/>
  <outline>
    <contour>
      <point x="480" y="0" type="line"/>
      <point x="480" y="37" type="line"/>
      <point x="504" y="58"/>
      <point x="557" y="116"/>
      <point x="601" y="174"/>
      <point x="630" y="228"/>
      <point x="630" y="245" type="qcurve" smooth="yes"/>
      <point x="630" y="264"/>
      <point x="606" y="288"/>
      <point x="586" y="288" type="qcurve" smooth="yes"/>
      <point x="567" y="288"/>
      <point x="527" y="279"/>
      <point x="512" y="271" type="qcurve"/>
      <point x="507" y="384" type="line"/>
      <point x="529" y="393"/>
      <point x="583" y="405"/>
      <point x="609" y="405" type="qcurve" smooth="yes"/>
      <point x="645" y="405"/>
      <point x="706" y="386"/>
      <point x="751" y="347"/>
      <point x="776" y="290"/>
      <point x="776" y="251" type="qcurve" smooth="yes"/>
      <point x="776" y="233"/>
      <point x="762" y="193"/>
      <point x="740" y="154"/>
      <point x="713" y="120"/>
      <point x="699" y="107" type="qcurve"/>
      <point x="792" y="107" type="line"/>
      <point x="792" y="0" type="line"/>
    </contour>
    <contour>
      <point x="149" y="-12" type="line"/>
      <point x="70" y="50" type="line"/>
      <point x="557" y="651" type="line"/>
      <point x="635" y="590" type="line"/>
    </contour>
    <contour>
      <point x="60" y="241" type="line"/>
      <point x="60" y="524" type="line"/>
      <point x="8" y="520" type="line"/>
      <point x="13" y="631" type="line"/>
      <point x="194" y="646" type="line"/>
      <point x="194" y="241" type="line"/>
    </contour>
  </outline>
</glyph>
<glyph name="threequarters" format="1">
  <advance width="753"/>
  <unicode hex="00BE"/>
  <outline>
    <contour>
      <point x="710" y="94" type="line"/>
      <point x="710" y="0" type="line"/>
      <point x="585" y="0" type="line"/>
      <point x="585" y="94" type="line"/>
      <point x="423" y="94" type="line"/>
      <point x="409" y="181" type="line"/>
      <point x="576" y="397" type="line"/>
      <point x="710" y="397" type="line"/>
      <point x="710" y="186" type="line"/>
      <point x="751" y="186" type="line"/>
      <point x="751" y="94" type="line"/>
    </contour>
    <contour>
      <point x="178" y="-12" type="line"/>
      <point x="99" y="50" type="line"/>
      <point x="586" y="651" type="line"/>
      <point x="664" y="590" type="line"/>
    </contour>
    <contour>
      <point x="278" y="377" type="qcurve" smooth="yes"/>
      <point x="278" y="336"/>
      <point x="249" y="282"/>
      <point x="201" y="248"/>
      <point x="138" y="234"/>
      <point x="104" y="234" type="qcurve" smooth="yes"/>
      <point x="96" y="234"/>
      <point x="75" y="236"/>
      <point x="54" y="239"/>
      <point x="35" y="243"/>
      <point x="29" y="246" type="qcurve"/>
      <point x="25" y="353" type="line"/>
      <point x="39" y="345"/>
      <point x="67" y="342"/>
      <point x="90" y="342" type="qcurve" smooth="yes"/>
      <point x="106" y="342"/>
      <point x="134" y="355"/>
      <point x="134" y="369" type="qcurve" smooth="yes"/>
      <point x="134" y="393"/>
      <point x="103" y="393" type="qcurve" smooth="yes"/>
      <point x="98" y="393"/>
      <point x="84" y="391"/>
      <point x="75" y="389" type="qcurve"/>
      <point x="74" y="485" type="line"/>
      <point x="87" y="490"/>
      <point x="103" y="503"/>
      <point x="103" y="512" type="qcurve" smooth="yes"/>
      <point x="103" y="520"/>
      <point x="92" y="530"/>
      <point x="78" y="530" type="qcurve" smooth="yes"/>
      <point x="67" y="530"/>
      <point x="44" y="524"/>
      <point x="36" y="519" type="qcurve"/>
      <point x="30" y="635" type="line"/>
      <point x="46" y="640"/>
      <point x="82" y="646"/>
      <point x="110" y="646" type="qcurve" smooth="yes"/>
      <point x="138" y="646"/>
      <point x="188" y="631"/>
      <point x="225" y="604"/>
      <point x="246" y="567"/>
      <point x="246" y="545" type="qcurve" smooth="yes"/>
      <point x="246" y="519"/>
      <point x="222" y="479"/>
      <point x="204" y="469" type="qcurve"/>
      <point x="217" y="466"/>
      <point x="244" y="448"/>
      <point x="265" y="423"/>
      <point x="278" y="393"/>
    </contour>
    <contour>
      <point x="587" y="278" type="line"/>
      <point x="583" y="268"/>
      <point x="574" y="250"/>
      <point x="570" y="245" type="qcurve" smooth="yes"/>
      <point x="526" y="186" type="line"/>
      <point x="585" y="186" type="line"/>
      <point x="585" y="247" type="line" smooth="yes"/>
      <point x="585" y="259"/>
      <point x="590" y="277" type="qcurve"/>
    </contour>
  </outline>
</glyph>
<glyph name="questiondown" format="1">
  <advance width="419"/>
  <unicode hex="00BF"/>
  <outline>
    <contour>
      <point x="338" y="551" type="qcurve" smooth="yes"/>
      <point x="338" y="539"/>
      <point x="315" y="503"/>
      <point x="282" y="470"/>
      <point x="246" y="447"/>
      <point x="233" y="447" type="qcurve" smooth="yes"/>
      <point x="220" y="447"/>
      <point x="184" y="470"/>
      <point x="151" y="503"/>
      <point x="128" y="539"/>
      <point x="128" y="551" type="qcurve" smooth="yes"/>
      <point x="128" y="564"/>
      <point x="151" y="600"/>
      <point x="184" y="633"/>
      <point x="220" y="656"/>
      <point x="233" y="656" type="qcurve" smooth="yes"/>
      <point x="246" y="656"/>
      <point x="282" y="633"/>
      <point x="315" y="600"/>
      <point x="338" y="564"/>
    </contour>
    <contour>
      <point x="397" y="-18" type="line"/>
      <point x="368" y="-38"/>
      <point x="291" y="-62"/>
      <point x="248" y="-62" type="qcurve" smooth="yes"/>
      <point x="196" y="-62"/>
      <point x="115" y="-32"/>
      <point x="59" y="20"/>
      <point x="30" y="89"/>
      <point x="30" y="129" type="qcurve" smooth="yes"/>
      <point x="30" y="154"/>
      <point x="40" y="197"/>
      <point x="62" y="242"/>
      <point x="97" y="290"/>
      <point x="122" y="320" type="qcurve" smooth="yes"/>
      <point x="140" y="341"/>
      <point x="155" y="382"/>
      <point x="155" y="400" type="qcurve" smooth="yes"/>
      <point x="155" y="405"/>
      <point x="154" y="411"/>
      <point x="153" y="416" type="qcurve"/>
      <point x="317" y="383" type="line"/>
      <point x="320" y="372"/>
      <point x="324" y="348"/>
      <point x="324" y="338" type="qcurve" smooth="yes"/>
      <point x="324" y="321"/>
      <point x="318" y="291"/>
      <point x="303" y="259"/>
      <point x="277" y="223"/>
      <point x="257" y="199" type="qcurve" smooth="yes"/>
      <point x="245" y="185"/>
      <point x="230" y="156"/>
      <point x="230" y="139" type="qcurve" smooth="yes"/>
      <point x="230" y="125"/>
      <point x="251" y="106"/>
      <point x="271" y="106" type="qcurve" smooth="yes"/>
      <point x="303" y="106"/>
      <point x="366" y="134"/>
      <point x="392" y="153" type="qcurve"/>
      <point x="397" y="-18" type="line"/>
    </contour>
  </outline>
</glyph>
<glyph name="AE" format="1">
  <advance width="846"/>
  <unicode hex="00C6"/>
  <outline>
    <contour>
      <point x="428" y="0" type="line"/>
      <point x="428" y="100" type="line"/>
      <point x="265" y="100" type="line"/>
      <point x="209" y="0" type="line"/>
      <point x="0" y="0" type="line"/>
      <point x="370" y="638" type="line"/>
      <point x="806" y="638" type="line"/>
      <point x="806" y="467" type="line"/>
      <point x="618" y="467" type="line"/>
      <point x="618" y="407" type="line"/>
      <point x="766" y="407" type="line"/>
      <point x="766" y="231" type="line"/>
      <point x="618" y="231" type="line"/>
      <point x="618" y="171" type="line"/>
      <point x="826" y="171" type="line"/>
      <point x="826" y="0" type="line"/>
    </contour>
    <contour>
      <point x="431" y="457" type="line"/>
      <point x="426" y="438"/>
      <point x="414" y="407"/>
      <point x="406" y="391" type="qcurve" smooth="yes"/>
      <point x="345" y="263" type="line"/>
      <point x="428" y="263" type="line"/>
      <point x="428" y="392" type="line" smooth="yes"/>
      <point x="428" y="406"/>
      <point x="431" y="441"/>
      <point x="433" y="457" type="qcurve"/>
    </contour>
  </outline>
</glyph>
<glyph name="Ccedilla" format="1">
  <advance width="585"/>
  <unicode hex="00C7"/>
  <outline>
    <contour>
      <point x="550" y="433" type="line"/>
      <point x="524" y="450"/>
      <point x="461" y="470"/>
      <point x="407" y="470" type="qcurve" smooth="yes"/>
      <point x="367" y="470"/>
      <point x="307" y="444"/>
      <point x="267" y="401"/>
      <point x="247" y="347"/>
      <point x="247" y="319" type="qcurve" smooth="yes"/>
      <point x="247" y="291"/>
      <point x="268" y="237"/>
      <point x="311" y="194"/>
      <point x="375" y="168"/>
      <point x="418" y="168" type="qcurve" smooth="yes"/>
      <point x="464" y="168"/>
      <point x="532" y="188"/>
      <point x="555" y="205" type="qcurve"/>
      <point x="549" y="19" type="line"/>
      <point x="526" y="3"/>
      <point x="440" y="-17"/>
      <point x="388" y="-18" type="qcurve"/>
      <point x="387" y="-27" type="line"/>
      <point x="406" y="-29"/>
      <point x="441" y="-45"/>
      <point x="467" y="-74"/>
      <point x="482" y="-112"/>
      <point x="482" y="-134" type="qcurve" smooth="yes"/>
      <point x="482" y="-162"/>
      <point x="462" y="-203"/>
      <point x="428" y="-231"/>
      <point x="384" y="-245"/>
      <point x="360" y="-245" type="qcurve" smooth="yes"/>
      <point x="331" y="-245"/>
      <point x="296" y="-236"/>
      <point x="282" y="-227" type="qcurve"/>
      <point x="291" y="-147" type="line"/>
      <point x="305" y="-158"/>
      <point x="335" y="-165"/>
      <point x="351" y="-165" type="qcurve" smooth="yes"/>
      <point x="370" y="-165"/>
      <point x="387" y="-148"/>
      <point x="387" y="-134" type="qcurve" smooth="yes"/>
      <point x="387" y="-104"/>
      <point x="350" y="-104" type="qcurve" smooth="yes"/>
      <point x="342" y="-104"/>
      <point x="326" y="-105"/>
      <point x="313" y="-107" type="qcurve"/>
      <point x="325" y="-14" type="line"/>
      <point x="267" y="-6"/>
      <point x="161" y="45"/>
      <point x="79" y="129"/>
      <point x="30" y="245"/>
      <point x="30" y="319" type="qcurve" smooth="yes"/>
      <point x="30" y="401"/>
      <point x="91" y="527"/>
      <point x="190" y="612"/>
      <point x="316" y="656"/>
      <point x="381" y="656" type="qcurve" smooth="yes"/>
      <point x="435" y="656"/>
      <point x="527" y="636"/>
      <point x="556" y="619" type="qcurve"/>
    </contour>
  </outline>
</glyph>
<glyph name="Eth" format="1">
  <advance width="681"/>
  <unicode hex="00D0"/>
  <outline>
    <contour>
      <point x="651" y="319" type="qcurve" smooth="yes"/>
      <point x="651" y="247"/>
      <point x="598" y="130"/>
      <point x="507" y="46"/>
      <point x="383" y="0"/>
      <point x="312" y="0" type="qcurve" smooth="yes"/>
      <point x="77" y="0" type="line"/>
      <point x="77" y="243" type="line"/>
      <point x="7" y="243" type="line"/>
      <point x="7" y="389" type="line"/>
      <point x="77" y="389" type="line"/>
      <point x="77" y="638" type="line"/>
      <point x="312" y="638" type="line" smooth="yes"/>
      <point x="383" y="638"/>
      <point x="507" y="592"/>
      <point x="598" y="508"/>
      <point x="651" y="391"/>
    </contour>
    <contour>
      <point x="438" y="319" type="qcurve" smooth="yes"/>
      <point x="438" y="351"/>
      <point x="414" y="401"/>
      <point x="374" y="436"/>
      <point x="322" y="454"/>
      <point x="293" y="454" type="qcurve" smooth="yes"/>
      <point x="280" y="454" type="line"/>
      <point x="280" y="389" type="line"/>
      <point x="356" y="389" type="line"/>
      <point x="336" y="243" type="line"/>
      <point x="280" y="243" type="line"/>
      <point x="280" y="184" type="line"/>
      <point x="293" y="184" type="line" smooth="yes"/>
      <point x="322" y="184"/>
      <point x="374" y="202"/>
      <point x="414" y="236"/>
      <point x="438" y="287"/>
    </contour>
  </outline>
</glyph>
<glyph name="multiply" format="1">
  <advance width="410"/>
  <unicode hex="00D7"/>
  <outline>
    <contour>
      <point x="287" y="83" type="line"/>
      <point x="205" y="165" type="line"/>
      <point x="123" y="83" type="line"/>
      <point x="13" y="193" type="line"/>
      <point x="95" y="275" type="line"/>
      <point x="13" y="357" type="line"/>
      <point x="123" y="467" type="line"/>
      <point x="205" y="385" type="line"/>
      <point x="287" y="467" type="line"/>
      <point x="397" y="357" type="line"/>
      <point x="315" y="275" type="line"/>
      <point x="397" y="193" type="line"/>
    </contour>
  </outline>
</glyph>
<glyph name="Oslash" format="1">
  <advance width="758"/>
  <unicode hex="00D8"/>
  <outline>
    <contour>
      <point x="728" y="319" type="qcurve" smooth="yes"/>
      <point x="728" y="242"/>
      <point x="670" y="118"/>
      <point x="574" y="30"/>
      <point x="448" y="-18"/>
      <point x="379" y="-18" type="qcurve" smooth="yes"/>
      <point x="332" y="-18"/>
      <point x="243" y="4"/>
      <point x="204" y="26" type="qcurve"/>
      <point x="156" y="-33" type="line"/>
      <point x="82" y="29" type="line"/>
      <point x="126" y="83" type="line"/>
      <point x="81" y="128"/>
      <point x="30" y="247"/>
      <point x="30" y="319" type="qcurve" smooth="yes"/>
      <point x="30" y="395"/>
      <point x="88" y="520"/>
      <point x="184" y="608"/>
      <point x="310" y="656"/>
      <point x="379" y="656" type="qcurve" smooth="yes"/>
      <point x="426" y="656"/>
      <point x="515" y="634"/>
      <point x="554" y="612" type="qcurve"/>
      <point x="602" y="671" type="line"/>
      <point x="675" y="610" type="line"/>
      <point x="631" y="556" type="line"/>
      <point x="676" y="511"/>
      <point x="728" y="393"/>
    </contour>
    <contour>
      <point x="536" y="319" type="qcurve" smooth="yes"/>
      <point x="536" y="343"/>
      <point x="522" y="386"/>
      <point x="510" y="406" type="qcurve"/>
      <point x="322" y="173" type="line"/>
      <point x="350" y="162"/>
      <point x="379" y="162" type="qcurve" smooth="yes"/>
      <point x="411" y="162"/>
      <point x="468" y="187"/>
      <point x="511" y="230"/>
      <point x="536" y="287"/>
    </contour>
    <contour>
      <point x="437" y="467" type="line"/>
      <point x="410" y="479"/>
      <point x="379" y="479" type="qcurve" smooth="yes"/>
      <point x="347" y="479"/>
      <point x="290" y="453"/>
      <point x="247" y="409"/>
      <point x="222" y="351"/>
      <point x="222" y="319" type="qcurve" smooth="yes"/>
      <point x="222" y="271"/>
      <point x="248" y="233" type="qcurve"/>
      <point x="437" y="467" type="line"/>
    </contour>
  </outline>
</glyph>
<glyph name="Thorn" format="1">
  <advance width="556"/>
  <unicode hex="00DE"/>
  <outline>
    <contour>
      <point x="542" y="356" type="qcurve" smooth="yes"/>
      <point x="542" y="311"/>
      <point x="510" y="235"/>
      <point x="451" y="180"/>
      <point x="370" y="148"/>
      <point x="322" y="148" type="qcurve" smooth="yes"/>
      <point x="248" y="148" type="line"/>
      <point x="248" y="0" type="line"/>
      <point x="45" y="0" type="line"/>
      <point x="45" y="638" type="line"/>
      <point x="248" y="638" type="line"/>
      <point x="248" y="564" type="line"/>
      <point x="322" y="564" type="line" smooth="yes"/>
      <point x="370" y="564"/>
      <point x="451" y="532"/>
      <point x="510" y="477"/>
      <point x="542" y="401"/>
    </contour>
    <contour>
      <point x="343" y="356" type="qcurve" smooth="yes"/>
      <point x="343" y="379"/>
      <point x="311" y="402"/>
      <point x="294" y="402" type="qcurve" smooth="yes"/>
      <point x="248" y="402" type="line"/>
      <point x="248" y="310" type="line"/>
      <point x="294" y="310" type="line" smooth="yes"/>
      <point x="311" y="310"/>
      <point x="343" y="333"/>
    </contour>
  </outline>
</glyph>
<glyph name="germandbls" format="1">
  <advance width="646"/>
  <unicode hex="00DF"/>
  <outline>
    <contour>
      <point x="623" y="139" type="qcurve" smooth="yes"/>
      <point x="623" y="108"/>
      <point x="601" y="51"/>
      <point x="554" y="8"/>
      <point x="481" y="-18"/>
      <point x="430" y="-18" type="qcurve" smooth="yes"/>
      <point x="376" y="-18"/>
      <point x="297" y="5"/>
      <point x="279" y="18" type="qcurve"/>
      <point x="279" y="170" type="line"/>
      <point x="299" y="153"/>
      <point x="370" y="126"/>
      <point x="415" y="126" type="qcurve" smooth="yes"/>
      <point x="438" y="126"/>
      <point x="438" y="138" type="qcurve" smooth="yes"/>
      <point x="438" y="146"/>
      <point x="421" y="153"/>
      <point x="399" y="161" type="qcurve" smooth="yes"/>
      <point x="342" y="181"/>
      <point x="271" y="262"/>
      <point x="271" y="313" type="qcurve" smooth="yes"/>
      <point x="271" y="346"/>
      <point x="291" y="394"/>
      <point x="320" y="428"/>
      <point x="354" y="449"/>
      <point x="369" y="455" type="qcurve"/>
      <point x="373" y="465"/>
      <point x="375" y="482"/>
      <point x="375" y="496" type="qcurve" smooth="yes"/>
      <point x="375" y="521"/>
      <point x="337" y="557"/>
      <point x="311" y="557" type="qcurve" smooth="yes"/>
      <point x="278" y="557"/>
      <point x="237" y="508"/>
      <point x="237" y="458" type="qcurve" smooth="yes"/>
      <point x="237" y="0" type="line"/>
      <point x="45" y="0" type="line"/>
      <point x="45" y="442" type="line" smooth="yes"/>
      <point x="45" y="500"/>
      <point x="76" y="603"/>
      <point x="141" y="679"/>
      <point x="243" y="724"/>
      <point x="314" y="724" type="qcurve" smooth="yes"/>
      <point x="383" y="724"/>
      <point x="480" y="680"/>
      <point x="541" y="612"/>
      <point x="569" y="530"/>
      <point x="569" y="492" type="qcurve" smooth="yes"/>
      <point x="569" y="444"/>
      <point x="557" y="381"/>
      <point x="549" y="358" type="qcurve"/>
      <point x="531" y="358"/>
      <point x="497" y="350"/>
      <point x="469" y="338"/>
      <point x="452" y="322"/>
      <point x="452" y="314" type="qcurve" smooth="yes"/>
      <point x="452" y="307"/>
      <point x="469" y="299"/>
      <point x="495" y="292" type="qcurve" smooth="yes"/>
      <point x="559" y="275"/>
      <point x="623" y="191"/>
    </contour>
  </outline>
</glyph>
<glyph name="acircumflex" format="1">
  <advance width="506"/>
  <unicode hex="00E2"/>
  <outline>
    <contour>
      <point x="450" y="-18" type="line"/>
      <point x="409" y="-18"/>
      <point x="350" y="2"/>
      <point x="330" y="27" type="qcurve"/>
      <point x="307" y="6"/>
      <point x="239" y="-18"/>
      <point x="202" y="-18" type="qcurve" smooth="yes"/>
      <point x="167" y="-18"/>
      <point x="103" y="1"/>
      <point x="54" y="40"/>
      <point x="25" y="100"/>
      <point x="25" y="141" type="qcurve" smooth="yes"/>
      <point x="25" y="201"/>
      <point x="108" y="282"/>
      <point x="182" y="290" type="qcurve" smooth="yes"/>
      <point x="259" y="298" type="line"/>
      <point x="259" y="303" type="line" smooth="yes"/>
      <point x="259" y="317"/>
      <point x="232" y="329"/>
      <point x="202" y="329" type="qcurve" smooth="yes"/>
      <point x="158" y="329"/>
      <point x="82" y="313"/>
      <point x="62" y="302" type="qcurve"/>
      <point x="57" y="445" type="line"/>
      <point x="67" y="450"/>
      <point x="103" y="459"/>
      <point x="145" y="467"/>
      <point x="191" y="471"/>
      <point x="213" y="471" type="qcurve" smooth="yes"/>
      <point x="323" y="471"/>
      <point x="443" y="367"/>
      <point x="443" y="272" type="qcurve" smooth="yes"/>
      <point x="443" y="186" type="line" smooth="yes"/>
      <point x="443" y="126"/>
      <point x="496" y="120" type="qcurve"/>
    </contour>
    <contour>
      <point x="267" y="189" type="line"/>
      <point x="229" y="186" type="line" smooth="yes"/>
      <point x="205" y="184"/>
      <point x="185" y="155"/>
      <point x="185" y="138" type="qcurve" smooth="yes"/>
      <point x="185" y="124"/>
      <point x="204" y="106"/>
      <point x="221" y="106" type="qcurve" smooth="yes"/>
      <point x="241" y="106"/>
      <point x="267" y="130"/>
      <point x="267" y="147" type="qcurve" smooth="yes"/>
    </contour>
    <contour>
      <point x="312" y="504" type="line"/>
      <point x="292" y="514"/>
      <point x="255" y="537"/>
      <point x="236" y="557" type="qcurve"/>
      <point x="217" y="538"/>
      <point x="180" y="514"/>
      <point x="159" y="504" type="qcurve"/>
      <point x="94" y="570" type="line"/>
      <point x="128" y="586"/>
      <point x="207" y="648"/>
      <point x="236" y="694" type="qcurve"/>
      <point x="265" y="648"/>
      <point x="344" y="586"/>
      <point x="378" y="570" type="qcurve"/>
    </contour>
  </outline>
</glyph>
<glyph name="aring" format="1">
  <advance width="506"/>
  <unicode hex="00E5"/>
  <outline>
    <contour>
      <point x="450" y="-18" type="line"/>
      <point x="409" y="-18"/>
      <point x="350" y="2"/>
      <point x="330" y="27" type="qcurve"/>
      <point x="307" y="6"/>
      <point x="239" y="-18"/>
      <point x="202" y="-18" type="qcurve" smooth="yes"/>
      <point x="167" y="-18"/>
      <point x="103" y="1"/>
      <point x="54" y="40"/>
      <point x="25" y="100"/>
      <point x="25" y="141" type="qcurve" smooth="yes"/>
      <point x="25" y="201"/>
      <point x="108" y="282"/>
      <point x="182" y="290" type="qcurve" smooth="yes"/>
      <point x="259" y="298" type="line"/>
      <point x="259" y="303" type="line" smooth="yes"/>
      <point x="259" y="317"/>
      <point x="232" y="329"/>
      <point x="202" y="329" type="qcurve" smooth="yes"/>
      <point x="158" y="329"/>
      <point x="82" y="313"/>
      <point x="62" y="302" type="qcurve"/>
      <point x="57" y="445" type="line"/>
      <point x="67" y="450"/>
      <point x="103" y="459"/>
      <point x="145" y="467"/>
      <point x="191" y="471"/>
      <point x="213" y="471" type="qcurve" smooth="yes"/>
      <point x="323" y="471"/>
      <point x="443" y="367"/>
      <point x="443" y="272" type="qcurve" smooth="yes"/>
      <point x="443" y="186" type="line" smooth="yes"/>
      <point x="443" y="126"/>
      <point x="496" y="120" type="qcurve"/>
    </contour>
    <contour>
      <point x="267" y="189" type="line"/>
      <point x="229" y="186" type="line" smooth="yes"/>
      <point x="205" y="184"/>
      <point x="185" y="155"/>
      <point x="185" y="138" type="qcurve" smooth="yes"/>
      <point x="185" y="124"/>
      <point x="204" y="106"/>
      <point x="221" y="106" type="qcurve" smooth="yes"/>
      <point x="241" y="106"/>
      <point x="267" y="130"/>
      <point x="267" y="147" type="qcurve" smooth="yes"/>
    </contour>
    <contour>
      <point x="346" y="603" type="qcurve" smooth="yes"/>
      <point x="346" y="579"/>
      <point x="327" y="537"/>
      <point x="296" y="505"/>
      <point x="253" y="487"/>
      <point x="229" y="487" type="qcurve" smooth="yes"/>
      <point x="205" y="487"/>
      <point x="163" y="505"/>
      <point x="132" y="537"/>
      <point x="113" y="579"/>
      <point x="113" y="603" type="qcurve" smooth="yes"/>
      <point x="113" y="627"/>
      <point x="132" y="669"/>
      <point x="163" y="700"/>
      <point x="205" y="718"/>
      <point x="229" y="718" type="qcurve" smooth="yes"/>
      <point x="253" y="718"/>
      <point x="296" y="700"/>
      <point x="327" y="669"/>
      <point x="346" y="627"/>
    </contour>
    <contour>
      <point x="284" y="603" type="qcurve" smooth="yes"/>
      <point x="284" y="626"/>
      <point x="253" y="657"/>
      <point x="229" y="657" type="qcurve" smooth="yes"/>
      <point x="206" y="657"/>
      <point x="175" y="626"/>
      <point x="175" y="603" type="qcurve" smooth="yes"/>
      <point x="175" y="579"/>
      <point x="206" y="548"/>
      <point x="229" y="548" type="qcurve" smooth="yes"/>
      <point x="253" y="548"/>
      <point x="284" y="579"/>
    </contour>
  </outline>
</glyph>
<glyph name="ae" format="1">
  <advance width="744"/>
  <unicode hex="00E6"/>
  <outline>
    <contour>
      <point x="719" y="283" type="qcurve" smooth="yes"/>
      <point x="719" y="271"/>
      <point x="716" y="243"/>
      <point x="713" y="232" type="qcurve"/>
      <point x="648" y="167" type="line"/>
      <point x="460" y="167" type="line"/>
      <point x="473" y="147"/>
      <point x="526" y="124"/>
      <point x="574" y="124" type="qcurve" smooth="yes"/>
      <point x="609" y="124"/>
      <point x="663" y="134"/>
      <point x="690" y="145" type="qcurve"/>
      <point x="685" y="5" type="line"/>
      <point x="662" y="-5"/>
      <point x="594" y="-18"/>
      <point x="549" y="-18" type="qcurve" smooth="yes"/>
      <point x="439" y="-18"/>
      <point x="364" y="31" type="qcurve"/>
      <point x="334" y="4"/>
      <point x="251" y="-18"/>
      <point x="206" y="-18" type="qcurve" smooth="yes"/>
      <point x="171" y="-18"/>
      <point x="106" y="1"/>
      <point x="55" y="40"/>
      <point x="25" y="100"/>
      <point x="25" y="141" type="qcurve" smooth="yes"/>
      <point x="25" y="201"/>
      <point x="108" y="282"/>
      <point x="182" y="290" type="qcurve" smooth="yes"/>
      <point x="259" y="298" type="line"/>
      <point x="259" y="303" type="line" smooth="yes"/>
      <point x="259" y="317"/>
      <point x="232" y="329"/>
      <point x="202" y="329" type="qcurve" smooth="yes"/>
      <point x="158" y="329"/>
      <point x="82" y="313"/>
      <point x="62" y="302" type="qcurve"/>
      <point x="57" y="445" type="line"/>
      <point x="67" y="450"/>
      <point x="103" y="459"/>
      <point x="145" y="467"/>
      <point x="191" y="471"/>
      <point x="213" y="471" type="qcurve" smooth="yes"/>
      <point x="260" y="471"/>
      <point x="339" y="451"/>
      <point x="368" y="431" type="qcurve"/>
      <point x="428" y="471"/>
      <point x="511" y="471" type="qcurve" smooth="yes"/>
      <point x="558" y="471"/>
      <point x="635" y="441"/>
      <point x="689" y="389"/>
      <point x="719" y="321"/>
    </contour>
    <contour>
      <point x="552" y="286" type="qcurve" smooth="yes"/>
      <point x="552" y="308"/>
      <point x="527" y="333"/>
      <point x="507" y="333" type="qcurve" smooth="yes"/>
      <point x="481" y="333"/>
      <point x="453" y="302"/>
      <point x="446" y="278" type="qcurve"/>
      <point x="551" y="278" type="line" smooth="yes"/>
      <point x="551" y="280"/>
      <point x="552" y="284"/>
    </contour>
    <contour>
      <point x="267" y="189" type="line"/>
      <point x="229" y="186" type="line" smooth="yes"/>
      <point x="205" y="184"/>
      <point x="185" y="155"/>
      <point x="185" y="138" type="qcurve" smooth="yes"/>
      <point x="185" y="124"/>
      <point x="204" y="106"/>
      <point x="221" y="106" type="qcurve" smooth="yes"/>
      <point x="241" y="106"/>
      <point x="267" y="130"/>
      <point x="267" y="147" type="qcurve" smooth="yes"/>
    </contour>
  </outline>
</glyph>
<glyph name="ccedilla" format="1">
  <advance width="458"/>
  <unicode hex="00E7"/>
  <outline>
    <contour>
      <point x="416" y="265" type="line"/>
      <point x="395" y="276"/>
      <point x="343" y="290"/>
      <point x="314" y="290" type="qcurve" smooth="yes"/>
      <point x="274" y="290"/>
      <point x="230" y="255"/>
      <point x="230" y="225" type="qcurve" smooth="yes"/>
      <point x="230" y="196"/>
      <point x="282" y="160"/>
      <point x="325" y="160" type="qcurve" smooth="yes"/>
      <point x="354" y="160"/>
      <point x="400" y="172"/>
      <point x="420" y="183" type="qcurve"/>
      <point x="415" y="10" type="line"/>
      <point x="397" y="-1"/>
      <point x="334" y="-16"/>
      <point x="294" y="-18" type="qcurve"/>
      <point x="293" y="-27" type="line"/>
      <point x="326" y="-29"/>
      <point x="374" y="-81"/>
      <point x="374" y="-119" type="qcurve" smooth="yes"/>
      <point x="374" y="-143"/>
      <point x="357" y="-178"/>
      <point x="328" y="-201"/>
      <point x="290" y="-213"/>
      <point x="270" y="-213" type="qcurve" smooth="yes"/>
      <point x="245" y="-213"/>
      <point x="215" y="-206"/>
      <point x="204" y="-198" type="qcurve"/>
      <point x="212" y="-130" type="line"/>
      <point x="224" y="-139"/>
      <point x="249" y="-145"/>
      <point x="263" y="-145" type="qcurve" smooth="yes"/>
      <point x="279" y="-145"/>
      <point x="293" y="-130"/>
      <point x="293" y="-119" type="qcurve" smooth="yes"/>
      <point x="293" y="-93"/>
      <point x="262" y="-93" type="qcurve" smooth="yes"/>
      <point x="255" y="-93"/>
      <point x="241" y="-94"/>
      <point x="230" y="-96" type="qcurve"/>
      <point x="240" y="-15" type="line"/>
      <point x="194" y="-9"/>
      <point x="116" y="31"/>
      <point x="58" y="93"/>
      <point x="25" y="176"/>
      <point x="25" y="226" type="qcurve" smooth="yes"/>
      <point x="25" y="283"/>
      <point x="65" y="374"/>
      <point x="134" y="437"/>
      <point x="226" y="471"/>
      <point x="278" y="471" type="qcurve" smooth="yes"/>
      <point x="323" y="471"/>
      <point x="397" y="455"/>
      <point x="421" y="441" type="qcurve"/>
    </contour>
  </outline>
</glyph>
<glyph name="egrave" format="1">
  <advance width="502"/>
  <unicode hex="00E8"/>
  <outline>
    <contour>
      <point x="477" y="283" type="qcurve" smooth="yes"/>
      <point x="477" y="271"/>
      <point x="474" y="243"/>
      <point x="471" y="232" type="qcurve"/>
      <point x="406" y="167" type="line"/>
      <point x="218" y="167" type="line"/>
      <point x="231" y="147"/>
      <point x="284" y="120"/>
      <point x="329" y="120" type="qcurve" smooth="yes"/>
      <point x="364" y="120"/>
      <point x="421" y="133"/>
      <point x="448" y="145" type="qcurve"/>
      <point x="443" y="5" type="line"/>
      <point x="420" y="-5"/>
      <point x="352" y="-18"/>
      <point x="307" y="-18" type="qcurve" smooth="yes"/>
      <point x="246" y="-18"/>
      <point x="142" y="17"/>
      <point x="67" y="81"/>
      <point x="25" y="174"/>
      <point x="25" y="231" type="qcurve" smooth="yes"/>
      <point x="25" y="284"/>
      <point x="60" y="372"/>
      <point x="125" y="436"/>
      <point x="215" y="471"/>
      <point x="269" y="471" type="qcurve" smooth="yes"/>
      <point x="317" y="471"/>
      <point x="394" y="441"/>
      <point x="448" y="389"/>
      <point x="477" y="321"/>
    </contour>
    <contour>
      <point x="310" y="286" type="qcurve" smooth="yes"/>
      <point x="310" y="308"/>
      <point x="285" y="333"/>
      <point x="265" y="333" type="qcurve" smooth="yes"/>
      <point x="239" y="333"/>
      <point x="211" y="302"/>
      <point x="204" y="278" type="qcurve"/>
      <point x="309" y="278" type="line" smooth="yes"/>
      <point x="309" y="280"/>
      <point x="310" y="284"/>
    </contour>
    <contour>
      <point x="285" y="504" type="line"/>
      <point x="236" y="516"/>
      <point x="158" y="547"/>
      <point x="115" y="578" type="qcurve"/>
      <point x="140" y="688" type="line"/>
      <point x="162" y="667"/>
      <point x="215" y="631"/>
      <point x="271" y="602"/>
      <point x="327" y="580"/>
      <point x="353" y="573" type="qcurve"/>
    </contour>
  </outline>
</glyph>
<glyph name="eacute" format="1">
  <advance width="502"/>
  <unicode hex="00E9"/>
  <outline>
    <contour>
      <point x="477" y="283" type="qcurve" smooth="yes"/>
      <point x="477" y="271"/>
      <point x="474" y="243"/>
      <point x="471" y="232" type="qcurve"/>
      <point x="406" y="167" type="line"/>
      <point x="218" y="167" type="line"/>
      <point x="231" y="147"/>
      <point x="284" y="120"/>
      <point x="329" y="120" type="qcurve" smooth="yes"/>
      <point x="364" y="120"/>
      <point x="421" y="133"/>
      <point x="448" y="145" type="qcurve"/>
      <point x="443" y="5" type="line"/>
      <point x="420" y="-5"/>
      <point x="352" y="-18"/>
      <point x="307" y="-18" type="qcurve" smooth="yes"/>
      <point x="246" y="-18"/>
      <point x="142" y="17"/>
      <point x="67" y="81"/>
      <point x="25" y="174"/>
      <point x="25" y="231" type="qcurve" smooth="yes"/>
      <point x="25" y="284"/>
      <point x="60" y="372"/>
      <point x="125" y="436"/>
      <point x="215" y="471"/>
      <point x="269" y="471" type="qcurve" smooth="yes"/>
      <point x="317" y="471"/>
      <point x="394" y="441"/>
      <point x="448" y="389"/>
      <point x="477" y="321"/>
    </contour>
    <contour>
      <point x="310" y="286" type="qcurve" smooth="yes"/>
      <point x="310" y="308"/>
      <point x="285" y="333"/>
      <point x="265" y="333" type="qcurve" smooth="yes"/>
      <point x="239" y="333"/>
      <point x="211" y="302"/>
      <point x="204" y="278" type="qcurve"/>
      <point x="309" y="278" type="line" smooth="yes"/>
      <point x="309" y="280"/>
      <point x="310" y="284"/>
    </contour>
    <contour>
      <point x="416" y="578" type="line"/>
      <point x="394" y="563"/>
      <point x="354" y="540"/>
      <point x="313" y="523"/>
      <point x="270" y="510"/>
      <point x="246" y="504" type="qcurve"/>
      <point x="177" y="573" type="line"/>
      <point x="202" y="580"/>
      <point x="259" y="602"/>
      <point x="315" y="631"/>
      <point x="368" y="667"/>
      <point x="390" y="688" type="qcurve"/>
      <point x="416" y="578" type="line"/>
    </contour>
  </outline>
</glyph>
<glyph name="edieresis" format="1">
  <advance width="502"/>
  <unicode hex="00EB"/>
  <outline>
    <contour>
      <point x="477" y="283" type="qcurve" smooth="yes"/>
      <point x="477" y="271"/>
      <point x="474" y="243"/>
      <point x="471" y="232" type="qcurve"/>
      <point x="406" y="167" type="line"/>
      <point x="218" y="167" type="line"/>
      <point x="231" y="147"/>
      <point x="284" y="120"/>
      <point x="329" y="120" type="qcurve" smooth="yes"/>
      <point x="364" y="120"/>
      <point x="421" y="133"/>
      <point x="448" y="145" type="qcurve"/>
      <point x="443" y="5" type="line"/>
      <point x="420" y="-5"/>
      <point x="352" y="-18"/>
      <point x="307" y="-18" type="qcurve" smooth="yes"/>
      <point x="246" y="-18"/>
      <point x="142" y="17"/>
      <point x="67" y="81"/>
      <point x="25" y="174"/>
      <point x="25" y="231" type="qcurve" smooth="yes"/>
      <point x="25" y="284"/>
      <point x="60" y="372"/>
      <point x="125" y="436"/>
      <point x="215" y="471"/>
      <point x="269" y="471" type="qcurve" smooth="yes"/>
      <point x="317" y="471"/>
      <point x="394" y="441"/>
      <point x="448" y="389"/>
      <point x="477" y="321"/>
    </contour>
    <contour>
      <point x="310" y="286" type="qcurve" smooth="yes"/>
      <point x="310" y="308"/>
      <point x="285" y="333"/>
      <point x="265" y="333" type="qcurve" smooth="yes"/>
      <point x="239" y="333"/>
      <point x="211" y="302"/>
      <point x="204" y="278" type="qcurve"/>
      <point x="309" y="278" type="line" smooth="yes"/>
      <point x="309" y="280"/>
      <point x="310" y="284"/>
    </contour>
    <contour>
      <point x="420" y="573" type="qcurve" smooth="yes"/>
      <point x="420" y="565"/>
      <point x="404" y="542"/>
      <point x="382" y="520"/>
      <point x="359" y="504"/>
      <point x="351" y="504" type="qcurve" smooth="yes"/>
      <point x="343" y="504"/>
      <point x="320" y="520"/>
      <point x="298" y="542"/>
      <point x="282" y="565"/>
      <point x="282" y="573" type="qcurve" smooth="yes"/>
      <point x="282" y="581"/>
      <point x="298" y="604"/>
      <point x="320" y="626"/>
      <point x="343" y="642"/>
      <point x="351" y="642" type="qcurve" smooth="yes"/>
      <point x="359" y="642"/>
      <point x="382" y="626"/>
      <point x="404" y="604"/>
      <point x="420" y="581"/>
    </contour>
    <contour>
      <point x="245" y="573" type="qcurve" smooth="yes"/>
      <point x="245" y="565"/>
      <point x="229" y="542"/>
      <point x="207" y="520"/>
      <point x="184" y="504"/>
      <point x="176" y="504" type="qcurve" smooth="yes"/>
      <point x="168" y="504"/>
      <point x="145" y="520"/>
      <point x="123" y="542"/>
      <point x="107" y="565"/>
      <point x="107" y="573" type="qcurve" smooth="yes"/>
      <point x="107" y="581"/>
      <point x="123" y="604"/>
      <point x="145" y="626"/>
      <point x="168" y="642"/>
      <point x="176" y="642" type="qcurve" smooth="yes"/>
      <point x="184" y="642"/>
      <point x="207" y="626"/>
      <point x="229" y="604"/>
      <point x="245" y="581"/>
    </contour>
  </outline>
</glyph>
<glyph name="igrave" format="1">
  <advance width="285"/>
  <unicode hex="00EC"/>
  <outline>
    <contour>
      <point x="40" y="0" type="line"/>
      <point x="40" y="453" type="line"/>
      <point x="245" y="453" type="line"/>
      <point x="245" y="0" type="line"/>
    </contour>
    <contour>
      <point x="171" y="504" type="line"/>
      <point x="122" y="516"/>
      <point x="44" y="547"/>
      <point x="1" y="578" type="qcurve"/>
      <point x="26" y="688" type="line"/>
      <point x="48" y="667"/>
      <point x="101" y="631"/>
      <point x="158" y="602"/>
      <point x="214" y="580"/>
      <point x="240" y="573" type="qcurve"/>
    </contour>
  </outline>
</glyph>
<glyph name="iacute" format="1">
  <advance width="285"/>
  <unicode hex="00ED"/>
  <outline>
    <contour>
      <point x="40" y="0" type="line"/>
      <point x="40" y="453" type="line"/>
      <point x="245" y="453" type="line"/>
      <point x="245" y="0" type="line"/>
    </contour>
    <contour>
      <point x="286" y="578" type="line"/>
      <point x="264" y="563"/>
      <point x="224" y="540"/>
      <point x="183" y="523"/>
      <point x="140" y="510"/>
      <point x="116" y="504" type="qcurve"/>
      <point x="47" y="573" type="line"/>
      <point x="72" y="580"/>
      <point x="129" y="602"/>
      <point x="185" y="631"/>
      <point x="238" y="667"/>
      <point x="260" y="688" type="qcurve"/>
      <point x="286" y="578" type="line"/>
    </contour>
  </outline>
</glyph>
<glyph name="icircumflex" format="1">
  <advance width="285"/>
  <unicode hex="00EE"/>
  <outline>
    <contour>
      <point x="40" y="0" type="line"/>
      <point x="40" y="453" type="line"/>
      <point x="245" y="453" type="line"/>
      <point x="245" y="0" type="line"/>
    </contour>
    <contour>
      <point x="218" y="504" type="line"/>
      <point x="198" y="514"/>
      <point x="161" y="537"/>
      <point x="142" y="557" type="qcurve"/>
      <point x="123" y="538"/>
      <point x="86" y="514"/>
      <point x="65" y="504" type="qcurve"/>
      <point x="0" y="570" type="line"/>
      <point x="34" y="586"/>
      <point x="113" y="648"/>
      <point x="142" y="694" type="qcurve"/>
      <point x="171" y="648"/>
      <point x="250" y="586"/>
      <point x="284" y="570" type="qcurve"/>
    </contour>
  </outline>
</glyph>
<glyph name="idieresis" format="1">
  <advance width="285"/>
  <unicode hex="00EF"/>
  <outline>
    <contour>
      <point x="40" y="0" type="line"/>
      <point x="40" y="453" type="line"/>
      <point x="245" y="453" type="line"/>
      <point x="245" y="0" type="line"/>
    </contour>
    <contour>
      <point x="298" y="573" type="qcurve" smooth="yes"/>
      <point x="298" y="565"/>
      <point x="282" y="542"/>
      <point x="260" y="520"/>
      <point x="237" y="504"/>
      <point x="229" y="504" type="qcurve" smooth="yes"/>
      <point x="221" y="504"/>
      <point x="198" y="520"/>
      <point x="176" y="542"/>
      <point x="160" y="565"/>
      <point x="160" y="573" type="qcurve" smooth="yes"/>
      <point x="160" y="581"/>
      <point x="176" y="604"/>
      <point x="198" y="626"/>
      <point x="221" y="642"/>
      <point x="229" y="642" type="qcurve" smooth="yes"/>
      <point x="237" y="642"/>
      <point x="260" y="626"/>
      <point x="282" y="604"/>
      <point x="298" y="581"/>
    </contour>
    <contour>
      <point x="123" y="573" type="qcurve" smooth="yes"/>
      <point x="123" y="565"/>
      <point x="107" y="542"/>
      <point x="85" y="520"/>
      <point x="62" y="504"/>
      <point x="54" y="504" type="qcurve" smooth="yes"/>
      <point x="46" y="504"/>
      <point x="23" y="520"/>
      <point x="1" y="542"/>
      <point x="-15" y="565"/>
      <point x="-15" y="573" type="qcurve" smooth="yes"/>
      <point x="-15" y="581"/>
      <point x="1" y="604"/>
      <point x="23" y="626"/>
      <point x="46" y="642"/>
      <point x="54" y="642" type="qcurve" smooth="yes"/>
      <point x="62" y="642"/>
      <point x="85" y="626"/>
      <point x="107" y="604"/>
      <point x="123" y="581"/>
    </contour>
  </outline>
</glyph>
<glyph name="eth" format="1">
  <advance width="550"/>
  <unicode hex="00F0"/>
  <outline>
    <contour>
      <point x="520" y="221" type="qcurve" smooth="yes"/>
      <point x="520" y="170"/>
      <point x="486" y="82"/>
      <point x="422" y="18"/>
      <point x="329" y="-18"/>
      <point x="269" y="-18" type="qcurve" smooth="yes"/>
      <point x="211" y="-18"/>
      <point x="120" y="18"/>
      <point x="58" y="81"/>
      <point x="25" y="165"/>
      <point x="25" y="212" type="qcurve" smooth="yes"/>
      <point x="25" y="283"/>
      <point x="81" y="371"/>
      <point x="123" y="398" type="qcurve" smooth="yes"/>
      <point x="141" y="409"/>
      <point x="202" y="434"/>
      <point x="232" y="442" type="qcurve"/>
      <point x="214" y="484" type="line"/>
      <point x="144" y="456" type="line"/>
      <point x="89" y="591" type="line"/>
      <point x="158" y="619" type="line"/>
      <point x="119" y="712" type="line"/>
      <point x="335" y="712" type="line"/>
      <point x="343" y="693" type="line"/>
      <point x="389" y="712" type="line"/>
      <point x="444" y="577" type="line"/>
      <point x="399" y="558" type="line"/>
      <point x="492" y="335" type="line" smooth="yes"/>
      <point x="503" y="309"/>
      <point x="520" y="247"/>
    </contour>
    <contour>
      <point x="323" y="216" type="qcurve" smooth="yes"/>
      <point x="323" y="232"/>
      <point x="307" y="268"/>
      <point x="299" y="282" type="qcurve"/>
      <point x="282" y="279"/>
      <point x="256" y="271"/>
      <point x="241" y="261" type="qcurve" smooth="yes"/>
      <point x="231" y="255"/>
      <point x="217" y="230"/>
      <point x="217" y="214" type="qcurve" smooth="yes"/>
      <point x="217" y="191"/>
      <point x="247" y="160"/>
      <point x="269" y="160" type="qcurve" smooth="yes"/>
      <point x="295" y="160"/>
      <point x="323" y="192"/>
    </contour>
  </outline>
</glyph>
<glyph name="ntilde" format="1">
  <advance width="548"/>
  <unicode hex="00F1"/>
  <outline>
    <contour>
      <point x="310" y="0" type="line"/>
      <point x="310" y="249" type="line" smooth="yes"/>
      <point x="310" y="263"/>
      <point x="289" y="279"/>
      <point x="277" y="279" type="qcurve" smooth="yes"/>
      <point x="265" y="279"/>
      <point x="238" y="264"/>
      <point x="238" y="244" type="qcurve" smooth="yes"/>
      <point x="238" y="0" type="line"/>
      <point x="35" y="0" type="line"/>
      <point x="35" y="453" type="line"/>
      <point x="213" y="453" type="line"/>
      <point x="217" y="408" type="line"/>
      <point x="223" y="420"/>
      <point x="250" y="441"/>
      <point x="286" y="457"/>
      <point x="328" y="467"/>
      <point x="350" y="467" type="qcurve" smooth="yes"/>
      <point x="425" y="467"/>
      <point x="513" y="379"/>
      <point x="513" y="304" type="qcurve" smooth="yes"/>
      <point x="513" y="0" type="line"/>
    </contour>
    <contour>
      <point x="403" y="556" type="line"/>
      <point x="367" y="533"/>
      <point x="299" y="508"/>
      <point x="254" y="504" type="qcurve"/>
      <point x="247" y="569" type="line"/>
      <point x="215" y="564"/>
      <point x="148" y="539"/>
      <point x="117" y="519" type="qcurve"/>
      <point x="143" y="627" type="line"/>
      <point x="180" y="650"/>
      <point x="247" y="674"/>
      <point x="293" y="678" type="qcurve"/>
      <point x="300" y="614" type="line"/>
      <point x="332" y="620"/>
      <point x="399" y="646"/>
      <point x="430" y="664" type="qcurve"/>
    </contour>
  </outline>
</glyph>
<glyph name="oacute" format="1">
  <advance width="556"/>
  <unicode hex="00F3"/>
  <outline>
    <contour>
      <point x="531" y="227" type="qcurve" smooth="yes"/>
      <point x="531" y="173"/>
      <point x="490" y="83"/>
      <point x="421" y="18"/>
      <point x="329" y="-18"/>
      <point x="278" y="-18" type="qcurve" smooth="yes"/>
      <point x="226" y="-18"/>
      <point x="134" y="18"/>
      <point x="65" y="83"/>
      <point x="25" y="173"/>
      <point x="25" y="227" type="qcurve" smooth="yes"/>
      <point x="25" y="281"/>
      <point x="65" y="370"/>
      <point x="134" y="435"/>
      <point x="226" y="471"/>
      <point x="278" y="471" type="qcurve" smooth="yes"/>
      <point x="329" y="471"/>
      <point x="421" y="435"/>
      <point x="490" y="370"/>
      <point x="531" y="281"/>
    </contour>
    <contour>
      <point x="339" y="227" type="qcurve" smooth="yes"/>
      <point x="339" y="257"/>
      <point x="303" y="301"/>
      <point x="278" y="301" type="qcurve" smooth="yes"/>
      <point x="253" y="301"/>
      <point x="217" y="257"/>
      <point x="217" y="227" type="qcurve" smooth="yes"/>
      <point x="217" y="197"/>
      <point x="253" y="153"/>
      <point x="278" y="153" type="qcurve" smooth="yes"/>
      <point x="303" y="153"/>
      <point x="339" y="197"/>
    </contour>
    <contour>
      <point x="425" y="578" type="line"/>
      <point x="403" y="563"/>
      <point x="363" y="540"/>
      <point x="322" y="523"/>
      <point x="279" y="510"/>
      <point x="255" y="504" type="qcurve"/>
      <point x="186" y="573" type="line"/>
      <point x="211" y="580"/>
      <point x="268" y="602"/>
      <point x="324" y="631"/>
      <point x="377" y="667"/>
      <point x="399" y="688" type="qcurve"/>
      <point x="425" y="578" type="line"/>
    </contour>
  </outline>
</glyph>
<glyph name="ocircumflex" format="1">
  <advance width="556"/>
  <unicode hex="00F4"/>
  <outline>
    <contour>
      <point x="531" y="227" type="qcurve" smooth="yes"/>
      <point x="531" y="173"/>
      <point x="490" y="83"/>
      <point x="421" y="18"/>
      <point x="329" y="-18"/>
      <point x="278" y="-18" type="qcurve" smooth="yes"/>
      <point x="226" y="-18"/>
      <point x="134" y="18"/>
      <point x="65" y="83"/>
      <point x="25" y="173"/>
      <point x="25" y="227" type="qcurve" smooth="yes"/>
      <point x="25" y="281"/>
      <point x="65" y="370"/>
      <point x="134" y="435"/>
      <point x="226" y="471"/>
      <point x="278" y="471" type="qcurve" smooth="yes"/>
      <point x="329" y="471"/>
      <point x="421" y="435"/>
      <point x="490" y="370"/>
      <point x="531" y="281"/>
    </contour>
    <contour>
      <point x="339" y="227" type="qcurve" smooth="yes"/>
      <point x="339" y="257"/>
      <point x="303" y="301"/>
      <point x="278" y="301" type="qcurve" smooth="yes"/>
      <point x="253" y="301"/>
      <point x="217" y="257"/>
      <point x="217" y="227" type="qcurve" smooth="yes"/>
      <point x="217" y="197"/>
      <point x="253" y="153"/>
      <point x="278" y="153" type="qcurve" smooth="yes"/>
      <point x="303" y="153"/>
      <point x="339" y="197"/>
    </contour>
    <contour>
      <point x="354" y="504" type="line"/>
      <point x="334" y="514"/>
      <point x="297" y="537"/>
      <point x="278" y="557" type="qcurve"/>
      <point x="259" y="538"/>
      <point x="222" y="514"/>
      <point x="201" y="504" type="qcurve"/>
      <point x="136" y="570" type="line"/>
      <point x="170" y="586"/>
      <point x="249" y="648"/>
      <point x="278" y="694" type="qcurve"/>
      <point x="307" y="648"/>
      <point x="386" y="586"/>
      <point x="420" y="570" type="qcurve"/>
    </contour>
  </outline>
</glyph>
<glyph name="otilde" format="1">
  <advance width="556"/>
  <unicode hex="00F5"/>
  <outline>
    <contour>
      <point x="531" y="227" type="qcurve" smooth="yes"/>
      <point x="531" y="173"/>
      <point x="490" y="83"/>
      <point x="421" y="18"/>
      <point x="329" y="-18"/>
      <point x="278" y="-18" type="qcurve" smooth="yes"/>
      <point x="226" y="-18"/>
      <point x="134" y="18"/>
      <point x="65" y="83"/>
      <point x="25" y="173"/>
      <point x="25" y="227" type="qcurve" smooth="yes"/>
      <point x="25" y="281"/>
      <point x="65" y="370"/>
      <point x="134" y="435"/>
      <point x="226" y="471"/>
      <point x="278" y="471" type="qcurve" smooth="yes"/>
      <point x="329" y="471"/>
      <point x="421" y="435"/>
      <point x="490" y="370"/>
      <point x="531" y="281"/>
    </contour>
    <contour>
      <point x="339" y="227" type="qcurve" smooth="yes"/>
      <point x="339" y="257"/>
      <point x="303" y="301"/>
      <point x="278" y="301" type="qcurve" smooth="yes"/>
      <point x="253" y="301"/>
      <point x="217" y="257"/>
      <point x="217" y="227" type="qcurve" smooth="yes"/>
      <point x="217" y="197"/>
      <point x="253" y="153"/>
      <point x="278" y="153" type="qcurve" smooth="yes"/>
      <point x="303" y="153"/>
      <point x="339" y="197"/>
    </contour>
    <contour>
      <point x="410" y="556" type="line"/>
      <point x="374" y="533"/>
      <point x="306" y="508"/>
      <point x="261" y="504" type="qcurve"/>
      <point x="254" y="569" type="line"/>
      <point x="222" y="564"/>
      <point x="155" y="539"/>
      <point x="124" y="519" type="qcurve"/>
      <point x="150" y="627" type="line"/>
      <point x="187" y="650"/>
      <point x="254" y="674"/>
      <point x="300" y="678" type="qcurve"/>
      <point x="307" y="614" type="line"/>
      <point x="339" y="620"/>
      <point x="406" y="646"/>
      <point x="437" y="664" type="qcurve"/>
    </contour>
  </outline>
</glyph>
